%TF.GenerationSoftware,KiCad,Pcbnew,9.0.3*%
%TF.CreationDate,2025-09-19T00:55:14-04:00*%
%TF.ProjectId,UWB,5557422e-6b69-4636-9164-5f7063625858,rev?*%
%TF.SameCoordinates,Original*%
%TF.FileFunction,Copper,L2,Bot*%
%TF.FilePolarity,Positive*%
%FSLAX46Y46*%
G04 Gerber Fmt 4.6, Leading zero omitted, Abs format (unit mm)*
G04 Created by KiCad (PCBNEW 9.0.3) date 2025-09-19 00:55:14*
%MOMM*%
%LPD*%
G01*
G04 APERTURE LIST*
%TA.AperFunction,ComponentPad*%
%ADD10R,1.700000X1.700000*%
%TD*%
%TA.AperFunction,ComponentPad*%
%ADD11C,1.700000*%
%TD*%
%TA.AperFunction,ViaPad*%
%ADD12C,0.600000*%
%TD*%
%TA.AperFunction,Conductor*%
%ADD13C,0.250000*%
%TD*%
G04 APERTURE END LIST*
D10*
%TO.P,J1,1,Pin_1*%
%TO.N,/UWB_IO0*%
X-8890000Y4300000D03*
D11*
%TO.P,J1,2,Pin_2*%
%TO.N,/UWB_IO1*%
X-6350000Y4300000D03*
%TO.P,J1,3,Pin_3*%
%TO.N,/UWB_IO2*%
X-3810000Y4300000D03*
%TO.P,J1,4,Pin_4*%
%TO.N,/UWB_IO3*%
X-1270000Y4300000D03*
%TO.P,J1,5,Pin_5*%
%TO.N,/UWB_IO4*%
X1270000Y4300000D03*
%TO.P,J1,6,Pin_6*%
%TO.N,/UWB_IO5*%
X3810000Y4300000D03*
%TO.P,J1,7,Pin_7*%
%TO.N,/UWB_IO6*%
X6350000Y4300000D03*
%TO.P,J1,8,Pin_8*%
%TO.N,/UWB_EXTON*%
X8890000Y4300000D03*
%TD*%
D10*
%TO.P,J2,1,Pin_1*%
%TO.N,GND*%
X-15480000Y-22160000D03*
D11*
%TO.P,J2,2,Pin_2*%
%TO.N,+3.3V*%
X-15480000Y-19620000D03*
%TO.P,J2,3,Pin_3*%
%TO.N,/SPI_CLK*%
X-15480000Y-17080000D03*
%TO.P,J2,4,Pin_4*%
%TO.N,/SPI_MISO*%
X-15480000Y-14540000D03*
%TO.P,J2,5,Pin_5*%
%TO.N,/SPI_MOSI*%
X-15480000Y-12000000D03*
%TO.P,J2,6,Pin_6*%
%TO.N,/SPI_~{CS}*%
X-15480000Y-9460000D03*
%TO.P,J2,7,Pin_7*%
%TO.N,/UWB_WAKEUP*%
X-15480000Y-6920000D03*
%TO.P,J2,8,Pin_8*%
%TO.N,/UWB_IRQ*%
X-15480000Y-4380000D03*
%TO.P,J2,9,Pin_9*%
%TO.N,/UWB_~{RST}*%
X-15480000Y-1840000D03*
%TO.P,J2,10,Pin_10*%
%TO.N,/UWB_IO7*%
X-15480000Y700000D03*
%TD*%
D12*
%TO.N,GND*%
X-14600000Y-20800000D03*
X2800000Y-12600000D03*
X-2900000Y-3400000D03*
X1900000Y-3400000D03*
X1900000Y-6600000D03*
X700000Y-12600000D03*
X-2900000Y-6600000D03*
X-2800000Y-12600000D03*
X-12800000Y4400000D03*
X-15000000Y4400000D03*
%TO.N,/UWB_IO7*%
X4600000Y-8400000D03*
%TO.N,/SPI_~{CS}*%
X-8400000Y-11725000D03*
%TO.N,/UWB_~{RST}*%
X4600000Y-9800000D03*
%TO.N,/UWB_WAKEUP*%
X4600000Y-11100000D03*
%TO.N,/UWB_IRQ*%
X-8400000Y-9800000D03*
%TD*%
D13*
%TO.N,/UWB_IO7*%
X-4800000Y-8400000D02*
X-13900000Y700000D01*
X4600000Y-8400000D02*
X-4800000Y-8400000D01*
X-13900000Y700000D02*
X-15480000Y700000D01*
%TO.N,/SPI_~{CS}*%
X-10875000Y-11725000D02*
X-13200000Y-9400000D01*
X-15420000Y-9400000D02*
X-15480000Y-9460000D01*
X-13200000Y-9400000D02*
X-15420000Y-9400000D01*
X-8400000Y-11725000D02*
X-10875000Y-11725000D01*
%TO.N,/UWB_~{RST}*%
X-13860000Y-1840000D02*
X-15480000Y-1840000D01*
X4600000Y-9800000D02*
X-5900000Y-9800000D01*
X-5900000Y-9800000D02*
X-13860000Y-1840000D01*
%TO.N,/UWB_WAKEUP*%
X-13880000Y-6920000D02*
X-15480000Y-6920000D01*
X4600000Y-11100000D02*
X4300000Y-10800000D01*
X4300000Y-10800000D02*
X-10000000Y-10800000D01*
X-10000000Y-10800000D02*
X-13880000Y-6920000D01*
%TO.N,/UWB_IRQ*%
X-8500000Y-9700000D02*
X-8600000Y-9700000D01*
X-8400000Y-9800000D02*
X-8500000Y-9700000D01*
X-13920000Y-4380000D02*
X-15480000Y-4380000D01*
X-8600000Y-9700000D02*
X-13920000Y-4380000D01*
%TD*%
%TA.AperFunction,Conductor*%
%TO.N,GND*%
G36*
X-10087283Y5585148D02*
G01*
X-10072931Y5550500D01*
X-10087283Y5515852D01*
X-10092565Y5511274D01*
X-10097546Y5507546D01*
X-10183796Y5392331D01*
X-10234091Y5257483D01*
X-10234092Y5257479D01*
X-10234092Y5257478D01*
X-10240500Y5197873D01*
X-10240499Y3959917D01*
X-10240499Y3402120D01*
X-10234092Y3342521D01*
X-10234091Y3342518D01*
X-10234091Y3342517D01*
X-10183796Y3207669D01*
X-10097546Y3092454D01*
X-10038755Y3048443D01*
X-9982333Y3006205D01*
X-9982331Y3006204D01*
X-9937381Y2989439D01*
X-9847479Y2955907D01*
X-9787879Y2949500D01*
X-9787873Y2949500D01*
X-7992119Y2949500D01*
X-7992120Y2949501D01*
X-7932521Y2955907D01*
X-7797666Y3006205D01*
X-7682454Y3092454D01*
X-7596205Y3207666D01*
X-7545907Y3342520D01*
X-7539500Y3402120D01*
X-7539500Y3488791D01*
X-7525148Y3523439D01*
X-7490500Y3537791D01*
X-7455852Y3523439D01*
X-7450858Y3517593D01*
X-7380104Y3420208D01*
X-7380102Y3420206D01*
X-7380098Y3420201D01*
X-7229798Y3269901D01*
X-7229793Y3269897D01*
X-7057821Y3144952D01*
X-7057813Y3144947D01*
X-6868413Y3048443D01*
X-6666243Y2982754D01*
X-6666240Y2982753D01*
X-6504957Y2957208D01*
X-6456287Y2949500D01*
X-6456286Y2949500D01*
X-6243714Y2949500D01*
X-6243713Y2949500D01*
X-6203248Y2955909D01*
X-6033759Y2982753D01*
X-6033756Y2982754D01*
X-5831586Y3048443D01*
X-5642186Y3144947D01*
X-5642178Y3144952D01*
X-5470206Y3269897D01*
X-5319897Y3420206D01*
X-5194952Y3592178D01*
X-5194950Y3592181D01*
X-5123659Y3732099D01*
X-5095142Y3756455D01*
X-5057754Y3753512D01*
X-5036341Y3732099D01*
X-4965049Y3592181D01*
X-4965047Y3592178D01*
X-4915515Y3524003D01*
X-4840104Y3420208D01*
X-4840102Y3420206D01*
X-4840099Y3420202D01*
X-4689798Y3269901D01*
X-4689793Y3269897D01*
X-4517821Y3144952D01*
X-4517813Y3144947D01*
X-4328413Y3048443D01*
X-4126243Y2982754D01*
X-4126240Y2982753D01*
X-3964957Y2957208D01*
X-3916287Y2949500D01*
X-3916286Y2949500D01*
X-3703714Y2949500D01*
X-3703713Y2949500D01*
X-3663248Y2955909D01*
X-3493759Y2982753D01*
X-3493756Y2982754D01*
X-3291586Y3048443D01*
X-3102186Y3144947D01*
X-3102178Y3144952D01*
X-2930206Y3269897D01*
X-2779897Y3420206D01*
X-2654952Y3592178D01*
X-2654950Y3592181D01*
X-2583659Y3732099D01*
X-2555142Y3756455D01*
X-2517754Y3753512D01*
X-2496341Y3732099D01*
X-2425049Y3592181D01*
X-2425047Y3592178D01*
X-2375515Y3524003D01*
X-2300104Y3420208D01*
X-2300102Y3420206D01*
X-2300099Y3420202D01*
X-2149798Y3269901D01*
X-2149793Y3269897D01*
X-1977821Y3144952D01*
X-1977813Y3144947D01*
X-1788413Y3048443D01*
X-1586243Y2982754D01*
X-1586240Y2982753D01*
X-1424957Y2957208D01*
X-1376287Y2949500D01*
X-1376286Y2949500D01*
X-1163714Y2949500D01*
X-1163713Y2949500D01*
X-1123248Y2955909D01*
X-953759Y2982753D01*
X-953756Y2982754D01*
X-751586Y3048443D01*
X-562186Y3144947D01*
X-562178Y3144952D01*
X-390206Y3269897D01*
X-239897Y3420206D01*
X-114952Y3592178D01*
X-114950Y3592181D01*
X-43659Y3732099D01*
X-15142Y3756455D01*
X22246Y3753512D01*
X43659Y3732099D01*
X114950Y3592181D01*
X114952Y3592178D01*
X239897Y3420206D01*
X390206Y3269897D01*
X562178Y3144952D01*
X562186Y3144947D01*
X751586Y3048443D01*
X953756Y2982754D01*
X953759Y2982753D01*
X1123248Y2955909D01*
X1163713Y2949500D01*
X1163714Y2949500D01*
X1376286Y2949500D01*
X1376287Y2949500D01*
X1424957Y2957208D01*
X1586240Y2982753D01*
X1586243Y2982754D01*
X1788413Y3048443D01*
X1977813Y3144947D01*
X1977821Y3144952D01*
X2149793Y3269897D01*
X2149798Y3269901D01*
X2300099Y3420202D01*
X2300102Y3420206D01*
X2300104Y3420208D01*
X2375515Y3524003D01*
X2425047Y3592178D01*
X2425049Y3592181D01*
X2496341Y3732099D01*
X2524858Y3756455D01*
X2562246Y3753512D01*
X2583659Y3732099D01*
X2654950Y3592181D01*
X2654952Y3592178D01*
X2779897Y3420206D01*
X2930206Y3269897D01*
X3102178Y3144952D01*
X3102186Y3144947D01*
X3291586Y3048443D01*
X3493756Y2982754D01*
X3493759Y2982753D01*
X3663248Y2955909D01*
X3703713Y2949500D01*
X3703714Y2949500D01*
X3916286Y2949500D01*
X3916287Y2949500D01*
X3964957Y2957208D01*
X4126240Y2982753D01*
X4126243Y2982754D01*
X4328413Y3048443D01*
X4517813Y3144947D01*
X4517821Y3144952D01*
X4689793Y3269897D01*
X4689798Y3269901D01*
X4840099Y3420202D01*
X4840102Y3420206D01*
X4840104Y3420208D01*
X4915515Y3524003D01*
X4965047Y3592178D01*
X4965049Y3592181D01*
X5036341Y3732099D01*
X5064858Y3756455D01*
X5102246Y3753512D01*
X5123659Y3732099D01*
X5194950Y3592181D01*
X5194952Y3592178D01*
X5319897Y3420206D01*
X5470206Y3269897D01*
X5642178Y3144952D01*
X5642186Y3144947D01*
X5831586Y3048443D01*
X6033756Y2982754D01*
X6033759Y2982753D01*
X6203248Y2955909D01*
X6243713Y2949500D01*
X6243714Y2949500D01*
X6456286Y2949500D01*
X6456287Y2949500D01*
X6504957Y2957208D01*
X6666240Y2982753D01*
X6666243Y2982754D01*
X6868413Y3048443D01*
X7057813Y3144947D01*
X7057821Y3144952D01*
X7229793Y3269897D01*
X7229798Y3269901D01*
X7380099Y3420202D01*
X7380102Y3420206D01*
X7380104Y3420208D01*
X7455515Y3524003D01*
X7505047Y3592178D01*
X7505049Y3592181D01*
X7576341Y3732099D01*
X7604858Y3756455D01*
X7642246Y3753512D01*
X7663659Y3732099D01*
X7734950Y3592181D01*
X7734952Y3592178D01*
X7859897Y3420206D01*
X8010206Y3269897D01*
X8182178Y3144952D01*
X8182186Y3144947D01*
X8371586Y3048443D01*
X8573756Y2982754D01*
X8573759Y2982753D01*
X8743248Y2955909D01*
X8783713Y2949500D01*
X8783714Y2949500D01*
X8996286Y2949500D01*
X8996287Y2949500D01*
X9044957Y2957208D01*
X9206240Y2982753D01*
X9206243Y2982754D01*
X9408413Y3048443D01*
X9597813Y3144947D01*
X9597821Y3144952D01*
X9769793Y3269897D01*
X9769798Y3269901D01*
X9920099Y3420202D01*
X9920102Y3420206D01*
X9920104Y3420208D01*
X9995515Y3524003D01*
X10045047Y3592178D01*
X10045049Y3592181D01*
X10106841Y3713454D01*
X10135358Y3737810D01*
X10172746Y3734867D01*
X10197102Y3706350D01*
X10199500Y3691208D01*
X10199500Y-13951000D01*
X10185148Y-13985648D01*
X10150500Y-14000000D01*
X-12500000Y-14000000D01*
X-12500000Y-23450500D01*
X-12514352Y-23485148D01*
X-12549000Y-23499500D01*
X-16297249Y-23499500D01*
X-16302735Y-23499192D01*
X-16405664Y-23487595D01*
X-16416362Y-23485153D01*
X-16511514Y-23451857D01*
X-16521400Y-23447096D01*
X-16606759Y-23393461D01*
X-16615337Y-23386620D01*
X-16686620Y-23315337D01*
X-16693461Y-23306759D01*
X-16747096Y-23221400D01*
X-16751857Y-23211514D01*
X-16785153Y-23116362D01*
X-16787595Y-23105664D01*
X-16799192Y-23002734D01*
X-16799500Y-22997248D01*
X-16799500Y-20209165D01*
X-16785148Y-20174517D01*
X-16750500Y-20160165D01*
X-16715852Y-20174517D01*
X-16706840Y-20186920D01*
X-16635051Y-20327816D01*
X-16510104Y-20499792D01*
X-16510100Y-20499795D01*
X-16510099Y-20499798D01*
X-16359798Y-20650099D01*
X-16359795Y-20650100D01*
X-16359792Y-20650104D01*
X-16187816Y-20775051D01*
X-15998412Y-20871557D01*
X-15796243Y-20937246D01*
X-15586287Y-20970500D01*
X-15586286Y-20970500D01*
X-15373714Y-20970500D01*
X-15373713Y-20970500D01*
X-15163757Y-20937246D01*
X-14961588Y-20871557D01*
X-14772184Y-20775051D01*
X-14600208Y-20650104D01*
X-14600206Y-20650102D01*
X-14600202Y-20650099D01*
X-14449901Y-20499798D01*
X-14449897Y-20499793D01*
X-14324952Y-20327821D01*
X-14324947Y-20327813D01*
X-14228443Y-20138413D01*
X-14162754Y-19936243D01*
X-14162753Y-19936240D01*
X-14129500Y-19726286D01*
X-14129500Y-19513713D01*
X-14162753Y-19303759D01*
X-14162754Y-19303756D01*
X-14228443Y-19101586D01*
X-14324947Y-18912186D01*
X-14324952Y-18912178D01*
X-14449897Y-18740206D01*
X-14600206Y-18589897D01*
X-14772178Y-18464952D01*
X-14772181Y-18464950D01*
X-14912099Y-18393659D01*
X-14936455Y-18365142D01*
X-14933512Y-18327754D01*
X-14912099Y-18306341D01*
X-14772184Y-18235051D01*
X-14600208Y-18110104D01*
X-14600206Y-18110102D01*
X-14600202Y-18110099D01*
X-14449901Y-17959798D01*
X-14449897Y-17959793D01*
X-14324952Y-17787821D01*
X-14324947Y-17787813D01*
X-14228443Y-17598413D01*
X-14162754Y-17396243D01*
X-14162753Y-17396240D01*
X-14129500Y-17186286D01*
X-14129500Y-16973713D01*
X-14162753Y-16763759D01*
X-14162754Y-16763756D01*
X-14228443Y-16561586D01*
X-14324947Y-16372186D01*
X-14324952Y-16372178D01*
X-14449897Y-16200206D01*
X-14600206Y-16049897D01*
X-14772178Y-15924952D01*
X-14772181Y-15924950D01*
X-14912099Y-15853659D01*
X-14936455Y-15825142D01*
X-14933512Y-15787754D01*
X-14912099Y-15766341D01*
X-14772184Y-15695051D01*
X-14600208Y-15570104D01*
X-14600206Y-15570102D01*
X-14600202Y-15570099D01*
X-14449901Y-15419798D01*
X-14449897Y-15419793D01*
X-14324952Y-15247821D01*
X-14324947Y-15247813D01*
X-14228443Y-15058413D01*
X-14162754Y-14856243D01*
X-14162753Y-14856240D01*
X-14129500Y-14646286D01*
X-14129500Y-14433713D01*
X-14162753Y-14223759D01*
X-14162754Y-14223756D01*
X-14228443Y-14021586D01*
X-14324947Y-13832186D01*
X-14324952Y-13832178D01*
X-14449897Y-13660206D01*
X-14600206Y-13509897D01*
X-14772178Y-13384952D01*
X-14772181Y-13384950D01*
X-14912099Y-13313659D01*
X-14936455Y-13285142D01*
X-14933512Y-13247754D01*
X-14912099Y-13226341D01*
X-14772184Y-13155051D01*
X-14600208Y-13030104D01*
X-14600206Y-13030102D01*
X-14600202Y-13030099D01*
X-14449901Y-12879798D01*
X-14449897Y-12879793D01*
X-14324952Y-12707821D01*
X-14324947Y-12707813D01*
X-14228443Y-12518413D01*
X-14162754Y-12316243D01*
X-14162753Y-12316240D01*
X-14129500Y-12106286D01*
X-14129500Y-11893713D01*
X-14162753Y-11683759D01*
X-14162754Y-11683756D01*
X-14228443Y-11481586D01*
X-14324947Y-11292186D01*
X-14324952Y-11292178D01*
X-14449897Y-11120206D01*
X-14600206Y-10969897D01*
X-14772178Y-10844952D01*
X-14772181Y-10844950D01*
X-14912099Y-10773659D01*
X-14936455Y-10745142D01*
X-14933512Y-10707754D01*
X-14912099Y-10686341D01*
X-14772184Y-10615051D01*
X-14600208Y-10490104D01*
X-14600206Y-10490102D01*
X-14600202Y-10490099D01*
X-14449901Y-10339798D01*
X-14449897Y-10339793D01*
X-14428461Y-10310289D01*
X-14324949Y-10167816D01*
X-14266066Y-10052253D01*
X-14237550Y-10027898D01*
X-14222408Y-10025500D01*
X-13479386Y-10025500D01*
X-13444738Y-10039851D01*
X-11273733Y-12210858D01*
X-11171285Y-12279312D01*
X-11141051Y-12291835D01*
X-11057452Y-12326463D01*
X-11057447Y-12326463D01*
X-11057444Y-12326465D01*
X-11044207Y-12329097D01*
X-11037402Y-12330451D01*
X-10936606Y-12350501D01*
X-10810983Y-12350501D01*
X-10810963Y-12350500D01*
X-8919599Y-12350500D01*
X-8892376Y-12358757D01*
X-8779179Y-12434394D01*
X-8633497Y-12494737D01*
X-8478842Y-12525500D01*
X-8321158Y-12525500D01*
X-8321152Y-12525499D01*
X-8166512Y-12494739D01*
X-8166509Y-12494738D01*
X-8166503Y-12494737D01*
X-8020821Y-12434394D01*
X-7889711Y-12346789D01*
X-7778211Y-12235289D01*
X-7690606Y-12104179D01*
X-7630263Y-11958497D01*
X-7630260Y-11958487D01*
X-7599500Y-11803847D01*
X-7599500Y-11646152D01*
X-7630260Y-11491512D01*
X-7630961Y-11489204D01*
X-7629543Y-11488773D01*
X-7629534Y-11455735D01*
X-7603007Y-11429224D01*
X-7584269Y-11425500D01*
X3835631Y-11425500D01*
X3870279Y-11439852D01*
X3880901Y-11455749D01*
X3890606Y-11479179D01*
X3978211Y-11610289D01*
X4089711Y-11721789D01*
X4220821Y-11809394D01*
X4366503Y-11869737D01*
X4366509Y-11869738D01*
X4366512Y-11869739D01*
X4521152Y-11900499D01*
X4521158Y-11900500D01*
X4678842Y-11900500D01*
X4833497Y-11869737D01*
X4979179Y-11809394D01*
X5110289Y-11721789D01*
X5221789Y-11610289D01*
X5309394Y-11479179D01*
X5369737Y-11333497D01*
X5400500Y-11178842D01*
X5400500Y-11021158D01*
X5390304Y-10969901D01*
X5369739Y-10866512D01*
X5369736Y-10866501D01*
X5360810Y-10844952D01*
X5309394Y-10720821D01*
X5221789Y-10589711D01*
X5116726Y-10484648D01*
X5102374Y-10450000D01*
X5116726Y-10415352D01*
X5221789Y-10310289D01*
X5309394Y-10179179D01*
X5369737Y-10033497D01*
X5376458Y-9999711D01*
X5400499Y-9878847D01*
X5400500Y-9878842D01*
X5400500Y-9721158D01*
X5400499Y-9721152D01*
X5369739Y-9566512D01*
X5369736Y-9566501D01*
X5309395Y-9420824D01*
X5309394Y-9420821D01*
X5221789Y-9289711D01*
X5110289Y-9178211D01*
X5054211Y-9140741D01*
X5033377Y-9109560D01*
X5040693Y-9072777D01*
X5054210Y-9059259D01*
X5110289Y-9021789D01*
X5221789Y-8910289D01*
X5309394Y-8779179D01*
X5369737Y-8633497D01*
X5400500Y-8478842D01*
X5400500Y-8321158D01*
X5400499Y-8321152D01*
X5369739Y-8166512D01*
X5369736Y-8166501D01*
X5331857Y-8075052D01*
X5309394Y-8020821D01*
X5221789Y-7889711D01*
X5110289Y-7778211D01*
X5104735Y-7774500D01*
X5066978Y-7749271D01*
X4979179Y-7690606D01*
X4979176Y-7690604D01*
X4979175Y-7690604D01*
X4833498Y-7630263D01*
X4833487Y-7630260D01*
X4678847Y-7599500D01*
X4678842Y-7599500D01*
X4521158Y-7599500D01*
X4521152Y-7599500D01*
X4366512Y-7630260D01*
X4366501Y-7630263D01*
X4220824Y-7690604D01*
X4107624Y-7766242D01*
X4080401Y-7774500D01*
X-4520613Y-7774500D01*
X-4555261Y-7760148D01*
X-13412426Y1097016D01*
X-13412431Y1097022D01*
X-13501267Y1185858D01*
X-13552489Y1220083D01*
X-13552490Y1220084D01*
X-13586131Y1242563D01*
X-13603714Y1254312D01*
X-13684207Y1287652D01*
X-13717548Y1301463D01*
X-13777971Y1313481D01*
X-13838393Y1325500D01*
X-14252980Y1325500D01*
X-14287628Y1339852D01*
X-14296639Y1352255D01*
X-14324947Y1407813D01*
X-14324952Y1407821D01*
X-14449897Y1579793D01*
X-14449901Y1579798D01*
X-14600202Y1730099D01*
X-14600206Y1730102D01*
X-14600208Y1730104D01*
X-14772184Y1855051D01*
X-14961588Y1951557D01*
X-15163757Y2017246D01*
X-15373713Y2050500D01*
X-15586287Y2050500D01*
X-15796243Y2017246D01*
X-15998412Y1951557D01*
X-16187816Y1855051D01*
X-16359792Y1730104D01*
X-16359795Y1730100D01*
X-16359798Y1730099D01*
X-16510099Y1579798D01*
X-16510100Y1579795D01*
X-16510104Y1579792D01*
X-16635051Y1407816D01*
X-16703222Y1274023D01*
X-16706841Y1266920D01*
X-16735358Y1242563D01*
X-16772745Y1245506D01*
X-16797102Y1274023D01*
X-16799500Y1289165D01*
X-16799500Y5097248D01*
X-16799192Y5102734D01*
X-16787595Y5205664D01*
X-16785153Y5216362D01*
X-16751857Y5311514D01*
X-16747096Y5321400D01*
X-16693461Y5406759D01*
X-16686620Y5415337D01*
X-16615337Y5486620D01*
X-16606759Y5493461D01*
X-16521400Y5547096D01*
X-16511514Y5551857D01*
X-16416362Y5585153D01*
X-16405664Y5587595D01*
X-16302735Y5599192D01*
X-16297249Y5599500D01*
X-16234108Y5599500D01*
X-10121931Y5599500D01*
X-10087283Y5585148D01*
G37*
%TD.AperFunction*%
%TD*%
M02*
