%TF.GenerationSoftware,KiCad,Pcbnew,9.0.3*%
%TF.CreationDate,2025-09-19T00:55:14-04:00*%
%TF.ProjectId,UWB,5557422e-6b69-4636-9164-5f7063625858,rev?*%
%TF.SameCoordinates,Original*%
%TF.FileFunction,Copper,L1,Top*%
%TF.FilePolarity,Positive*%
%FSLAX46Y46*%
G04 Gerber Fmt 4.6, Leading zero omitted, Abs format (unit mm)*
G04 Created by KiCad (PCBNEW 9.0.3) date 2025-09-19 00:55:14*
%MOMM*%
%LPD*%
G01*
G04 APERTURE LIST*
G04 Aperture macros list*
%AMRoundRect*
0 Rectangle with rounded corners*
0 $1 Rounding radius*
0 $2 $3 $4 $5 $6 $7 $8 $9 X,Y pos of 4 corners*
0 Add a 4 corners polygon primitive as box body*
4,1,4,$2,$3,$4,$5,$6,$7,$8,$9,$2,$3,0*
0 Add four circle primitives for the rounded corners*
1,1,$1+$1,$2,$3*
1,1,$1+$1,$4,$5*
1,1,$1+$1,$6,$7*
1,1,$1+$1,$8,$9*
0 Add four rect primitives between the rounded corners*
20,1,$1+$1,$2,$3,$4,$5,0*
20,1,$1+$1,$4,$5,$6,$7,0*
20,1,$1+$1,$6,$7,$8,$9,0*
20,1,$1+$1,$8,$9,$2,$3,0*%
G04 Aperture macros list end*
%TA.AperFunction,SMDPad,CuDef*%
%ADD10RoundRect,0.237500X-0.237500X0.250000X-0.237500X-0.250000X0.237500X-0.250000X0.237500X0.250000X0*%
%TD*%
%TA.AperFunction,ComponentPad*%
%ADD11R,1.700000X1.700000*%
%TD*%
%TA.AperFunction,ComponentPad*%
%ADD12C,1.700000*%
%TD*%
%TA.AperFunction,SMDPad,CuDef*%
%ADD13RoundRect,0.237500X0.237500X-0.250000X0.237500X0.250000X-0.237500X0.250000X-0.237500X-0.250000X0*%
%TD*%
%TA.AperFunction,SMDPad,CuDef*%
%ADD14RoundRect,0.237500X0.237500X-0.300000X0.237500X0.300000X-0.237500X0.300000X-0.237500X-0.300000X0*%
%TD*%
%TA.AperFunction,SMDPad,CuDef*%
%ADD15R,2.400000X1.000000*%
%TD*%
%TA.AperFunction,SMDPad,CuDef*%
%ADD16R,1.000000X2.400000*%
%TD*%
%TA.AperFunction,ViaPad*%
%ADD17C,0.600000*%
%TD*%
%TA.AperFunction,Conductor*%
%ADD18C,0.250000*%
%TD*%
G04 APERTURE END LIST*
D10*
%TO.P,R1,1*%
%TO.N,+3.3V*%
X8900000Y-6687500D03*
%TO.P,R1,2*%
%TO.N,/UWB_IO7*%
X8900000Y-8512500D03*
%TD*%
D11*
%TO.P,J1,1,Pin_1*%
%TO.N,/UWB_IO0*%
X-8890000Y4300000D03*
D12*
%TO.P,J1,2,Pin_2*%
%TO.N,/UWB_IO1*%
X-6350000Y4300000D03*
%TO.P,J1,3,Pin_3*%
%TO.N,/UWB_IO2*%
X-3810000Y4300000D03*
%TO.P,J1,4,Pin_4*%
%TO.N,/UWB_IO3*%
X-1270000Y4300000D03*
%TO.P,J1,5,Pin_5*%
%TO.N,/UWB_IO4*%
X1270000Y4300000D03*
%TO.P,J1,6,Pin_6*%
%TO.N,/UWB_IO5*%
X3810000Y4300000D03*
%TO.P,J1,7,Pin_7*%
%TO.N,/UWB_IO6*%
X6350000Y4300000D03*
%TO.P,J1,8,Pin_8*%
%TO.N,/UWB_EXTON*%
X8890000Y4300000D03*
%TD*%
D13*
%TO.P,R2,1*%
%TO.N,+3.3V*%
X-9600000Y-13212500D03*
%TO.P,R2,2*%
%TO.N,/SPI_~{CS}*%
X-9600000Y-11387500D03*
%TD*%
D11*
%TO.P,J2,1,Pin_1*%
%TO.N,GND*%
X-15480000Y-22160000D03*
D12*
%TO.P,J2,2,Pin_2*%
%TO.N,+3.3V*%
X-15480000Y-19620000D03*
%TO.P,J2,3,Pin_3*%
%TO.N,/SPI_CLK*%
X-15480000Y-17080000D03*
%TO.P,J2,4,Pin_4*%
%TO.N,/SPI_MISO*%
X-15480000Y-14540000D03*
%TO.P,J2,5,Pin_5*%
%TO.N,/SPI_MOSI*%
X-15480000Y-12000000D03*
%TO.P,J2,6,Pin_6*%
%TO.N,/SPI_~{CS}*%
X-15480000Y-9460000D03*
%TO.P,J2,7,Pin_7*%
%TO.N,/UWB_WAKEUP*%
X-15480000Y-6920000D03*
%TO.P,J2,8,Pin_8*%
%TO.N,/UWB_IRQ*%
X-15480000Y-4380000D03*
%TO.P,J2,9,Pin_9*%
%TO.N,/UWB_~{RST}*%
X-15480000Y-1840000D03*
%TO.P,J2,10,Pin_10*%
%TO.N,/UWB_IO7*%
X-15480000Y700000D03*
%TD*%
D14*
%TO.P,C1,1*%
%TO.N,+3.3V*%
X8931250Y-4062500D03*
%TO.P,C1,2*%
%TO.N,GND*%
X8931250Y-2337500D03*
%TD*%
D15*
%TO.P,U1,1,EXTON*%
%TO.N,/UWB_EXTON*%
X6500000Y-12600000D03*
%TO.P,U1,2,WAKEUP*%
%TO.N,/UWB_WAKEUP*%
X6500000Y-11200000D03*
%TO.P,U1,3,RSTN*%
%TO.N,/UWB_~{RST}*%
X6500000Y-9800000D03*
%TO.P,U1,4,IO7*%
%TO.N,/UWB_IO7*%
X6500000Y-8400000D03*
%TO.P,U1,5,VDD*%
%TO.N,+3.3V*%
X6500000Y-7000000D03*
%TO.P,U1,6,VCC*%
X6500000Y-5600000D03*
%TO.P,U1,7,VCC*%
X6500000Y-4200000D03*
%TO.P,U1,8,GND*%
%TO.N,GND*%
X6500000Y-2800000D03*
D16*
%TO.P,U1,9,IO6*%
%TO.N,/UWB_IO6*%
X4900000Y-250000D03*
%TO.P,U1,10,IO5*%
%TO.N,/UWB_IO5*%
X3500000Y-250000D03*
%TO.P,U1,11,IO4*%
%TO.N,/UWB_IO4*%
X2100000Y-250000D03*
%TO.P,U1,12,IO3*%
%TO.N,/UWB_IO3*%
X700000Y-250000D03*
%TO.P,U1,13,IO2*%
%TO.N,/UWB_IO2*%
X-700000Y-250000D03*
%TO.P,U1,14,IO1*%
%TO.N,/UWB_IO1*%
X-2100000Y-250000D03*
%TO.P,U1,15,IO0*%
%TO.N,/UWB_IO0*%
X-3500000Y-250000D03*
%TO.P,U1,16,GND*%
%TO.N,GND*%
X-4900000Y-250000D03*
D15*
%TO.P,U1,17,CSN*%
%TO.N,/SPI_~{CS}*%
X-6500000Y-2800000D03*
%TO.P,U1,18,MOSI*%
%TO.N,/SPI_MOSI*%
X-6500000Y-4200000D03*
%TO.P,U1,19,MISO*%
%TO.N,/SPI_MISO*%
X-6500000Y-5600000D03*
%TO.P,U1,20,CLK*%
%TO.N,/SPI_CLK*%
X-6500000Y-7000000D03*
%TO.P,U1,21,NC*%
%TO.N,unconnected-(U1-NC-Pad21)*%
X-6500000Y-8400000D03*
%TO.P,U1,22,IRQ*%
%TO.N,/UWB_IRQ*%
X-6500000Y-9800000D03*
%TO.P,U1,23,NC*%
%TO.N,unconnected-(U1-NC-Pad23)*%
X-6500000Y-11200000D03*
%TO.P,U1,24,GND*%
%TO.N,GND*%
X-6500000Y-12600000D03*
%TD*%
D17*
%TO.N,GND*%
X-14600000Y-20800000D03*
X2800000Y-12600000D03*
X-2900000Y-3400000D03*
X1900000Y-3400000D03*
X1900000Y-6600000D03*
X700000Y-12600000D03*
X-2900000Y-6600000D03*
X-2800000Y-12600000D03*
X-12800000Y4400000D03*
X-15000000Y4400000D03*
%TO.N,/UWB_IO7*%
X4600000Y-8400000D03*
%TO.N,/SPI_~{CS}*%
X-8400000Y-11725000D03*
%TO.N,/UWB_~{RST}*%
X4600000Y-9800000D03*
%TO.N,/UWB_WAKEUP*%
X4600000Y-11100000D03*
%TO.N,/UWB_IRQ*%
X-8400000Y-9800000D03*
%TD*%
D18*
%TO.N,+3.3V*%
X-13000000Y-17420000D02*
X-13000000Y-14000000D01*
X8900000Y-6687500D02*
X8900000Y-4093750D01*
X-15200000Y-19620000D02*
X-13000000Y-17420000D01*
X8793750Y-4200000D02*
X8931250Y-4062500D01*
X4700000Y-5600000D02*
X6500000Y-5600000D01*
X3800000Y-5000000D02*
X3800000Y-8000000D01*
X-9312500Y-13500000D02*
X-1700000Y-13500000D01*
X8931250Y-4062500D02*
X8931250Y-5068750D01*
X8587500Y-7000000D02*
X8900000Y-6687500D01*
X-15480000Y-19620000D02*
X-15200000Y-19620000D01*
X-9600000Y-13212500D02*
X-9312500Y-13500000D01*
X3800000Y-8000000D02*
X4800000Y-7000000D01*
X-13000000Y-14000000D02*
X-12212500Y-13212500D01*
X8400000Y-5600000D02*
X6500000Y-5600000D01*
X3800000Y-6500000D02*
X4700000Y-5600000D01*
X6500000Y-4200000D02*
X4600000Y-4200000D01*
X-1700000Y-13500000D02*
X3800000Y-8000000D01*
X8931250Y-5068750D02*
X8400000Y-5600000D01*
X6500000Y-7000000D02*
X8587500Y-7000000D01*
X4600000Y-4200000D02*
X3800000Y-5000000D01*
X4800000Y-7000000D02*
X6500000Y-7000000D01*
X6500000Y-4200000D02*
X8793750Y-4200000D01*
X-12212500Y-13212500D02*
X-9600000Y-13212500D01*
X8900000Y-4093750D02*
X8931250Y-4062500D01*
%TO.N,/UWB_IO6*%
X4900000Y-250000D02*
X4900000Y1200000D01*
X4900000Y1200000D02*
X6350000Y2650000D01*
X6350000Y2650000D02*
X6350000Y4300000D01*
%TO.N,/UWB_EXTON*%
X10000000Y3190000D02*
X10000000Y-10500000D01*
X8890000Y4300000D02*
X10000000Y3190000D01*
X10000000Y-10500000D02*
X7900000Y-12600000D01*
X7900000Y-12600000D02*
X6500000Y-12600000D01*
%TO.N,/UWB_IO0*%
X-6500000Y1600000D02*
X-8890000Y3990000D01*
X-3900000Y1600000D02*
X-6500000Y1600000D01*
X-3500000Y1200000D02*
X-3900000Y1600000D01*
X-8890000Y3990000D02*
X-8890000Y4300000D01*
X-3500000Y-250000D02*
X-3500000Y1200000D01*
%TO.N,/UWB_IO2*%
X-3810000Y4300000D02*
X-700000Y1190000D01*
X-700000Y1190000D02*
X-700000Y-250000D01*
%TO.N,/UWB_IO3*%
X-1270000Y3170000D02*
X700000Y1200000D01*
X700000Y1200000D02*
X700000Y-250000D01*
X-1270000Y4300000D02*
X-1270000Y3170000D01*
%TO.N,/UWB_IO1*%
X-6350000Y2950000D02*
X-5900000Y2500000D01*
X-6350000Y4300000D02*
X-6350000Y2950000D01*
X-5900000Y2500000D02*
X-3400000Y2500000D01*
X-2100000Y1200000D02*
X-2100000Y-250000D01*
X-3400000Y2500000D02*
X-2100000Y1200000D01*
%TO.N,/UWB_IO5*%
X3500000Y-250000D02*
X3500000Y1300000D01*
X3500000Y1300000D02*
X3810000Y1610000D01*
X3810000Y1610000D02*
X3810000Y4300000D01*
%TO.N,/UWB_IO4*%
X1270000Y4300000D02*
X1270000Y2030000D01*
X1270000Y2030000D02*
X2100000Y1200000D01*
X2100000Y1200000D02*
X2100000Y-250000D01*
%TO.N,/UWB_IO7*%
X8900000Y-8512500D02*
X6612500Y-8512500D01*
X6612500Y-8512500D02*
X6500000Y-8400000D01*
X6500000Y-8400000D02*
X4600000Y-8400000D01*
%TO.N,/SPI_~{CS}*%
X-8400000Y-11725000D02*
X-8737500Y-11387500D01*
X-8737500Y-11387500D02*
X-9600000Y-11387500D01*
X-8820000Y-2800000D02*
X-6500000Y-2800000D01*
X-15480000Y-9460000D02*
X-8820000Y-2800000D01*
%TO.N,/UWB_~{RST}*%
X4600000Y-9800000D02*
X6500000Y-9800000D01*
%TO.N,/UWB_WAKEUP*%
X6400000Y-11100000D02*
X6500000Y-11200000D01*
X4600000Y-11100000D02*
X6400000Y-11100000D01*
%TO.N,/SPI_CLK*%
X-15260000Y-17080000D02*
X-15480000Y-17080000D01*
X-14000000Y-15820000D02*
X-15260000Y-17080000D01*
X-6500000Y-7000000D02*
X-7600000Y-7000000D01*
X-7600000Y-7000000D02*
X-8200000Y-7600000D01*
X-8200000Y-8075000D02*
X-14000000Y-13875000D01*
X-8200000Y-7600000D02*
X-8200000Y-8075000D01*
X-14000000Y-13875000D02*
X-14000000Y-15820000D01*
%TO.N,/SPI_MOSI*%
X-14781558Y-11301558D02*
X-14780000Y-11301558D01*
X-14780000Y-11301558D02*
X-7678442Y-4200000D01*
X-7678442Y-4200000D02*
X-6500000Y-4200000D01*
X-15480000Y-12000000D02*
X-14781558Y-11301558D01*
%TO.N,/UWB_IRQ*%
X-8400000Y-9800000D02*
X-6500000Y-9800000D01*
%TO.N,/SPI_MISO*%
X-15480000Y-13880000D02*
X-9200000Y-7600000D01*
X-9200000Y-7100000D02*
X-7700000Y-5600000D01*
X-7700000Y-5600000D02*
X-6500000Y-5600000D01*
X-9200000Y-7600000D02*
X-9200000Y-7100000D01*
X-15480000Y-14540000D02*
X-15480000Y-13880000D01*
%TD*%
%TA.AperFunction,Conductor*%
%TO.N,GND*%
G36*
X-12534647Y-17879832D02*
G01*
X-12514352Y-17888239D01*
X-12514351Y-17888239D01*
X-12514351Y-17888240D01*
X-12507842Y-17903954D01*
X-12500000Y-17922887D01*
X-12500000Y-23450500D01*
X-12514352Y-23485148D01*
X-12549000Y-23499500D01*
X-16297249Y-23499500D01*
X-16302735Y-23499192D01*
X-16405664Y-23487595D01*
X-16416362Y-23485153D01*
X-16511514Y-23451857D01*
X-16521400Y-23447096D01*
X-16606759Y-23393461D01*
X-16615337Y-23386620D01*
X-16686620Y-23315337D01*
X-16693461Y-23306759D01*
X-16747096Y-23221400D01*
X-16751857Y-23211514D01*
X-16785153Y-23116362D01*
X-16787595Y-23105664D01*
X-16799192Y-23002734D01*
X-16799500Y-22997248D01*
X-16799500Y-20209165D01*
X-16785148Y-20174517D01*
X-16750500Y-20160165D01*
X-16715852Y-20174517D01*
X-16706840Y-20186920D01*
X-16635051Y-20327816D01*
X-16510104Y-20499792D01*
X-16510100Y-20499795D01*
X-16510099Y-20499798D01*
X-16359798Y-20650099D01*
X-16359795Y-20650100D01*
X-16359792Y-20650104D01*
X-16187816Y-20775051D01*
X-15998412Y-20871557D01*
X-15796243Y-20937246D01*
X-15586287Y-20970500D01*
X-15586286Y-20970500D01*
X-15373714Y-20970500D01*
X-15373713Y-20970500D01*
X-15163757Y-20937246D01*
X-14961588Y-20871557D01*
X-14772184Y-20775051D01*
X-14600208Y-20650104D01*
X-14600206Y-20650102D01*
X-14600202Y-20650099D01*
X-14449901Y-20499798D01*
X-14449897Y-20499793D01*
X-14324952Y-20327821D01*
X-14324947Y-20327813D01*
X-14228443Y-20138413D01*
X-14162754Y-19936243D01*
X-14162753Y-19936240D01*
X-14129500Y-19726286D01*
X-14129500Y-19513713D01*
X-14129499Y-19513713D01*
X-14136480Y-19469633D01*
X-14127724Y-19433166D01*
X-14122731Y-19427321D01*
X-12602982Y-17907572D01*
X-12601269Y-17905859D01*
X-12601267Y-17905858D01*
X-12583647Y-17888238D01*
X-12563351Y-17879831D01*
X-12549000Y-17873887D01*
X-12548999Y-17873887D01*
X-12534647Y-17879832D01*
G37*
%TD.AperFunction*%
%TA.AperFunction,Conductor*%
G36*
X3923613Y-8830272D02*
G01*
X3929704Y-8837693D01*
X3951848Y-8870834D01*
X3978210Y-8910288D01*
X4089713Y-9021791D01*
X4145786Y-9059258D01*
X4166622Y-9090441D01*
X4159305Y-9127223D01*
X4145786Y-9140742D01*
X4089713Y-9178208D01*
X3978210Y-9289711D01*
X3890604Y-9420824D01*
X3830263Y-9566501D01*
X3830260Y-9566512D01*
X3799500Y-9721152D01*
X3799500Y-9878847D01*
X3830260Y-10033487D01*
X3830263Y-10033498D01*
X3885898Y-10167813D01*
X3890606Y-10179179D01*
X3918291Y-10220612D01*
X3978210Y-10310288D01*
X4083274Y-10415352D01*
X4097626Y-10450000D01*
X4083274Y-10484648D01*
X3978210Y-10589711D01*
X3890604Y-10720824D01*
X3830263Y-10866501D01*
X3830260Y-10866512D01*
X3799500Y-11021152D01*
X3799500Y-11178847D01*
X3830260Y-11333487D01*
X3830263Y-11333498D01*
X3890604Y-11479175D01*
X3890606Y-11479179D01*
X3978211Y-11610289D01*
X4089711Y-11721789D01*
X4220821Y-11809394D01*
X4366503Y-11869737D01*
X4366509Y-11869738D01*
X4366512Y-11869739D01*
X4521152Y-11900499D01*
X4521158Y-11900500D01*
X4678842Y-11900500D01*
X4766986Y-11882966D01*
X4803768Y-11890282D01*
X4824604Y-11921464D01*
X4822457Y-11948147D01*
X4805908Y-11992519D01*
X4805907Y-11992521D01*
X4799500Y-12052120D01*
X4799500Y-13147879D01*
X4805907Y-13207478D01*
X4822348Y-13251557D01*
X4856204Y-13342331D01*
X4942454Y-13457546D01*
X5057669Y-13543796D01*
X5192517Y-13594091D01*
X5192520Y-13594092D01*
X5236177Y-13598785D01*
X5252127Y-13600500D01*
X7747872Y-13600499D01*
X7747878Y-13600499D01*
X7807478Y-13594092D01*
X7807479Y-13594091D01*
X7807483Y-13594091D01*
X7942331Y-13543796D01*
X8057546Y-13457546D01*
X8143796Y-13342331D01*
X8194091Y-13207483D01*
X8194091Y-13207479D01*
X8194092Y-13207479D01*
X8197631Y-13174554D01*
X8198744Y-13172514D01*
X8198291Y-13170234D01*
X8207582Y-13156326D01*
X8215603Y-13141638D01*
X8219125Y-13139050D01*
X8247509Y-13120084D01*
X8298733Y-13085858D01*
X8385858Y-12998733D01*
X8385858Y-12998731D01*
X8389887Y-12994703D01*
X8389890Y-12994698D01*
X10115853Y-11268736D01*
X10150500Y-11254385D01*
X10185148Y-11268737D01*
X10199500Y-11303385D01*
X10199500Y-13951000D01*
X10185148Y-13985648D01*
X10150500Y-14000000D01*
X-1197113Y-14000000D01*
X-1211464Y-13994055D01*
X-1231760Y-13985649D01*
X-1231760Y-13985648D01*
X-1231761Y-13985648D01*
X-1246113Y-13951000D01*
X-1231762Y-13916353D01*
X-1231761Y-13916352D01*
X-1214142Y-13898733D01*
X-1214140Y-13898730D01*
X3854318Y-8830271D01*
X3888965Y-8815920D01*
X3923613Y-8830272D01*
G37*
%TD.AperFunction*%
%TA.AperFunction,Conductor*%
G36*
X-10087283Y5585148D02*
G01*
X-10072931Y5550500D01*
X-10087283Y5515852D01*
X-10092565Y5511274D01*
X-10097546Y5507546D01*
X-10183796Y5392331D01*
X-10234091Y5257483D01*
X-10234092Y5257479D01*
X-10234092Y5257478D01*
X-10240500Y5197873D01*
X-10240499Y3959917D01*
X-10240499Y3402120D01*
X-10234092Y3342521D01*
X-10234091Y3342518D01*
X-10234091Y3342517D01*
X-10183796Y3207669D01*
X-10097546Y3092454D01*
X-10038755Y3048443D01*
X-9982333Y3006205D01*
X-9982331Y3006204D01*
X-9939073Y2990070D01*
X-9847479Y2955907D01*
X-9787879Y2949500D01*
X-9787873Y2949500D01*
X-8754386Y2949500D01*
X-8719738Y2935148D01*
X-6898732Y1114141D01*
X-6898731Y1114140D01*
X-6796283Y1045687D01*
X-6682459Y998539D01*
X-6682449Y998536D01*
X-6633715Y988842D01*
X-6561607Y974500D01*
X-6561606Y974500D01*
X-4549500Y974500D01*
X-4514852Y960148D01*
X-4500500Y925500D01*
X-4500499Y-1497879D01*
X-4494092Y-1557478D01*
X-4494091Y-1557479D01*
X-4494091Y-1557483D01*
X-4443796Y-1692331D01*
X-4357546Y-1807546D01*
X-4242331Y-1893796D01*
X-4107483Y-1944091D01*
X-4107481Y-1944091D01*
X-4107479Y-1944092D01*
X-4070750Y-1948040D01*
X-4047873Y-1950500D01*
X-2952128Y-1950499D01*
X-2952121Y-1950499D01*
X-2892521Y-1944092D01*
X-2892518Y-1944091D01*
X-2892517Y-1944091D01*
X-2817124Y-1915971D01*
X-2782876Y-1915971D01*
X-2707483Y-1944091D01*
X-2647873Y-1950500D01*
X-1552128Y-1950499D01*
X-1552121Y-1950499D01*
X-1492521Y-1944092D01*
X-1492518Y-1944091D01*
X-1492517Y-1944091D01*
X-1417124Y-1915971D01*
X-1382876Y-1915971D01*
X-1307483Y-1944091D01*
X-1247873Y-1950500D01*
X-152128Y-1950499D01*
X-152121Y-1950499D01*
X-92521Y-1944092D01*
X-92518Y-1944091D01*
X-92517Y-1944091D01*
X-17124Y-1915971D01*
X17124Y-1915971D01*
X92516Y-1944091D01*
X110572Y-1946032D01*
X152127Y-1950500D01*
X1247872Y-1950499D01*
X1247878Y-1950499D01*
X1307478Y-1944092D01*
X1307480Y-1944091D01*
X1307483Y-1944091D01*
X1382876Y-1915971D01*
X1417124Y-1915971D01*
X1492516Y-1944091D01*
X1510572Y-1946032D01*
X1552127Y-1950500D01*
X2647872Y-1950499D01*
X2647878Y-1950499D01*
X2707478Y-1944092D01*
X2707480Y-1944091D01*
X2707483Y-1944091D01*
X2782876Y-1915971D01*
X2817124Y-1915971D01*
X2892516Y-1944091D01*
X2910572Y-1946032D01*
X2952127Y-1950500D01*
X4047872Y-1950499D01*
X4047878Y-1950499D01*
X4107478Y-1944092D01*
X4107480Y-1944091D01*
X4107483Y-1944091D01*
X4182876Y-1915971D01*
X4217124Y-1915971D01*
X4292516Y-1944091D01*
X4310572Y-1946032D01*
X4352127Y-1950500D01*
X5447872Y-1950499D01*
X5447878Y-1950499D01*
X5507478Y-1944092D01*
X5507479Y-1944091D01*
X5507483Y-1944091D01*
X5642331Y-1893796D01*
X5757546Y-1807546D01*
X5843796Y-1692331D01*
X5894091Y-1557483D01*
X5894091Y-1557481D01*
X5894092Y-1557479D01*
X5900499Y-1497879D01*
X5900500Y-1497873D01*
X5900499Y997872D01*
X5900499Y997879D01*
X5894092Y1057478D01*
X5894091Y1057479D01*
X5894091Y1057483D01*
X5843796Y1192331D01*
X5840612Y1196583D01*
X5831334Y1232915D01*
X5845188Y1260597D01*
X6835860Y2251269D01*
X6874691Y2309385D01*
X6904312Y2353715D01*
X6951463Y2467549D01*
X6975501Y2588394D01*
X6975501Y2711607D01*
X6975501Y2714016D01*
X6975500Y2714037D01*
X6975500Y3072979D01*
X6989852Y3107627D01*
X7002254Y3116638D01*
X7057815Y3144948D01*
X7166563Y3223958D01*
X7229792Y3269896D01*
X7229795Y3269899D01*
X7229798Y3269901D01*
X7380099Y3420202D01*
X7380102Y3420206D01*
X7380104Y3420208D01*
X7505051Y3592184D01*
X7576341Y3732099D01*
X7604858Y3756455D01*
X7642246Y3753512D01*
X7663659Y3732099D01*
X7734950Y3592181D01*
X7734952Y3592178D01*
X7859897Y3420206D01*
X8010206Y3269897D01*
X8182178Y3144952D01*
X8182186Y3144947D01*
X8371586Y3048443D01*
X8573756Y2982754D01*
X8573759Y2982753D01*
X8743248Y2955909D01*
X8783713Y2949500D01*
X8783714Y2949500D01*
X8996286Y2949500D01*
X8996287Y2949500D01*
X9044957Y2957208D01*
X9206240Y2982753D01*
X9206247Y2982755D01*
X9265550Y3002023D01*
X9273407Y3001404D01*
X9280690Y3004421D01*
X9291390Y2999988D01*
X9302937Y2999080D01*
X9315339Y2990070D01*
X9360148Y2945262D01*
X9374500Y2910614D01*
X9374500Y-2986235D01*
X9360148Y-3020883D01*
X9325500Y-3035235D01*
X9320520Y-3034981D01*
X9217929Y-3024500D01*
X8644571Y-3024500D01*
X8543499Y-3034825D01*
X8379733Y-3089092D01*
X8232900Y-3179659D01*
X8110911Y-3301648D01*
X8110910Y-3301650D01*
X8104980Y-3311263D01*
X8074574Y-3333216D01*
X8037550Y-3327239D01*
X8033918Y-3324766D01*
X7991822Y-3293253D01*
X7942333Y-3256205D01*
X7942331Y-3256204D01*
X7897381Y-3239439D01*
X7807479Y-3205907D01*
X7747879Y-3199500D01*
X5252120Y-3199500D01*
X5192521Y-3205907D01*
X5057666Y-3256205D01*
X4942454Y-3342454D01*
X4856205Y-3457666D01*
X4824518Y-3542624D01*
X4798962Y-3570072D01*
X4778607Y-3574500D01*
X4661607Y-3574500D01*
X4538393Y-3574500D01*
X4498111Y-3582512D01*
X4477970Y-3586518D01*
X4477969Y-3586517D01*
X4417555Y-3598534D01*
X4417546Y-3598537D01*
X4370397Y-3618066D01*
X4370397Y-3618067D01*
X4303715Y-3645688D01*
X4303713Y-3645689D01*
X4299699Y-3648371D01*
X4201267Y-3714141D01*
X3314141Y-4601267D01*
X3314138Y-4601271D01*
X3282876Y-4648060D01*
X3282875Y-4648062D01*
X3245686Y-4703715D01*
X3212347Y-4784207D01*
X3198537Y-4817546D01*
X3198537Y-4817547D01*
X3174499Y-4938397D01*
X3174499Y-7720612D01*
X3160147Y-7755260D01*
X-1944738Y-12860148D01*
X-1979386Y-12874500D01*
X-8584218Y-12874500D01*
X-8618866Y-12860148D01*
X-8632964Y-12830479D01*
X-8634825Y-12812249D01*
X-8689092Y-12648483D01*
X-8689094Y-12648479D01*
X-8755982Y-12540036D01*
X-8761956Y-12503012D01*
X-8740000Y-12472608D01*
X-8702976Y-12466634D01*
X-8695539Y-12469038D01*
X-8633497Y-12494737D01*
X-8478842Y-12525500D01*
X-8321158Y-12525500D01*
X-8321152Y-12525499D01*
X-8166512Y-12494739D01*
X-8166509Y-12494738D01*
X-8166503Y-12494737D01*
X-8020821Y-12434394D01*
X-7889711Y-12346789D01*
X-7778211Y-12235289D01*
X-7769515Y-12222275D01*
X-7738334Y-12201441D01*
X-7728784Y-12200499D01*
X-5252128Y-12200499D01*
X-5252121Y-12200499D01*
X-5192521Y-12194092D01*
X-5192518Y-12194091D01*
X-5192517Y-12194091D01*
X-5057669Y-12143796D01*
X-4942454Y-12057546D01*
X-4890627Y-11988314D01*
X-4856205Y-11942333D01*
X-4805907Y-11807479D01*
X-4799500Y-11747879D01*
X-4799500Y-10652120D01*
X-4805908Y-10592520D01*
X-4834028Y-10517123D01*
X-4834028Y-10482877D01*
X-4806783Y-10409826D01*
X-4805909Y-10407483D01*
X-4805908Y-10407482D01*
X-4805908Y-10407480D01*
X-4805907Y-10407478D01*
X-4799500Y-10347879D01*
X-4799500Y-9252120D01*
X-4805908Y-9192520D01*
X-4834028Y-9117123D01*
X-4834028Y-9082877D01*
X-4805908Y-9007480D01*
X-4805907Y-9007478D01*
X-4799500Y-8947879D01*
X-4799500Y-7852120D01*
X-4805908Y-7792520D01*
X-4834028Y-7717123D01*
X-4834028Y-7682877D01*
X-4805908Y-7607480D01*
X-4805907Y-7607478D01*
X-4799500Y-7547879D01*
X-4799500Y-6452120D01*
X-4805908Y-6392520D01*
X-4834028Y-6317123D01*
X-4834028Y-6282877D01*
X-4805908Y-6207480D01*
X-4805907Y-6207478D01*
X-4799500Y-6147879D01*
X-4799500Y-5052120D01*
X-4805908Y-4992520D01*
X-4834028Y-4917123D01*
X-4834028Y-4882877D01*
X-4805908Y-4807480D01*
X-4805907Y-4807478D01*
X-4799500Y-4747879D01*
X-4799500Y-3652120D01*
X-4805908Y-3592520D01*
X-4808147Y-3586518D01*
X-4814280Y-3570072D01*
X-4834028Y-3517123D01*
X-4834028Y-3482877D01*
X-4805908Y-3407480D01*
X-4805907Y-3407478D01*
X-4799500Y-3347879D01*
X-4799500Y-2252120D01*
X-4805907Y-2192521D01*
X-4856205Y-2057666D01*
X-4942454Y-1942454D01*
X-5057666Y-1856205D01*
X-5192520Y-1805907D01*
X-5252120Y-1799500D01*
X-7747879Y-1799500D01*
X-7807478Y-1805907D01*
X-7811872Y-1807546D01*
X-7942331Y-1856204D01*
X-7942333Y-1856205D01*
X-7988314Y-1890627D01*
X-8057546Y-1942454D01*
X-8143796Y-2057669D01*
X-8175253Y-2142011D01*
X-8175482Y-2142624D01*
X-8201038Y-2170072D01*
X-8221393Y-2174500D01*
X-8758394Y-2174500D01*
X-8881607Y-2174500D01*
X-8921888Y-2182512D01*
X-8942030Y-2186518D01*
X-8942030Y-2186517D01*
X-9002441Y-2198534D01*
X-9002459Y-2198539D01*
X-9116283Y-2245687D01*
X-9218376Y-2313904D01*
X-9218395Y-2313916D01*
X-9218734Y-2314142D01*
X-9218735Y-2314143D01*
X-14060242Y-7155652D01*
X-14094890Y-7170004D01*
X-14129538Y-7155652D01*
X-14143890Y-7121004D01*
X-14143287Y-7113339D01*
X-14129500Y-7026286D01*
X-14129500Y-6813713D01*
X-14162753Y-6603759D01*
X-14162754Y-6603756D01*
X-14228443Y-6401586D01*
X-14324947Y-6212186D01*
X-14324952Y-6212178D01*
X-14449897Y-6040206D01*
X-14600206Y-5889897D01*
X-14772178Y-5764952D01*
X-14772181Y-5764950D01*
X-14912099Y-5693659D01*
X-14936455Y-5665142D01*
X-14933512Y-5627754D01*
X-14912099Y-5606341D01*
X-14772184Y-5535051D01*
X-14600208Y-5410104D01*
X-14600206Y-5410102D01*
X-14600202Y-5410099D01*
X-14449901Y-5259798D01*
X-14449897Y-5259793D01*
X-14324952Y-5087821D01*
X-14324947Y-5087813D01*
X-14228443Y-4898413D01*
X-14162754Y-4696243D01*
X-14162753Y-4696240D01*
X-14129500Y-4486286D01*
X-14129500Y-4273713D01*
X-14162753Y-4063759D01*
X-14162754Y-4063756D01*
X-14228443Y-3861586D01*
X-14324947Y-3672186D01*
X-14324952Y-3672178D01*
X-14449897Y-3500206D01*
X-14600206Y-3349897D01*
X-14772178Y-3224952D01*
X-14772181Y-3224950D01*
X-14912099Y-3153659D01*
X-14936455Y-3125142D01*
X-14933512Y-3087754D01*
X-14912099Y-3066341D01*
X-14772184Y-2995051D01*
X-14760049Y-2986235D01*
X-14704003Y-2945515D01*
X-14600208Y-2870104D01*
X-14600206Y-2870102D01*
X-14600202Y-2870099D01*
X-14449901Y-2719798D01*
X-14449897Y-2719793D01*
X-14324952Y-2547821D01*
X-14324947Y-2547813D01*
X-14228443Y-2358413D01*
X-14162754Y-2156243D01*
X-14162753Y-2156240D01*
X-14129500Y-1946286D01*
X-14129500Y-1733713D01*
X-14162753Y-1523759D01*
X-14162754Y-1523756D01*
X-14228443Y-1321586D01*
X-14324947Y-1132186D01*
X-14324952Y-1132178D01*
X-14449897Y-960206D01*
X-14600206Y-809897D01*
X-14772178Y-684952D01*
X-14772181Y-684950D01*
X-14912099Y-613659D01*
X-14936455Y-585142D01*
X-14933512Y-547754D01*
X-14912099Y-526341D01*
X-14772184Y-455051D01*
X-14600208Y-330104D01*
X-14600206Y-330102D01*
X-14600202Y-330099D01*
X-14449901Y-179798D01*
X-14449897Y-179793D01*
X-14324952Y-7821D01*
X-14324947Y-7813D01*
X-14228443Y181586D01*
X-14162754Y383756D01*
X-14162753Y383759D01*
X-14129500Y593713D01*
X-14129500Y806286D01*
X-14162753Y1016240D01*
X-14162754Y1016243D01*
X-14228443Y1218413D01*
X-14324947Y1407813D01*
X-14324952Y1407821D01*
X-14449897Y1579793D01*
X-14449901Y1579798D01*
X-14600202Y1730099D01*
X-14600206Y1730102D01*
X-14600208Y1730104D01*
X-14772184Y1855051D01*
X-14961588Y1951557D01*
X-15163757Y2017246D01*
X-15373713Y2050500D01*
X-15586287Y2050500D01*
X-15796243Y2017246D01*
X-15998412Y1951557D01*
X-16187816Y1855051D01*
X-16359792Y1730104D01*
X-16359795Y1730100D01*
X-16359798Y1730099D01*
X-16510099Y1579798D01*
X-16510100Y1579795D01*
X-16510104Y1579792D01*
X-16635051Y1407816D01*
X-16695507Y1289165D01*
X-16706841Y1266920D01*
X-16735358Y1242563D01*
X-16772745Y1245506D01*
X-16797102Y1274023D01*
X-16799500Y1289165D01*
X-16799500Y5097248D01*
X-16799192Y5102734D01*
X-16787595Y5205664D01*
X-16785153Y5216362D01*
X-16751857Y5311514D01*
X-16747096Y5321400D01*
X-16693461Y5406759D01*
X-16686620Y5415337D01*
X-16615337Y5486620D01*
X-16606759Y5493461D01*
X-16521400Y5547096D01*
X-16511514Y5551857D01*
X-16416362Y5585153D01*
X-16405664Y5587595D01*
X-16302735Y5599192D01*
X-16297249Y5599500D01*
X-16234108Y5599500D01*
X-10121931Y5599500D01*
X-10087283Y5585148D01*
G37*
%TD.AperFunction*%
%TD*%
M02*
