%TF.GenerationSoftware,KiCad,Pcbnew,9.0.3*%
%TF.CreationDate,2025-09-10T00:52:23-04:00*%
%TF.ProjectId,IMU-Magnetometer,494d552d-4d61-4676-9e65-746f6d657465,rev?*%
%TF.SameCoordinates,Original*%
%TF.FileFunction,Paste,Top*%
%TF.FilePolarity,Positive*%
%FSLAX46Y46*%
G04 Gerber Fmt 4.6, Leading zero omitted, Abs format (unit mm)*
G04 Created by KiCad (PCBNEW 9.0.3) date 2025-09-10 00:52:23*
%MOMM*%
%LPD*%
G01*
G04 APERTURE LIST*
G04 Aperture macros list*
%AMRoundRect*
0 Rectangle with rounded corners*
0 $1 Rounding radius*
0 $2 $3 $4 $5 $6 $7 $8 $9 X,Y pos of 4 corners*
0 Add a 4 corners polygon primitive as box body*
4,1,4,$2,$3,$4,$5,$6,$7,$8,$9,$2,$3,0*
0 Add four circle primitives for the rounded corners*
1,1,$1+$1,$2,$3*
1,1,$1+$1,$4,$5*
1,1,$1+$1,$6,$7*
1,1,$1+$1,$8,$9*
0 Add four rect primitives between the rounded corners*
20,1,$1+$1,$2,$3,$4,$5,0*
20,1,$1+$1,$4,$5,$6,$7,0*
20,1,$1+$1,$6,$7,$8,$9,0*
20,1,$1+$1,$8,$9,$2,$3,0*%
G04 Aperture macros list end*
%ADD10RoundRect,0.150000X0.625000X-0.150000X0.625000X0.150000X-0.625000X0.150000X-0.625000X-0.150000X0*%
%ADD11RoundRect,0.250000X0.650000X-0.350000X0.650000X0.350000X-0.650000X0.350000X-0.650000X-0.350000X0*%
%ADD12C,0.180000*%
%ADD13RoundRect,0.150000X-0.625000X0.150000X-0.625000X-0.150000X0.625000X-0.150000X0.625000X0.150000X0*%
%ADD14RoundRect,0.250000X-0.650000X0.350000X-0.650000X-0.350000X0.650000X-0.350000X0.650000X0.350000X0*%
%ADD15RoundRect,0.237500X-0.300000X-0.237500X0.300000X-0.237500X0.300000X0.237500X-0.300000X0.237500X0*%
%ADD16R,0.475000X0.250000*%
%ADD17R,0.250000X0.475000*%
%ADD18RoundRect,0.237500X-0.250000X-0.237500X0.250000X-0.237500X0.250000X0.237500X-0.250000X0.237500X0*%
%ADD19RoundRect,0.237500X0.237500X-0.250000X0.237500X0.250000X-0.237500X0.250000X-0.237500X-0.250000X0*%
%ADD20RoundRect,0.237500X0.237500X-0.300000X0.237500X0.300000X-0.237500X0.300000X-0.237500X-0.300000X0*%
%ADD21RoundRect,0.237500X-0.237500X0.300000X-0.237500X-0.300000X0.237500X-0.300000X0.237500X0.300000X0*%
G04 APERTURE END LIST*
D10*
%TO.C,J3*%
X7690809Y-7633267D03*
X7690809Y-6633267D03*
X7690809Y-5633267D03*
X7690809Y-4633267D03*
D11*
X11565809Y-8933267D03*
X11565809Y-3333267D03*
%TD*%
D12*
%TO.C,U2*%
X1965809Y-5433267D03*
X2365809Y-5433267D03*
X1965809Y-5833267D03*
X2365809Y-5833267D03*
%TD*%
D13*
%TO.C,J2*%
X-8159191Y-4633267D03*
X-8159191Y-5633267D03*
X-8159191Y-6633267D03*
X-8159191Y-7633267D03*
D14*
X-12034191Y-3333267D03*
X-12034191Y-8933267D03*
%TD*%
D15*
%TO.C,C1*%
X-5259191Y-8920767D03*
X-3534191Y-8920767D03*
%TD*%
D16*
%TO.C,U1*%
X-5596691Y-5870767D03*
X-5596691Y-6370767D03*
X-5596691Y-6870767D03*
X-5596691Y-7370767D03*
D17*
X-4934191Y-7533267D03*
X-4434191Y-7533267D03*
X-3934191Y-7533267D03*
D16*
X-3271691Y-7370767D03*
X-3271691Y-6870767D03*
X-3271691Y-6370767D03*
X-3271691Y-5870767D03*
D17*
X-3934191Y-5708267D03*
X-4434191Y-5708267D03*
X-4934191Y-5708267D03*
%TD*%
D18*
%TO.C,R2*%
X3653309Y-9133267D03*
X5478309Y-9133267D03*
%TD*%
D19*
%TO.C,R3*%
X3665809Y-7345767D03*
X3665809Y-5520767D03*
%TD*%
%TO.C,R1*%
X-34191Y-7533267D03*
X-34191Y-5708267D03*
%TD*%
D20*
%TO.C,C3*%
X-1634191Y-7483267D03*
X-1634191Y-5758267D03*
%TD*%
D21*
%TO.C,C2*%
X2165809Y-7370767D03*
X2165809Y-9095767D03*
%TD*%
M02*
