M48
; DRILL file {KiCad 9.0.3} date 2025-09-10T00:52:26-0400
; FORMAT={-:-/ absolute / metric / decimal}
; #@! TF.CreationDate,2025-09-10T00:52:26-04:00
; #@! TF.GenerationSoftware,Kicad,Pcbnew,9.0.3
; #@! TF.FileFunction,Plated,1,2,PTH
FMAT,2
METRIC
; #@! TA.AperFunction,Plated,PTH,ViaDrill
T1C0.300
; #@! TA.AperFunction,Plated,PTH,ComponentDrill
T2C1.000
%
G90
G05
T1
X-12.334Y-4.433
X-12.334Y-5.433
X-12.334Y-6.533
X-12.334Y-7.833
X-12.234Y-1.933
X-12.234Y-10.233
X-11.034Y-10.233
X-10.934Y-1.933
X-10.634Y-3.233
X-10.634Y-8.833
X-9.734Y-6.633
X-9.734Y-10.233
X-9.534Y-4.833
X-7.634Y-1.433
X-6.934Y-4.133
X-6.934Y-8.233
X-6.313Y-6.712
X-5.434Y-4.933
X-3.384Y-3.283
X-3.303Y-4.965
X-2.534Y-5.933
X-2.434Y-6.833
X-2.434Y-8.933
X0.066Y-9.433
X1.166Y-5.233
X1.166Y-10.233
X1.266Y-9.096
X1.316Y-5.983
X2.566Y-10.233
X3.266Y-1.433
X4.166Y-10.333
X4.766Y-5.533
X5.766Y-10.333
X6.966Y-10.233
X8.066Y-10.233
X8.566Y-1.733
X8.966Y-7.633
X9.366Y-3.733
X9.366Y-10.233
X10.166Y-3.233
X10.166Y-8.833
X10.366Y-4.533
X10.566Y-10.233
X10.866Y-5.833
X10.866Y-7.333
X11.466Y-1.833
X11.766Y-10.233
X11.866Y-4.433
X11.866Y-5.533
X11.866Y-6.633
X11.866Y-7.833
T2
X-11.664Y0.167
X-9.124Y0.167
X-6.584Y0.167
X-4.044Y0.167
X-1.504Y0.167
X1.036Y0.167
X3.576Y0.167
X6.116Y0.167
X8.656Y0.167
X11.196Y0.167
M30
