%TF.GenerationSoftware,KiCad,Pcbnew,9.0.3*%
%TF.CreationDate,2025-09-10T00:52:22-04:00*%
%TF.ProjectId,IMU-Magnetometer,494d552d-4d61-4676-9e65-746f6d657465,rev?*%
%TF.SameCoordinates,Original*%
%TF.FileFunction,Copper,L1,Top*%
%TF.FilePolarity,Positive*%
%FSLAX46Y46*%
G04 Gerber Fmt 4.6, Leading zero omitted, Abs format (unit mm)*
G04 Created by KiCad (PCBNEW 9.0.3) date 2025-09-10 00:52:22*
%MOMM*%
%LPD*%
G01*
G04 APERTURE LIST*
G04 Aperture macros list*
%AMRoundRect*
0 Rectangle with rounded corners*
0 $1 Rounding radius*
0 $2 $3 $4 $5 $6 $7 $8 $9 X,Y pos of 4 corners*
0 Add a 4 corners polygon primitive as box body*
4,1,4,$2,$3,$4,$5,$6,$7,$8,$9,$2,$3,0*
0 Add four circle primitives for the rounded corners*
1,1,$1+$1,$2,$3*
1,1,$1+$1,$4,$5*
1,1,$1+$1,$6,$7*
1,1,$1+$1,$8,$9*
0 Add four rect primitives between the rounded corners*
20,1,$1+$1,$2,$3,$4,$5,0*
20,1,$1+$1,$4,$5,$6,$7,0*
20,1,$1+$1,$6,$7,$8,$9,0*
20,1,$1+$1,$8,$9,$2,$3,0*%
%AMFreePoly0*
4,1,23,0.550000,-0.750000,0.000000,-0.750000,0.000000,-0.745722,-0.065263,-0.745722,-0.191342,-0.711940,-0.304381,-0.646677,-0.396677,-0.554381,-0.461940,-0.441342,-0.495722,-0.315263,-0.495722,-0.250000,-0.500000,-0.250000,-0.500000,0.250000,-0.495722,0.250000,-0.495722,0.315263,-0.461940,0.441342,-0.396677,0.554381,-0.304381,0.646677,-0.191342,0.711940,-0.065263,0.745722,0.000000,0.745722,
0.000000,0.750000,0.550000,0.750000,0.550000,-0.750000,0.550000,-0.750000,$1*%
%AMFreePoly1*
4,1,23,0.000000,0.745722,0.065263,0.745722,0.191342,0.711940,0.304381,0.646677,0.396677,0.554381,0.461940,0.441342,0.495722,0.315263,0.495722,0.250000,0.500000,0.250000,0.500000,-0.250000,0.495722,-0.250000,0.495722,-0.315263,0.461940,-0.441342,0.396677,-0.554381,0.304381,-0.646677,0.191342,-0.711940,0.065263,-0.745722,0.000000,-0.745722,0.000000,-0.750000,-0.550000,-0.750000,
-0.550000,0.750000,0.000000,0.750000,0.000000,0.745722,0.000000,0.745722,$1*%
%AMFreePoly2*
4,1,23,0.500000,-0.750000,0.000000,-0.750000,0.000000,-0.745722,-0.065263,-0.745722,-0.191342,-0.711940,-0.304381,-0.646677,-0.396677,-0.554381,-0.461940,-0.441342,-0.495722,-0.315263,-0.495722,-0.250000,-0.500000,-0.250000,-0.500000,0.250000,-0.495722,0.250000,-0.495722,0.315263,-0.461940,0.441342,-0.396677,0.554381,-0.304381,0.646677,-0.191342,0.711940,-0.065263,0.745722,0.000000,0.745722,
0.000000,0.750000,0.500000,0.750000,0.500000,-0.750000,0.500000,-0.750000,$1*%
%AMFreePoly3*
4,1,23,0.000000,0.745722,0.065263,0.745722,0.191342,0.711940,0.304381,0.646677,0.396677,0.554381,0.461940,0.441342,0.495722,0.315263,0.495722,0.250000,0.500000,0.250000,0.500000,-0.250000,0.495722,-0.250000,0.495722,-0.315263,0.461940,-0.441342,0.396677,-0.554381,0.304381,-0.646677,0.191342,-0.711940,0.065263,-0.745722,0.000000,-0.745722,0.000000,-0.750000,-0.500000,-0.750000,
-0.500000,0.750000,0.000000,0.750000,0.000000,0.745722,0.000000,0.745722,$1*%
G04 Aperture macros list end*
%TA.AperFunction,EtchedComponent*%
%ADD10C,0.000000*%
%TD*%
%TA.AperFunction,SMDPad,CuDef*%
%ADD11FreePoly0,180.000000*%
%TD*%
%TA.AperFunction,SMDPad,CuDef*%
%ADD12R,1.000000X1.500000*%
%TD*%
%TA.AperFunction,SMDPad,CuDef*%
%ADD13FreePoly1,180.000000*%
%TD*%
%TA.AperFunction,SMDPad,CuDef*%
%ADD14RoundRect,0.150000X0.625000X-0.150000X0.625000X0.150000X-0.625000X0.150000X-0.625000X-0.150000X0*%
%TD*%
%TA.AperFunction,SMDPad,CuDef*%
%ADD15RoundRect,0.250000X0.650000X-0.350000X0.650000X0.350000X-0.650000X0.350000X-0.650000X-0.350000X0*%
%TD*%
%TA.AperFunction,SMDPad,CuDef*%
%ADD16FreePoly2,180.000000*%
%TD*%
%TA.AperFunction,SMDPad,CuDef*%
%ADD17FreePoly3,180.000000*%
%TD*%
%TA.AperFunction,SMDPad,CuDef*%
%ADD18C,0.180000*%
%TD*%
%TA.AperFunction,SMDPad,CuDef*%
%ADD19RoundRect,0.150000X-0.625000X0.150000X-0.625000X-0.150000X0.625000X-0.150000X0.625000X0.150000X0*%
%TD*%
%TA.AperFunction,SMDPad,CuDef*%
%ADD20RoundRect,0.250000X-0.650000X0.350000X-0.650000X-0.350000X0.650000X-0.350000X0.650000X0.350000X0*%
%TD*%
%TA.AperFunction,SMDPad,CuDef*%
%ADD21RoundRect,0.237500X-0.300000X-0.237500X0.300000X-0.237500X0.300000X0.237500X-0.300000X0.237500X0*%
%TD*%
%TA.AperFunction,SMDPad,CuDef*%
%ADD22R,0.475000X0.250000*%
%TD*%
%TA.AperFunction,SMDPad,CuDef*%
%ADD23R,0.250000X0.475000*%
%TD*%
%TA.AperFunction,SMDPad,CuDef*%
%ADD24RoundRect,0.237500X-0.250000X-0.237500X0.250000X-0.237500X0.250000X0.237500X-0.250000X0.237500X0*%
%TD*%
%TA.AperFunction,SMDPad,CuDef*%
%ADD25RoundRect,0.237500X0.237500X-0.250000X0.237500X0.250000X-0.237500X0.250000X-0.237500X-0.250000X0*%
%TD*%
%TA.AperFunction,SMDPad,CuDef*%
%ADD26RoundRect,0.237500X0.237500X-0.300000X0.237500X0.300000X-0.237500X0.300000X-0.237500X-0.300000X0*%
%TD*%
%TA.AperFunction,SMDPad,CuDef*%
%ADD27RoundRect,0.237500X-0.237500X0.300000X-0.237500X-0.300000X0.237500X-0.300000X0.237500X0.300000X0*%
%TD*%
%TA.AperFunction,ComponentPad*%
%ADD28R,1.700000X1.700000*%
%TD*%
%TA.AperFunction,ComponentPad*%
%ADD29C,1.700000*%
%TD*%
%TA.AperFunction,ViaPad*%
%ADD30C,0.600000*%
%TD*%
%TA.AperFunction,Conductor*%
%ADD31C,0.500000*%
%TD*%
%TA.AperFunction,Conductor*%
%ADD32C,0.250000*%
%TD*%
%TA.AperFunction,Conductor*%
%ADD33C,0.200000*%
%TD*%
G04 APERTURE END LIST*
D10*
%TA.AperFunction,EtchedComponent*%
%TO.C,JP3*%
G36*
X4565809Y-3333267D02*
G01*
X4065809Y-3333267D01*
X4065809Y-2733267D01*
X4565809Y-2733267D01*
X4565809Y-3333267D01*
G37*
%TD.AperFunction*%
%TA.AperFunction,EtchedComponent*%
%TO.C,JP2*%
G36*
X-34191Y-3333267D02*
G01*
X-534191Y-3333267D01*
X-534191Y-2733267D01*
X-34191Y-2733267D01*
X-34191Y-3333267D01*
G37*
%TD.AperFunction*%
%TD*%
D11*
%TO.P,JP3,1,A*%
%TO.N,/MAG_SDA*%
X4965809Y-3033267D03*
D12*
%TO.P,JP3,2,C*%
%TO.N,/SDA*%
X3665809Y-3033267D03*
D13*
%TO.P,JP3,3,B*%
%TO.N,/IMU_SDI{slash}SDA*%
X2365809Y-3033267D03*
%TD*%
D14*
%TO.P,J3,1,Pin_1*%
%TO.N,GND*%
X7690809Y-7633267D03*
%TO.P,J3,2,Pin_2*%
%TO.N,VDDIO*%
X7690809Y-6633267D03*
%TO.P,J3,3,Pin_3*%
%TO.N,/SDA*%
X7690809Y-5633267D03*
%TO.P,J3,4,Pin_4*%
%TO.N,/SCL*%
X7690809Y-4633267D03*
D15*
%TO.P,J3,MP,MountPin*%
%TO.N,GND*%
X11565809Y-8933267D03*
X11565809Y-3333267D03*
%TD*%
D16*
%TO.P,JP1,1,A*%
%TO.N,/IMU_CS*%
X-4584191Y-3033267D03*
D17*
%TO.P,JP1,2,B*%
%TO.N,VDDIO*%
X-5884191Y-3033267D03*
%TD*%
D18*
%TO.P,U2,A1,VSS*%
%TO.N,GND*%
X1965809Y-5433267D03*
%TO.P,U2,A2,SCL*%
%TO.N,/MAG_SCL*%
X2365809Y-5433267D03*
%TO.P,U2,B1,VDD*%
%TO.N,VDDIO*%
X1965809Y-5833267D03*
%TO.P,U2,B2,SDA*%
%TO.N,/MAG_SDA*%
X2365809Y-5833267D03*
%TD*%
D19*
%TO.P,J2,1,Pin_1*%
%TO.N,GND*%
X-8159191Y-4633267D03*
%TO.P,J2,2,Pin_2*%
%TO.N,VDDIO*%
X-8159191Y-5633267D03*
%TO.P,J2,3,Pin_3*%
%TO.N,/SDA*%
X-8159191Y-6633267D03*
%TO.P,J2,4,Pin_4*%
%TO.N,/SCL*%
X-8159191Y-7633267D03*
D20*
%TO.P,J2,MP,MountPin*%
%TO.N,GND*%
X-12034191Y-3333267D03*
X-12034191Y-8933267D03*
%TD*%
D21*
%TO.P,C1,1*%
%TO.N,VDDIO*%
X-5259191Y-8920767D03*
%TO.P,C1,2*%
%TO.N,GND*%
X-3534191Y-8920767D03*
%TD*%
D22*
%TO.P,U1,1,AP_SD0/AD0*%
%TO.N,/IMU_SDO*%
X-5596691Y-5870767D03*
%TO.P,U1,2,RESV*%
%TO.N,GND*%
X-5596691Y-6370767D03*
%TO.P,U1,3,RESV*%
X-5596691Y-6870767D03*
%TO.P,U1,4,INT1/INT*%
%TO.N,/IMU_INT1*%
X-5596691Y-7370767D03*
D23*
%TO.P,U1,5,VDDIO*%
%TO.N,VDDIO*%
X-4934191Y-7533267D03*
%TO.P,U1,6,GND*%
%TO.N,GND*%
X-4434191Y-7533267D03*
%TO.P,U1,7,RESV*%
X-3934191Y-7533267D03*
D22*
%TO.P,U1,8,VDD*%
%TO.N,VDDIO*%
X-3271691Y-7370767D03*
%TO.P,U1,9,INT2/FSYNC/CLKIN*%
%TO.N,/IMU_INT2*%
X-3271691Y-6870767D03*
%TO.P,U1,10,RESV/AUX1_CS*%
%TO.N,GND*%
X-3271691Y-6370767D03*
%TO.P,U1,11,RESV/AUX1_SDO*%
X-3271691Y-5870767D03*
D23*
%TO.P,U1,12,AP_CS*%
%TO.N,/IMU_CS*%
X-3934191Y-5708267D03*
%TO.P,U1,13,AP_SCLK/SCL*%
%TO.N,/IMU_SCLK{slash}SCL*%
X-4434191Y-5708267D03*
%TO.P,U1,14,AP_SDIO/SDI/SDA*%
%TO.N,/IMU_SDI{slash}SDA*%
X-4934191Y-5708267D03*
%TD*%
D11*
%TO.P,JP2,1,A*%
%TO.N,/MAG_SCL*%
X365809Y-3033267D03*
D12*
%TO.P,JP2,2,C*%
%TO.N,/SCL*%
X-934191Y-3033267D03*
D13*
%TO.P,JP2,3,B*%
%TO.N,/IMU_SCLK{slash}SCL*%
X-2234191Y-3033267D03*
%TD*%
D24*
%TO.P,R2,1*%
%TO.N,VDDIO*%
X3653309Y-9133267D03*
%TO.P,R2,2*%
%TO.N,/SCL*%
X5478309Y-9133267D03*
%TD*%
D25*
%TO.P,R3,1*%
%TO.N,VDDIO*%
X3665809Y-7345767D03*
%TO.P,R3,2*%
%TO.N,/SDA*%
X3665809Y-5520767D03*
%TD*%
%TO.P,R1,1*%
%TO.N,VDDIO*%
X-34191Y-7533267D03*
%TO.P,R1,2*%
%TO.N,/IMU_CS*%
X-34191Y-5708267D03*
%TD*%
D26*
%TO.P,C3,1*%
%TO.N,VDDIO*%
X-1634191Y-7483267D03*
%TO.P,C3,2*%
%TO.N,GND*%
X-1634191Y-5758267D03*
%TD*%
D27*
%TO.P,C2,1*%
%TO.N,VDDIO*%
X2165809Y-7370767D03*
%TO.P,C2,2*%
%TO.N,GND*%
X2165809Y-9095767D03*
%TD*%
D28*
%TO.P,J1,1,Pin_1*%
%TO.N,GND*%
X-11664191Y166733D03*
D29*
%TO.P,J1,2,Pin_2*%
%TO.N,VDDIO*%
X-9124191Y166733D03*
%TO.P,J1,3,Pin_3*%
%TO.N,/IMU_SCLK{slash}SCL*%
X-6584191Y166733D03*
%TO.P,J1,4,Pin_4*%
%TO.N,/IMU_SDI{slash}SDA*%
X-4044191Y166733D03*
%TO.P,J1,5,Pin_5*%
%TO.N,/IMU_SDO*%
X-1504191Y166733D03*
%TO.P,J1,6,Pin_6*%
%TO.N,/IMU_CS*%
X1035809Y166733D03*
%TO.P,J1,7,Pin_7*%
%TO.N,/IMU_INT1*%
X3575809Y166733D03*
%TO.P,J1,8,Pin_8*%
%TO.N,/IMU_INT2*%
X6115809Y166733D03*
%TO.P,J1,9,Pin_9*%
%TO.N,/SCL*%
X8655809Y166733D03*
%TO.P,J1,10,Pin_10*%
%TO.N,/SDA*%
X11195809Y166733D03*
%TD*%
D30*
%TO.N,GND*%
X4165809Y-10333267D03*
X11865809Y-5533267D03*
X-9534191Y-4833267D03*
X1165809Y-10233267D03*
X10565809Y-10233267D03*
X8065809Y-10233267D03*
X-2434191Y-8933267D03*
X10165809Y-8833267D03*
X11865809Y-6633267D03*
X9365809Y-10233267D03*
X6965809Y-10233267D03*
X5765809Y-10333267D03*
X-10634191Y-8833267D03*
X10865809Y-5833267D03*
X-12334191Y-7833267D03*
X-12234191Y-1933267D03*
X10865809Y-7333267D03*
X11865809Y-7833267D03*
X11865809Y-4433267D03*
X1315809Y-5983267D03*
X-2534191Y-5933267D03*
X9365809Y-3733267D03*
X2565809Y-10233267D03*
X10165809Y-3233267D03*
X10365809Y-4533267D03*
X8565809Y-1733267D03*
X3265809Y-1433267D03*
X-12334191Y-4433267D03*
X-7634191Y-1433267D03*
X-12234191Y-10233267D03*
X65809Y-9433267D03*
X8965809Y-7633267D03*
X-9734191Y-10233267D03*
X-12334191Y-6533267D03*
X1265809Y-9095767D03*
X-10634191Y-3233267D03*
X11765809Y-10233267D03*
X-12334191Y-5433267D03*
X-10934191Y-1933267D03*
X11465809Y-1833267D03*
X-11034191Y-10233267D03*
%TO.N,/IMU_INT2*%
X-2434191Y-6833267D03*
%TO.N,/SCL*%
X-6934191Y-8233267D03*
X1165809Y-5233267D03*
%TO.N,/IMU_SDI{slash}SDA*%
X-5434191Y-4933267D03*
%TO.N,/IMU_INT1*%
X-6312673Y-6711749D03*
%TO.N,/SDA*%
X-9734191Y-6633267D03*
X4765809Y-5533267D03*
%TO.N,/IMU_SDO*%
X-6934191Y-4133267D03*
%TO.N,/IMU_CS*%
X-3384191Y-3283267D03*
X-3302941Y-4964517D03*
%TD*%
D31*
%TO.N,VDDIO*%
X2003309Y-7533267D02*
X2165809Y-7370767D01*
X3665809Y-7345767D02*
X3678309Y-7333267D01*
X-8934191Y-3033267D02*
X-5884191Y-3033267D01*
D32*
X-4934191Y-7533267D02*
X-4934191Y-8595767D01*
D33*
X1965809Y-7170767D02*
X2165809Y-7370767D01*
D31*
X-34191Y-7533267D02*
X2003309Y-7533267D01*
D32*
X-1934191Y-7483267D02*
X-1634191Y-7483267D01*
D31*
X3653309Y-9133267D02*
X3653309Y-7358267D01*
X-10534191Y-7833267D02*
X-8834191Y-9533267D01*
X3653309Y-7358267D02*
X3665809Y-7345767D01*
X6365809Y-6633267D02*
X7690809Y-6633267D01*
X-9134191Y-3233267D02*
X-8934191Y-3033267D01*
X2165809Y-7370767D02*
X3640809Y-7370767D01*
D32*
X-1584191Y-7533267D02*
X-1634191Y-7483267D01*
X-34191Y-7533267D02*
X-1584191Y-7533267D01*
D31*
X-10534191Y-5633267D02*
X-10534191Y-7833267D01*
D32*
X-4934191Y-8595767D02*
X-5259191Y-8920767D01*
D31*
X-9124191Y-3223267D02*
X-9124191Y166733D01*
X-10534191Y-5633267D02*
X-10534191Y-4633267D01*
X-5871691Y-9533267D02*
X-5259191Y-8920767D01*
X5665809Y-7333267D02*
X6365809Y-6633267D01*
X-4046691Y-10133267D02*
X-2134191Y-10133267D01*
D32*
X-3271691Y-7370767D02*
X-2046691Y-7370767D01*
D31*
X-2134191Y-10133267D02*
X-1634191Y-9633267D01*
D33*
X1965809Y-5833267D02*
X1965809Y-7170767D01*
D31*
X-8834191Y-9533267D02*
X-5871691Y-9533267D01*
X-5259191Y-8920767D02*
X-4046691Y-10133267D01*
X3678309Y-7333267D02*
X5665809Y-7333267D01*
X-10534191Y-5633267D02*
X-8159191Y-5633267D01*
D32*
X-2046691Y-7370767D02*
X-1934191Y-7483267D01*
D31*
X-1634191Y-9633267D02*
X-1634191Y-7483267D01*
X3640809Y-7370767D02*
X3665809Y-7345767D01*
X-10534191Y-4633267D02*
X-9134191Y-3233267D01*
X-9134191Y-3233267D02*
X-9124191Y-3223267D01*
D33*
%TO.N,GND*%
X1315809Y-5983267D02*
X1865809Y-5433267D01*
D32*
X-9334191Y-4633267D02*
X-9534191Y-4833267D01*
X-2534191Y-5933267D02*
X-2359191Y-5758267D01*
X11465809Y-3233267D02*
X11565809Y-3333267D01*
X-11934191Y-8833267D02*
X-12034191Y-8933267D01*
X-3521691Y-8933267D02*
X-3534191Y-8920767D01*
X-3271691Y-6370767D02*
X-3271691Y-5870767D01*
X-2046691Y-5870767D02*
X-1934191Y-5758267D01*
X-7648691Y-4633267D02*
X-5911191Y-6370767D01*
X8965809Y-7633267D02*
X7690809Y-7633267D01*
X-4434191Y-7533267D02*
X-4434191Y-8020767D01*
X11865809Y-8633267D02*
X11565809Y-8933267D01*
X10165809Y-3233267D02*
X11465809Y-3233267D01*
X-10634191Y-8833267D02*
X-11934191Y-8833267D01*
X-5911191Y-6370767D02*
X-5596691Y-6370767D01*
X10165809Y-8833267D02*
X11465809Y-8833267D01*
X-10634191Y-3233267D02*
X-11934191Y-3233267D01*
X11865809Y-7833267D02*
X11865809Y-8633267D01*
X11465809Y-8833267D02*
X11565809Y-8933267D01*
X-2596691Y-5870767D02*
X-3271691Y-5870767D01*
X11865809Y-3633267D02*
X11565809Y-3333267D01*
X-1934191Y-5758267D02*
X-1634191Y-5758267D01*
X-12334191Y-3633267D02*
X-12034191Y-3333267D01*
X-12334191Y-8633267D02*
X-12034191Y-8933267D01*
X-2359191Y-5758267D02*
X-1634191Y-5758267D01*
X-4434191Y-8020767D02*
X-3534191Y-8920767D01*
X-11934191Y-3233267D02*
X-12034191Y-3333267D01*
X1265809Y-9095767D02*
X2165809Y-9095767D01*
X-3934191Y-8520767D02*
X-3534191Y-8920767D01*
X-8159191Y-4633267D02*
X-7648691Y-4633267D01*
X11865809Y-4433267D02*
X11865809Y-3633267D01*
X-8159191Y-4633267D02*
X-9334191Y-4633267D01*
X-12334191Y-4433267D02*
X-12334191Y-3633267D01*
X-3934191Y-7533267D02*
X-3934191Y-8520767D01*
D33*
X1865809Y-5433267D02*
X1965809Y-5433267D01*
D32*
X-5596691Y-6870767D02*
X-5596691Y-6370767D01*
X-2434191Y-8933267D02*
X-3521691Y-8933267D01*
X-2534191Y-5933267D02*
X-2596691Y-5870767D01*
X-12334191Y-7833267D02*
X-12334191Y-8633267D01*
%TO.N,/IMU_INT2*%
X-2434191Y-6833267D02*
X-2934191Y-6833267D01*
X-2971691Y-6870767D02*
X-3271691Y-6870767D01*
X-2934191Y-6833267D02*
X-2971691Y-6870767D01*
%TO.N,/IMU_SCLK{slash}SCL*%
X-4984191Y-1433267D02*
X-6584191Y166733D01*
X-3834191Y-1433267D02*
X-4984191Y-1433267D01*
X-4434191Y-5233267D02*
X-2234191Y-3033267D01*
X-2234191Y-3033267D02*
X-3834191Y-1433267D01*
X-4434191Y-5708267D02*
X-4434191Y-5233267D01*
%TO.N,/SCL*%
X9765809Y-8133267D02*
X9765809Y-5585277D01*
X-934191Y-3833267D02*
X-934191Y-3033267D01*
X-6934191Y-8233267D02*
X-7534191Y-7633267D01*
X8813799Y-4633267D02*
X7690809Y-4633267D01*
X8655809Y-433267D02*
X8655809Y166733D01*
X8765809Y-9133267D02*
X9765809Y-8133267D01*
X465809Y-4533267D02*
X-234191Y-4533267D01*
X-7534191Y-7633267D02*
X-8159191Y-7633267D01*
D33*
X1165809Y-5233267D02*
X965809Y-5033267D01*
D32*
X7690809Y-1398267D02*
X8655809Y-433267D01*
X7690809Y-4633267D02*
X7690809Y-1398267D01*
X5478309Y-9133267D02*
X8765809Y-9133267D01*
X9765809Y-5585277D02*
X8813799Y-4633267D01*
X1165809Y-5233267D02*
X465809Y-4533267D01*
X-234191Y-4533267D02*
X-934191Y-3833267D01*
%TO.N,/IMU_SDI{slash}SDA*%
X-4044191Y166733D02*
X-4044191Y68635D01*
X-4934191Y-5708267D02*
X-4934191Y-5433267D01*
X-2442289Y-1533267D02*
X865809Y-1533267D01*
X865809Y-1533267D02*
X2365809Y-3033267D01*
X-4044191Y68635D02*
X-2442289Y-1533267D01*
X-4934191Y-5433267D02*
X-5434191Y-4933267D01*
%TO.N,/IMU_INT1*%
X-6312673Y-6711749D02*
X-6312673Y-7029785D01*
X-5971691Y-7370767D02*
X-5596691Y-7370767D01*
X-6312673Y-7029785D02*
X-5971691Y-7370767D01*
%TO.N,/SDA*%
X6865809Y-5633267D02*
X6165809Y-4933267D01*
X4365809Y-1733267D02*
X3665809Y-2433267D01*
X-8159191Y-6633267D02*
X-9734191Y-6633267D01*
X3665809Y-2433267D02*
X3665809Y-3033267D01*
X6165809Y-2433267D02*
X5465809Y-1733267D01*
X5465809Y-1733267D02*
X4365809Y-1733267D01*
X7690809Y-5633267D02*
X6865809Y-5633267D01*
X3665809Y-5520767D02*
X3665809Y-3033267D01*
X6165809Y-4933267D02*
X6165809Y-2433267D01*
X3678309Y-5533267D02*
X3665809Y-5520767D01*
X4765809Y-5533267D02*
X3678309Y-5533267D01*
%TO.N,/IMU_SDO*%
X-5596691Y-5770767D02*
X-5596691Y-5870767D01*
X-6934191Y-4433267D02*
X-5596691Y-5770767D01*
X-6934191Y-4133267D02*
X-6934191Y-4433267D01*
%TO.N,/IMU_CS*%
X-3384191Y-3283267D02*
X-3634191Y-3033267D01*
X-3054068Y-4733267D02*
X-3052068Y-4731267D01*
X-3634191Y-3033267D02*
X-4584191Y-3033267D01*
X-1234191Y-4733267D02*
X-259191Y-5708267D01*
X-3052068Y-4731267D02*
X-2616314Y-4731267D01*
X-2614314Y-4733267D02*
X-1234191Y-4733267D01*
X-2616314Y-4731267D02*
X-2614314Y-4733267D01*
X-3934191Y-5595767D02*
X-3302941Y-4964517D01*
X-3071691Y-4733267D02*
X-3054068Y-4733267D01*
X-3934191Y-5708267D02*
X-3934191Y-5595767D01*
X-259191Y-5708267D02*
X-34191Y-5708267D01*
X-3302941Y-4964517D02*
X-3071691Y-4733267D01*
D33*
%TO.N,/MAG_SCL*%
X2365809Y-5433267D02*
X2365809Y-5033267D01*
X2365809Y-5033267D02*
X365809Y-3033267D01*
%TO.N,/MAG_SDA*%
X2365809Y-5833267D02*
X2965809Y-6433267D01*
X4665809Y-6433267D02*
X5465809Y-5633267D01*
X2965809Y-6433267D02*
X4665809Y-6433267D01*
X5465809Y-5633267D02*
X5465809Y-3533267D01*
X5465809Y-3533267D02*
X4965809Y-3033267D01*
%TD*%
%TA.AperFunction,Conductor*%
%TO.N,GND*%
G36*
X11968537Y1465925D02*
G01*
X12071473Y1454325D01*
X12082169Y1451883D01*
X12177325Y1418587D01*
X12187211Y1413827D01*
X12272574Y1360191D01*
X12281153Y1353349D01*
X12352443Y1282060D01*
X12359284Y1273482D01*
X12412920Y1188124D01*
X12417681Y1178239D01*
X12450982Y1083081D01*
X12453424Y1072384D01*
X12465001Y969661D01*
X12465309Y964173D01*
X12465309Y-10330516D01*
X12465001Y-10336002D01*
X12453404Y-10438932D01*
X12450962Y-10449630D01*
X12417666Y-10544783D01*
X12412905Y-10554669D01*
X12359270Y-10640028D01*
X12352429Y-10648606D01*
X12281147Y-10719889D01*
X12272569Y-10726730D01*
X12187210Y-10780365D01*
X12177324Y-10785126D01*
X12082171Y-10818422D01*
X12071473Y-10820864D01*
X11968562Y-10832459D01*
X11963076Y-10832767D01*
X-12431440Y-10832767D01*
X-12436926Y-10832459D01*
X-12539855Y-10820862D01*
X-12550553Y-10818420D01*
X-12645705Y-10785124D01*
X-12655591Y-10780363D01*
X-12740950Y-10726728D01*
X-12749528Y-10719887D01*
X-12820811Y-10648604D01*
X-12827652Y-10640026D01*
X-12881287Y-10554667D01*
X-12886048Y-10544781D01*
X-12919344Y-10449629D01*
X-12921786Y-10438931D01*
X-12933383Y-10336001D01*
X-12933691Y-10330515D01*
X-12933691Y-1091699D01*
X-12919339Y-1057051D01*
X-12884691Y-1042699D01*
X-12855326Y-1052473D01*
X-12756282Y-1126618D01*
X-12621564Y-1176865D01*
X-12562025Y-1183267D01*
X-11914191Y-1183267D01*
X-11914191Y-266279D01*
X-11857184Y-299192D01*
X-11730017Y-333267D01*
X-11598365Y-333267D01*
X-11471198Y-299192D01*
X-11414191Y-266279D01*
X-11414191Y-1183267D01*
X-10766357Y-1183267D01*
X-10706818Y-1176865D01*
X-10706817Y-1176865D01*
X-10572099Y-1126618D01*
X-10457002Y-1040455D01*
X-10370839Y-925358D01*
X-10320592Y-790640D01*
X-10320592Y-790639D01*
X-10314191Y-731101D01*
X-10314191Y22597D01*
X-10299839Y57245D01*
X-10265191Y71597D01*
X-10230543Y57245D01*
X-10216794Y30262D01*
X-10197593Y-90968D01*
X-10144064Y-255712D01*
X-10065423Y-410055D01*
X-9963605Y-550195D01*
X-9841119Y-672681D01*
X-9700979Y-774499D01*
X-9651444Y-799737D01*
X-9627090Y-828252D01*
X-9624691Y-843395D01*
X-9624691Y-2995657D01*
X-9639043Y-3030305D01*
X-10841505Y-4232767D01*
X-10934691Y-4325953D01*
X-10953170Y-4357959D01*
X-11000582Y-4440078D01*
X-11000582Y-4440080D01*
X-11000583Y-4440081D01*
X-11014698Y-4492759D01*
X-11034690Y-4567371D01*
X-11034691Y-4567372D01*
X-11034691Y-7899162D01*
X-11014226Y-7975535D01*
X-11000583Y-8026453D01*
X-10934691Y-8140581D01*
X-9234691Y-9840581D01*
X-9141505Y-9933767D01*
X-9027377Y-9999659D01*
X-8900086Y-10033766D01*
X-8900086Y-10033767D01*
X-8900083Y-10033767D01*
X-5805796Y-10033767D01*
X-5805795Y-10033766D01*
X-5778898Y-10026559D01*
X-5678505Y-9999659D01*
X-5678504Y-9999658D01*
X-5678502Y-9999658D01*
X-5606148Y-9957884D01*
X-5564377Y-9933767D01*
X-5293839Y-9663229D01*
X-5259191Y-9648877D01*
X-5224543Y-9663229D01*
X-4354005Y-10533767D01*
X-4239877Y-10599659D01*
X-4112586Y-10633766D01*
X-4112586Y-10633767D01*
X-4112583Y-10633767D01*
X-2068296Y-10633767D01*
X-2068295Y-10633766D01*
X-2041398Y-10626559D01*
X-1941005Y-10599659D01*
X-1941004Y-10599658D01*
X-1941002Y-10599658D01*
X-1854983Y-10549994D01*
X-1826877Y-10533767D01*
X-1233691Y-9940581D01*
X-1229756Y-9933766D01*
X-1167799Y-9826455D01*
X-1167798Y-9826451D01*
X-1133691Y-9699162D01*
X-1133691Y-8220502D01*
X-1119339Y-8185854D01*
X-1114056Y-8181276D01*
X-1083988Y-8158767D01*
X-1048075Y-8131883D01*
X-981942Y-8043541D01*
X-963979Y-8019546D01*
X-963977Y-8019542D01*
X-934549Y-7940643D01*
X-908994Y-7913195D01*
X-888639Y-7908767D01*
X-779743Y-7908767D01*
X-745095Y-7923119D01*
X-733833Y-7940643D01*
X-714646Y-7992082D01*
X-704403Y-8019545D01*
X-620307Y-8131883D01*
X-507969Y-8215979D01*
X-376490Y-8265018D01*
X-357115Y-8267101D01*
X-318371Y-8271267D01*
X-318365Y-8271267D01*
X249989Y-8271267D01*
X284858Y-8267517D01*
X308108Y-8265018D01*
X439587Y-8215979D01*
X551925Y-8131883D01*
X610676Y-8053400D01*
X642928Y-8034266D01*
X649901Y-8033767D01*
X1582599Y-8033767D01*
X1611964Y-8043541D01*
X1692028Y-8103477D01*
X1692031Y-8103479D01*
X1823510Y-8152518D01*
X1838041Y-8154080D01*
X1881629Y-8158767D01*
X1881635Y-8158767D01*
X2449989Y-8158767D01*
X2484858Y-8155017D01*
X2508108Y-8152518D01*
X2639587Y-8103479D01*
X2751925Y-8019383D01*
X2836021Y-7907045D01*
X2836237Y-7906464D01*
X2837477Y-7903143D01*
X2863032Y-7875695D01*
X2883387Y-7871267D01*
X3000431Y-7871267D01*
X3035079Y-7885619D01*
X3039657Y-7890902D01*
X3045841Y-7899162D01*
X3079693Y-7944383D01*
X3113333Y-7969566D01*
X3133174Y-7984419D01*
X3152310Y-8016672D01*
X3152809Y-8023645D01*
X3152809Y-8449173D01*
X3138457Y-8483821D01*
X3133174Y-8488399D01*
X3054693Y-8547151D01*
X2970598Y-8659486D01*
X2921557Y-8790970D01*
X2921557Y-8790971D01*
X2915309Y-8849086D01*
X2915309Y-9417447D01*
X2921557Y-9475562D01*
X2921557Y-9475563D01*
X2921557Y-9475565D01*
X2921558Y-9475566D01*
X2945830Y-9540643D01*
X2970598Y-9607047D01*
X3001912Y-9648877D01*
X3054693Y-9719383D01*
X3167031Y-9803479D01*
X3298510Y-9852518D01*
X3313041Y-9854080D01*
X3356629Y-9858767D01*
X3356635Y-9858767D01*
X3949989Y-9858767D01*
X3984858Y-9855017D01*
X4008108Y-9852518D01*
X4139587Y-9803479D01*
X4251925Y-9719383D01*
X4336021Y-9607045D01*
X4385060Y-9475566D01*
X4388851Y-9440305D01*
X4391309Y-9417447D01*
X4391309Y-8849086D01*
X4385060Y-8790971D01*
X4385060Y-8790970D01*
X4385060Y-8790968D01*
X4336021Y-8659489D01*
X4251925Y-8547151D01*
X4214790Y-8519351D01*
X4173444Y-8488399D01*
X4154308Y-8456146D01*
X4153809Y-8449173D01*
X4153809Y-8042359D01*
X4168161Y-8007711D01*
X4173432Y-8003142D01*
X4251925Y-7944383D01*
X4320033Y-7853401D01*
X4352286Y-7834266D01*
X4359259Y-7833767D01*
X5731704Y-7833767D01*
X5731704Y-7833766D01*
X5858995Y-7799659D01*
X5973123Y-7733767D01*
X6558771Y-7148119D01*
X6593419Y-7133767D01*
X6859763Y-7133767D01*
X6882008Y-7139108D01*
X6938546Y-7167915D01*
X6940505Y-7168913D01*
X7034290Y-7183767D01*
X8347327Y-7183766D01*
X8441113Y-7168913D01*
X8548876Y-7114005D01*
X8554144Y-7111321D01*
X8554146Y-7111319D01*
X8554151Y-7111317D01*
X8643859Y-7021609D01*
X8643863Y-7021602D01*
X8701453Y-6908576D01*
X8701453Y-6908574D01*
X8701455Y-6908571D01*
X8716309Y-6814786D01*
X8716308Y-6451749D01*
X8701455Y-6357963D01*
X8682256Y-6320283D01*
X8643863Y-6244931D01*
X8643858Y-6244924D01*
X8566849Y-6167915D01*
X8552497Y-6133267D01*
X8566849Y-6098619D01*
X8602406Y-6063062D01*
X8643859Y-6021609D01*
X8644453Y-6020444D01*
X8701453Y-5908576D01*
X8701453Y-5908574D01*
X8701455Y-5908571D01*
X8716309Y-5814786D01*
X8716308Y-5451749D01*
X8701455Y-5357963D01*
X8674847Y-5305742D01*
X8643863Y-5244931D01*
X8643858Y-5244924D01*
X8566850Y-5167916D01*
X8566848Y-5167914D01*
X8552497Y-5133267D01*
X8566847Y-5098620D01*
X8622835Y-5042632D01*
X8657481Y-5028282D01*
X8692127Y-5042632D01*
X8692129Y-5042634D01*
X9375957Y-5726462D01*
X9390309Y-5761110D01*
X9390309Y-7957434D01*
X9375957Y-7992082D01*
X8624624Y-8743415D01*
X8589976Y-8757767D01*
X6231699Y-8757767D01*
X6197051Y-8743415D01*
X6185789Y-8725891D01*
X6161022Y-8659491D01*
X6161020Y-8659487D01*
X6100370Y-8578470D01*
X6076925Y-8547151D01*
X5992327Y-8483821D01*
X5964589Y-8463056D01*
X5964587Y-8463055D01*
X5833108Y-8414016D01*
X5833107Y-8414015D01*
X5833105Y-8414015D01*
X5774989Y-8407767D01*
X5774983Y-8407767D01*
X5181635Y-8407767D01*
X5181629Y-8407767D01*
X5123513Y-8414015D01*
X5123512Y-8414015D01*
X4992028Y-8463056D01*
X4879693Y-8547151D01*
X4795598Y-8659486D01*
X4746557Y-8790970D01*
X4746557Y-8790971D01*
X4740309Y-8849086D01*
X4740309Y-9417447D01*
X4746557Y-9475562D01*
X4746557Y-9475563D01*
X4746557Y-9475565D01*
X4746558Y-9475566D01*
X4770830Y-9540643D01*
X4795598Y-9607047D01*
X4826912Y-9648877D01*
X4879693Y-9719383D01*
X4992031Y-9803479D01*
X5123510Y-9852518D01*
X5138041Y-9854080D01*
X5181629Y-9858767D01*
X5181635Y-9858767D01*
X5774989Y-9858767D01*
X5809858Y-9855017D01*
X5833108Y-9852518D01*
X5964587Y-9803479D01*
X6076925Y-9719383D01*
X6161021Y-9607045D01*
X6175818Y-9567374D01*
X6185789Y-9540643D01*
X6211344Y-9513195D01*
X6231699Y-9508767D01*
X8815247Y-9508767D01*
X8844464Y-9500937D01*
X8862995Y-9495972D01*
X8910747Y-9483177D01*
X8996371Y-9433742D01*
X9066284Y-9363829D01*
X10066284Y-8363829D01*
X10115720Y-8278204D01*
X10141308Y-8182706D01*
X10141309Y-8182706D01*
X10141309Y-5535839D01*
X10118776Y-5451749D01*
X10115719Y-5440339D01*
X10115718Y-5440338D01*
X10115718Y-5440336D01*
X10066283Y-5354714D01*
X9044361Y-4332792D01*
X8958739Y-4283357D01*
X8958736Y-4283356D01*
X8910985Y-4270562D01*
X8863237Y-4257767D01*
X8863235Y-4257767D01*
X8863234Y-4257767D01*
X8676997Y-4257767D01*
X8642349Y-4243415D01*
X8554151Y-4155217D01*
X8554144Y-4155212D01*
X8441117Y-4097622D01*
X8441114Y-4097621D01*
X8441113Y-4097621D01*
X8347328Y-4082767D01*
X8347326Y-4082767D01*
X8115309Y-4082767D01*
X8080661Y-4068415D01*
X8066309Y-4033767D01*
X8066309Y-1574100D01*
X8080661Y-1539452D01*
X8671994Y-948119D01*
X8706642Y-933767D01*
X8742419Y-933767D01*
X8742420Y-933767D01*
X8913510Y-906669D01*
X9078254Y-853140D01*
X9232597Y-774499D01*
X9372737Y-672681D01*
X9495223Y-550195D01*
X9597041Y-410055D01*
X9675682Y-255712D01*
X9729211Y-90968D01*
X9756309Y80122D01*
X9756309Y253343D01*
X10095309Y253343D01*
X10095309Y80122D01*
X10122406Y-90965D01*
X10122407Y-90968D01*
X10175936Y-255713D01*
X10254573Y-410049D01*
X10254576Y-410053D01*
X10254577Y-410055D01*
X10356395Y-550195D01*
X10356397Y-550197D01*
X10356400Y-550201D01*
X10478874Y-672675D01*
X10478877Y-672677D01*
X10478881Y-672681D01*
X10619021Y-774499D01*
X10619023Y-774500D01*
X10619026Y-774502D01*
X10773362Y-853139D01*
X10773364Y-853140D01*
X10938108Y-906669D01*
X11109198Y-933767D01*
X11109199Y-933767D01*
X11282419Y-933767D01*
X11282420Y-933767D01*
X11453510Y-906669D01*
X11618254Y-853140D01*
X11772597Y-774499D01*
X11912737Y-672681D01*
X12035223Y-550195D01*
X12137041Y-410055D01*
X12215682Y-255712D01*
X12269211Y-90968D01*
X12296309Y80122D01*
X12296309Y253344D01*
X12269211Y424434D01*
X12215682Y589178D01*
X12137041Y743521D01*
X12035223Y883661D01*
X11912737Y1006147D01*
X11772597Y1107965D01*
X11618254Y1186606D01*
X11453510Y1240135D01*
X11282420Y1267233D01*
X11109198Y1267233D01*
X10938108Y1240135D01*
X10773364Y1186606D01*
X10773362Y1186605D01*
X10619026Y1107968D01*
X10619023Y1107966D01*
X10619021Y1107965D01*
X10478881Y1006147D01*
X10478877Y1006143D01*
X10478874Y1006141D01*
X10356400Y883667D01*
X10356397Y883663D01*
X10356395Y883661D01*
X10254577Y743521D01*
X10254573Y743515D01*
X10175936Y589179D01*
X10122407Y424434D01*
X10122406Y424431D01*
X10095309Y253343D01*
X9756309Y253343D01*
X9756309Y253344D01*
X9729211Y424434D01*
X9675682Y589178D01*
X9597041Y743521D01*
X9495223Y883661D01*
X9372737Y1006147D01*
X9232597Y1107965D01*
X9078254Y1186606D01*
X8913510Y1240135D01*
X8742420Y1267233D01*
X8569198Y1267233D01*
X8398108Y1240135D01*
X8233364Y1186606D01*
X8233362Y1186605D01*
X8079026Y1107968D01*
X8079023Y1107966D01*
X8079021Y1107965D01*
X7938881Y1006147D01*
X7938877Y1006143D01*
X7938874Y1006141D01*
X7816400Y883667D01*
X7816397Y883663D01*
X7816395Y883661D01*
X7714577Y743521D01*
X7714573Y743515D01*
X7635936Y589179D01*
X7582407Y424434D01*
X7582406Y424431D01*
X7555309Y253343D01*
X7555309Y80122D01*
X7582406Y-90965D01*
X7582407Y-90968D01*
X7635936Y-255713D01*
X7714573Y-410049D01*
X7714576Y-410053D01*
X7714577Y-410055D01*
X7816395Y-550195D01*
X7816397Y-550197D01*
X7816400Y-550201D01*
X7877470Y-611271D01*
X7891822Y-645919D01*
X7877470Y-680567D01*
X7460247Y-1097792D01*
X7390335Y-1167704D01*
X7390334Y-1167704D01*
X7340899Y-1253326D01*
X7340898Y-1253330D01*
X7315309Y-1348829D01*
X7315309Y-4033767D01*
X7300957Y-4068415D01*
X7266309Y-4082767D01*
X7034291Y-4082767D01*
X6940505Y-4097620D01*
X6827473Y-4155212D01*
X6827466Y-4155217D01*
X6737759Y-4244924D01*
X6737754Y-4244931D01*
X6680164Y-4357957D01*
X6680164Y-4357959D01*
X6680163Y-4357961D01*
X6680163Y-4357963D01*
X6667157Y-4440081D01*
X6665309Y-4451749D01*
X6665309Y-4783434D01*
X6650957Y-4818082D01*
X6616309Y-4832434D01*
X6581661Y-4818082D01*
X6555661Y-4792082D01*
X6541309Y-4757434D01*
X6541309Y-2383830D01*
X6531844Y-2348510D01*
X6531843Y-2348505D01*
X6528515Y-2336082D01*
X6517668Y-2295603D01*
X6515719Y-2288329D01*
X6515718Y-2288327D01*
X6515718Y-2288326D01*
X6466283Y-2202704D01*
X5696371Y-1432792D01*
X5610749Y-1383357D01*
X5610746Y-1383356D01*
X5562995Y-1370562D01*
X5515247Y-1357767D01*
X5515245Y-1357767D01*
X5515244Y-1357767D01*
X4415245Y-1357767D01*
X4316373Y-1357767D01*
X4316371Y-1357767D01*
X4284539Y-1366297D01*
X4268622Y-1370562D01*
X4220871Y-1383356D01*
X4220868Y-1383357D01*
X4135246Y-1432792D01*
X4135246Y-1432793D01*
X3549624Y-2018415D01*
X3514976Y-2032767D01*
X3141131Y-2032767D01*
X3068069Y-2047300D01*
X3063609Y-2049148D01*
X3063234Y-2048242D01*
X3031325Y-2054586D01*
X3013670Y-2047272D01*
X3013585Y-2047216D01*
X3013584Y-2047215D01*
X3013582Y-2047214D01*
X2915814Y-2027767D01*
X2915809Y-2027767D01*
X2299983Y-2027767D01*
X2263267Y-2032600D01*
X2233843Y-2036474D01*
X2106688Y-2070547D01*
X2106682Y-2070549D01*
X2045067Y-2096071D01*
X2023475Y-2108537D01*
X1986292Y-2113431D01*
X1964328Y-2100749D01*
X1096371Y-1232792D01*
X1010749Y-1183357D01*
X1010746Y-1183356D01*
X952333Y-1167705D01*
X939970Y-1164392D01*
X915247Y-1157767D01*
X915245Y-1157767D01*
X915244Y-1157767D01*
X-2266456Y-1157767D01*
X-2301104Y-1143415D01*
X-3054665Y-389852D01*
X-3069017Y-355204D01*
X-3063677Y-332959D01*
X-3041899Y-290217D01*
X-3024318Y-255712D01*
X-2970789Y-90968D01*
X-2970788Y-90965D01*
X-2943691Y80122D01*
X-2943691Y253343D01*
X-2943691Y253344D01*
X-2604691Y253344D01*
X-2604691Y80122D01*
X-2577593Y-90968D01*
X-2524064Y-255712D01*
X-2445423Y-410055D01*
X-2343605Y-550195D01*
X-2221119Y-672681D01*
X-2080979Y-774499D01*
X-1926636Y-853140D01*
X-1761892Y-906669D01*
X-1590802Y-933767D01*
X-1590801Y-933767D01*
X-1417581Y-933767D01*
X-1417580Y-933767D01*
X-1246490Y-906669D01*
X-1081746Y-853140D01*
X-1081744Y-853139D01*
X-927408Y-774502D01*
X-927405Y-774500D01*
X-927403Y-774499D01*
X-787263Y-672681D01*
X-787259Y-672677D01*
X-787256Y-672675D01*
X-664782Y-550201D01*
X-664779Y-550197D01*
X-664777Y-550195D01*
X-562959Y-410055D01*
X-562958Y-410053D01*
X-562955Y-410049D01*
X-484318Y-255713D01*
X-430789Y-90968D01*
X-430788Y-90965D01*
X-403691Y80122D01*
X-403691Y253343D01*
X-403691Y253344D01*
X-64691Y253344D01*
X-64691Y80122D01*
X-37593Y-90968D01*
X-21572Y-140274D01*
X15936Y-255713D01*
X94573Y-410049D01*
X94576Y-410053D01*
X94577Y-410055D01*
X196395Y-550195D01*
X196397Y-550197D01*
X196400Y-550201D01*
X318874Y-672675D01*
X318877Y-672677D01*
X318881Y-672681D01*
X459021Y-774499D01*
X459023Y-774500D01*
X459026Y-774502D01*
X613362Y-853139D01*
X613364Y-853140D01*
X778108Y-906669D01*
X949198Y-933767D01*
X949199Y-933767D01*
X1122419Y-933767D01*
X1122420Y-933767D01*
X1293510Y-906669D01*
X1458254Y-853140D01*
X1612597Y-774499D01*
X1752737Y-672681D01*
X1875223Y-550195D01*
X1977041Y-410055D01*
X2055682Y-255712D01*
X2109211Y-90968D01*
X2136309Y80122D01*
X2136309Y253343D01*
X2475309Y253343D01*
X2475309Y80122D01*
X2502406Y-90965D01*
X2502407Y-90968D01*
X2555936Y-255713D01*
X2634573Y-410049D01*
X2634576Y-410053D01*
X2634577Y-410055D01*
X2736395Y-550195D01*
X2736397Y-550197D01*
X2736400Y-550201D01*
X2858874Y-672675D01*
X2858877Y-672677D01*
X2858881Y-672681D01*
X2999021Y-774499D01*
X2999023Y-774500D01*
X2999026Y-774502D01*
X3153362Y-853139D01*
X3153364Y-853140D01*
X3318108Y-906669D01*
X3489198Y-933767D01*
X3489199Y-933767D01*
X3662419Y-933767D01*
X3662420Y-933767D01*
X3833510Y-906669D01*
X3998254Y-853140D01*
X4152597Y-774499D01*
X4292737Y-672681D01*
X4415223Y-550195D01*
X4517041Y-410055D01*
X4595682Y-255712D01*
X4649211Y-90968D01*
X4676309Y80122D01*
X4676309Y253343D01*
X5015309Y253343D01*
X5015309Y80122D01*
X5042406Y-90965D01*
X5042407Y-90968D01*
X5095936Y-255713D01*
X5174573Y-410049D01*
X5174576Y-410053D01*
X5174577Y-410055D01*
X5276395Y-550195D01*
X5276397Y-550197D01*
X5276400Y-550201D01*
X5398874Y-672675D01*
X5398877Y-672677D01*
X5398881Y-672681D01*
X5539021Y-774499D01*
X5539023Y-774500D01*
X5539026Y-774502D01*
X5693362Y-853139D01*
X5693364Y-853140D01*
X5858108Y-906669D01*
X6029198Y-933767D01*
X6029199Y-933767D01*
X6202419Y-933767D01*
X6202420Y-933767D01*
X6373510Y-906669D01*
X6538254Y-853140D01*
X6692597Y-774499D01*
X6832737Y-672681D01*
X6955223Y-550195D01*
X7057041Y-410055D01*
X7135682Y-255712D01*
X7189211Y-90968D01*
X7216309Y80122D01*
X7216309Y253344D01*
X7189211Y424434D01*
X7135682Y589178D01*
X7057041Y743521D01*
X6955223Y883661D01*
X6832737Y1006147D01*
X6692597Y1107965D01*
X6538254Y1186606D01*
X6373510Y1240135D01*
X6202420Y1267233D01*
X6029198Y1267233D01*
X5858108Y1240135D01*
X5693364Y1186606D01*
X5693362Y1186605D01*
X5539026Y1107968D01*
X5539023Y1107966D01*
X5539021Y1107965D01*
X5398881Y1006147D01*
X5398877Y1006143D01*
X5398874Y1006141D01*
X5276400Y883667D01*
X5276397Y883663D01*
X5276395Y883661D01*
X5174577Y743521D01*
X5174573Y743515D01*
X5095936Y589179D01*
X5042407Y424434D01*
X5042406Y424431D01*
X5015309Y253343D01*
X4676309Y253343D01*
X4676309Y253344D01*
X4649211Y424434D01*
X4595682Y589178D01*
X4517041Y743521D01*
X4415223Y883661D01*
X4292737Y1006147D01*
X4152597Y1107965D01*
X3998254Y1186606D01*
X3833510Y1240135D01*
X3662420Y1267233D01*
X3489198Y1267233D01*
X3318108Y1240135D01*
X3153364Y1186606D01*
X3153362Y1186605D01*
X2999026Y1107968D01*
X2999023Y1107966D01*
X2999021Y1107965D01*
X2858881Y1006147D01*
X2858877Y1006143D01*
X2858874Y1006141D01*
X2736400Y883667D01*
X2736397Y883663D01*
X2736395Y883661D01*
X2634577Y743521D01*
X2634573Y743515D01*
X2555936Y589179D01*
X2502407Y424434D01*
X2502406Y424431D01*
X2475309Y253343D01*
X2136309Y253343D01*
X2136309Y253344D01*
X2109211Y424434D01*
X2055682Y589178D01*
X1977041Y743521D01*
X1875223Y883661D01*
X1752737Y1006147D01*
X1612597Y1107965D01*
X1458254Y1186606D01*
X1293510Y1240135D01*
X1122420Y1267233D01*
X949198Y1267233D01*
X778108Y1240135D01*
X613364Y1186606D01*
X613362Y1186605D01*
X459026Y1107968D01*
X459023Y1107966D01*
X459021Y1107965D01*
X318881Y1006147D01*
X318877Y1006143D01*
X318874Y1006141D01*
X196400Y883667D01*
X196397Y883663D01*
X196395Y883661D01*
X94577Y743521D01*
X94573Y743515D01*
X15936Y589179D01*
X15936Y589178D01*
X-37593Y424434D01*
X-64691Y253344D01*
X-403691Y253344D01*
X-430788Y424431D01*
X-430789Y424434D01*
X-484318Y589179D01*
X-562955Y743515D01*
X-562959Y743521D01*
X-664777Y883661D01*
X-664779Y883663D01*
X-664782Y883667D01*
X-787256Y1006141D01*
X-787259Y1006143D01*
X-787263Y1006147D01*
X-927403Y1107965D01*
X-927405Y1107966D01*
X-927408Y1107968D01*
X-1081744Y1186605D01*
X-1081746Y1186606D01*
X-1246490Y1240135D01*
X-1417580Y1267233D01*
X-1590802Y1267233D01*
X-1761892Y1240135D01*
X-1926636Y1186606D01*
X-2080979Y1107965D01*
X-2221119Y1006147D01*
X-2343605Y883661D01*
X-2445423Y743521D01*
X-2524064Y589178D01*
X-2577593Y424434D01*
X-2604691Y253344D01*
X-2943691Y253344D01*
X-2970788Y424431D01*
X-2970789Y424434D01*
X-3024318Y589179D01*
X-3102955Y743515D01*
X-3102959Y743521D01*
X-3204777Y883661D01*
X-3204779Y883663D01*
X-3204782Y883667D01*
X-3327256Y1006141D01*
X-3327259Y1006143D01*
X-3327263Y1006147D01*
X-3467403Y1107965D01*
X-3467405Y1107966D01*
X-3467408Y1107968D01*
X-3621744Y1186605D01*
X-3621746Y1186606D01*
X-3786490Y1240135D01*
X-3957580Y1267233D01*
X-4130802Y1267233D01*
X-4301892Y1240135D01*
X-4466636Y1186606D01*
X-4620979Y1107965D01*
X-4761119Y1006147D01*
X-4883605Y883661D01*
X-4985423Y743521D01*
X-5064064Y589178D01*
X-5117593Y424434D01*
X-5144691Y253344D01*
X-5144691Y80122D01*
X-5117593Y-90968D01*
X-5064064Y-255712D01*
X-4985423Y-410055D01*
X-4883605Y-550195D01*
X-4761119Y-672681D01*
X-4620979Y-774499D01*
X-4466636Y-853140D01*
X-4301892Y-906669D01*
X-4130802Y-933767D01*
X-4130801Y-933767D01*
X-3957581Y-933767D01*
X-3957580Y-933767D01*
X-3786490Y-906669D01*
X-3674231Y-870193D01*
X-3636847Y-873135D01*
X-3624447Y-882144D01*
X-2672851Y-1833742D01*
X-2587226Y-1883178D01*
X-2491728Y-1908766D01*
X-2491728Y-1908767D01*
X-2491725Y-1908767D01*
X-2491724Y-1908767D01*
X689976Y-1908767D01*
X724624Y-1923119D01*
X1595957Y-2794452D01*
X1610309Y-2829100D01*
X1610309Y-3349093D01*
X1616263Y-3394317D01*
X1619016Y-3415232D01*
X1653089Y-3542387D01*
X1653091Y-3542393D01*
X1678614Y-3604011D01*
X1744438Y-3718021D01*
X1744448Y-3718036D01*
X1785035Y-3770930D01*
X1785046Y-3770942D01*
X1878133Y-3864029D01*
X1878145Y-3864040D01*
X1931039Y-3904627D01*
X1931045Y-3904631D01*
X1931052Y-3904636D01*
X1968501Y-3926257D01*
X2001061Y-3945056D01*
X2045066Y-3970462D01*
X2106686Y-3995986D01*
X2162752Y-4011009D01*
X2233843Y-4030059D01*
X2233847Y-4030059D01*
X2233853Y-4030061D01*
X2299983Y-4038767D01*
X2299987Y-4038767D01*
X2915809Y-4038767D01*
X2959587Y-4030059D01*
X3013581Y-4019319D01*
X3013581Y-4019318D01*
X3013585Y-4019318D01*
X3013663Y-4019265D01*
X3013755Y-4019247D01*
X3018044Y-4017471D01*
X3018397Y-4018323D01*
X3050444Y-4011944D01*
X3063608Y-4017396D01*
X3063612Y-4017387D01*
X3068069Y-4019233D01*
X3141135Y-4033767D01*
X3241309Y-4033767D01*
X3275957Y-4048119D01*
X3290309Y-4082767D01*
X3290309Y-4767377D01*
X3275957Y-4802025D01*
X3258433Y-4813287D01*
X3192033Y-4838053D01*
X3192029Y-4838055D01*
X3079693Y-4922151D01*
X2995598Y-5034486D01*
X2946557Y-5165970D01*
X2946557Y-5165971D01*
X2940309Y-5224086D01*
X2940309Y-5793789D01*
X2925957Y-5828437D01*
X2891309Y-5842789D01*
X2856661Y-5828437D01*
X2684001Y-5655777D01*
X2669649Y-5621129D01*
X2676214Y-5596628D01*
X2682175Y-5586304D01*
X2692423Y-5568555D01*
X2716308Y-5479414D01*
X2716309Y-5479414D01*
X2716309Y-4987120D01*
X2716308Y-4987119D01*
X2701751Y-4932792D01*
X2692423Y-4897979D01*
X2688995Y-4892042D01*
X2646279Y-4818055D01*
X1135661Y-3307437D01*
X1121309Y-3272789D01*
X1121309Y-2717444D01*
X1121309Y-2717441D01*
X1112603Y-2651311D01*
X1112601Y-2651305D01*
X1112601Y-2651301D01*
X1093551Y-2580210D01*
X1078528Y-2524144D01*
X1053004Y-2462524D01*
X987178Y-2348510D01*
X987169Y-2348497D01*
X946582Y-2295603D01*
X946571Y-2295591D01*
X853484Y-2202504D01*
X853472Y-2202493D01*
X800578Y-2161906D01*
X800563Y-2161896D01*
X686553Y-2096072D01*
X624935Y-2070549D01*
X624929Y-2070547D01*
X497774Y-2036474D01*
X476686Y-2033698D01*
X431635Y-2027767D01*
X-184191Y-2027767D01*
X-184196Y-2027767D01*
X-281964Y-2047214D01*
X-281966Y-2047215D01*
X-281967Y-2047216D01*
X-282051Y-2047272D01*
X-282152Y-2047292D01*
X-286424Y-2049062D01*
X-286776Y-2048211D01*
X-318833Y-2054587D01*
X-331987Y-2049138D01*
X-331991Y-2049148D01*
X-336451Y-2047300D01*
X-409513Y-2032767D01*
X-409517Y-2032767D01*
X-1458865Y-2032767D01*
X-1458868Y-2032767D01*
X-1531931Y-2047300D01*
X-1536392Y-2049148D01*
X-1536767Y-2048242D01*
X-1568671Y-2054586D01*
X-1586321Y-2047277D01*
X-1586408Y-2047218D01*
X-1586415Y-2047215D01*
X-1684187Y-2027767D01*
X-1684191Y-2027767D01*
X-2300017Y-2027767D01*
X-2345068Y-2033698D01*
X-2366156Y-2036474D01*
X-2493311Y-2070547D01*
X-2493317Y-2070549D01*
X-2511364Y-2078025D01*
X-2554934Y-2096072D01*
X-2563033Y-2100748D01*
X-2576523Y-2108536D01*
X-2613705Y-2113430D01*
X-2635670Y-2100748D01*
X-3603628Y-1132793D01*
X-3603628Y-1132792D01*
X-3689250Y-1083357D01*
X-3689253Y-1083356D01*
X-3737004Y-1070562D01*
X-3752921Y-1066297D01*
X-3784753Y-1057767D01*
X-3784755Y-1057767D01*
X-3784756Y-1057767D01*
X-4808357Y-1057767D01*
X-4843005Y-1043415D01*
X-5561554Y-324865D01*
X-5575906Y-290217D01*
X-5570565Y-267974D01*
X-5564318Y-255712D01*
X-5510789Y-90968D01*
X-5510788Y-90965D01*
X-5483691Y80122D01*
X-5483691Y253343D01*
X-5510788Y424431D01*
X-5510789Y424434D01*
X-5564318Y589179D01*
X-5642955Y743515D01*
X-5642959Y743521D01*
X-5744777Y883661D01*
X-5744779Y883663D01*
X-5744782Y883667D01*
X-5867256Y1006141D01*
X-5867259Y1006143D01*
X-5867263Y1006147D01*
X-6007403Y1107965D01*
X-6007405Y1107966D01*
X-6007408Y1107968D01*
X-6161744Y1186605D01*
X-6161746Y1186606D01*
X-6326490Y1240135D01*
X-6497580Y1267233D01*
X-6670802Y1267233D01*
X-6841892Y1240135D01*
X-7006636Y1186606D01*
X-7160979Y1107965D01*
X-7301119Y1006147D01*
X-7423605Y883661D01*
X-7525423Y743521D01*
X-7604064Y589178D01*
X-7657593Y424434D01*
X-7684691Y253344D01*
X-7684691Y80122D01*
X-7657593Y-90968D01*
X-7604064Y-255712D01*
X-7525423Y-410055D01*
X-7423605Y-550195D01*
X-7301119Y-672681D01*
X-7160979Y-774499D01*
X-7006636Y-853140D01*
X-6841892Y-906669D01*
X-6670802Y-933767D01*
X-6670801Y-933767D01*
X-6497581Y-933767D01*
X-6497580Y-933767D01*
X-6326490Y-906669D01*
X-6161746Y-853140D01*
X-6149481Y-846890D01*
X-6112096Y-843949D01*
X-6092592Y-855901D01*
X-5214754Y-1733742D01*
X-5129128Y-1783178D01*
X-5033630Y-1808766D01*
X-5033630Y-1808767D01*
X-5033627Y-1808767D01*
X-5033626Y-1808767D01*
X-4010024Y-1808767D01*
X-3975376Y-1823119D01*
X-3095373Y-2703121D01*
X-3081022Y-2737768D01*
X-3095374Y-2772416D01*
X-3130022Y-2786768D01*
X-3154521Y-2780204D01*
X-3171705Y-2770283D01*
X-3171707Y-2770282D01*
X-3311713Y-2732767D01*
X-3311716Y-2732767D01*
X-3390543Y-2732767D01*
X-3415043Y-2726202D01*
X-3489250Y-2683357D01*
X-3489253Y-2683356D01*
X-3537004Y-2670562D01*
X-3552921Y-2666297D01*
X-3584753Y-2657767D01*
X-3584755Y-2657767D01*
X-3584756Y-2657767D01*
X-3798069Y-2657767D01*
X-3832717Y-2643415D01*
X-3845399Y-2621449D01*
X-3871469Y-2524150D01*
X-3871473Y-2524140D01*
X-3896996Y-2462522D01*
X-3962822Y-2348510D01*
X-3962830Y-2348497D01*
X-4003417Y-2295603D01*
X-4003428Y-2295591D01*
X-4096515Y-2202504D01*
X-4096527Y-2202493D01*
X-4149421Y-2161906D01*
X-4149436Y-2161896D01*
X-4263446Y-2096072D01*
X-4325064Y-2070549D01*
X-4325070Y-2070547D01*
X-4452225Y-2036474D01*
X-4481649Y-2032600D01*
X-4518365Y-2027767D01*
X-5084191Y-2027767D01*
X-5084196Y-2027767D01*
X-5181965Y-2047215D01*
X-5181966Y-2047215D01*
X-5206969Y-2063921D01*
X-5243751Y-2071237D01*
X-5261413Y-2063921D01*
X-5286415Y-2047215D01*
X-5384185Y-2027767D01*
X-5384191Y-2027767D01*
X-5950017Y-2027767D01*
X-5995068Y-2033698D01*
X-6016156Y-2036474D01*
X-6143311Y-2070547D01*
X-6143317Y-2070549D01*
X-6204935Y-2096072D01*
X-6318945Y-2161896D01*
X-6318960Y-2161906D01*
X-6371854Y-2202493D01*
X-6371866Y-2202504D01*
X-6464953Y-2295591D01*
X-6464964Y-2295603D01*
X-6505551Y-2348497D01*
X-6505560Y-2348510D01*
X-6571385Y-2462522D01*
X-6587953Y-2502519D01*
X-6614472Y-2529037D01*
X-6633223Y-2532767D01*
X-8574691Y-2532767D01*
X-8609339Y-2518415D01*
X-8623691Y-2483767D01*
X-8623691Y-843395D01*
X-8609339Y-808747D01*
X-8596941Y-799739D01*
X-8547403Y-774499D01*
X-8407263Y-672681D01*
X-8407259Y-672677D01*
X-8407256Y-672675D01*
X-8284782Y-550201D01*
X-8284779Y-550197D01*
X-8284777Y-550195D01*
X-8182959Y-410055D01*
X-8182958Y-410053D01*
X-8182955Y-410049D01*
X-8104318Y-255713D01*
X-8050789Y-90968D01*
X-8050788Y-90965D01*
X-8023691Y80122D01*
X-8023691Y253343D01*
X-8050788Y424431D01*
X-8050789Y424434D01*
X-8104318Y589179D01*
X-8182955Y743515D01*
X-8182959Y743521D01*
X-8284777Y883661D01*
X-8284779Y883663D01*
X-8284782Y883667D01*
X-8407256Y1006141D01*
X-8407259Y1006143D01*
X-8407263Y1006147D01*
X-8547403Y1107965D01*
X-8547405Y1107966D01*
X-8547408Y1107968D01*
X-8701744Y1186605D01*
X-8701746Y1186606D01*
X-8866490Y1240135D01*
X-9037580Y1267233D01*
X-9210802Y1267233D01*
X-9381892Y1240135D01*
X-9546636Y1186606D01*
X-9700979Y1107965D01*
X-9841119Y1006147D01*
X-9963605Y883661D01*
X-10065423Y743521D01*
X-10144064Y589178D01*
X-10197593Y424434D01*
X-10215580Y310868D01*
X-10216794Y303203D01*
X-10236389Y271226D01*
X-10272856Y262471D01*
X-10304833Y282066D01*
X-10314191Y310868D01*
X-10314191Y1064567D01*
X-10320592Y1124105D01*
X-10320592Y1124106D01*
X-10370839Y1258824D01*
X-10457002Y1373921D01*
X-10462459Y1378007D01*
X-10481595Y1410260D01*
X-10472320Y1446598D01*
X-10440067Y1465734D01*
X-10433094Y1466233D01*
X11899912Y1466233D01*
X11963050Y1466233D01*
X11968537Y1465925D01*
G37*
%TD.AperFunction*%
%TA.AperFunction,Conductor*%
G36*
X-3774043Y-7285119D02*
G01*
X-3759691Y-7319767D01*
X-3759691Y-7520441D01*
X-3745157Y-7593507D01*
X-3689792Y-7676368D01*
X-3606931Y-7731733D01*
X-3533865Y-7746267D01*
X-3321126Y-7746267D01*
X-2408691Y-7746267D01*
X-2374043Y-7760619D01*
X-2359691Y-7795267D01*
X-2359691Y-7829947D01*
X-2357169Y-7853402D01*
X-2353442Y-7888066D01*
X-2304403Y-8019545D01*
X-2220307Y-8131883D01*
X-2170843Y-8168911D01*
X-2154326Y-8181276D01*
X-2135190Y-8213529D01*
X-2134691Y-8220502D01*
X-2134691Y-9405657D01*
X-2149043Y-9440305D01*
X-2327153Y-9618415D01*
X-2361801Y-9632767D01*
X-3819081Y-9632767D01*
X-3853729Y-9618415D01*
X-4456839Y-9015305D01*
X-4471191Y-8980657D01*
X-4471191Y-8636586D01*
X-4477439Y-8578471D01*
X-4477439Y-8578470D01*
X-4526480Y-8446986D01*
X-4548917Y-8417015D01*
X-4558691Y-8387650D01*
X-4558691Y-7319767D01*
X-4544339Y-7285119D01*
X-4509691Y-7270767D01*
X-3808691Y-7270767D01*
X-3774043Y-7285119D01*
G37*
%TD.AperFunction*%
%TA.AperFunction,Conductor*%
G36*
X-7145048Y-3548119D02*
G01*
X-7130696Y-3582767D01*
X-7145048Y-3617415D01*
X-7155196Y-3625202D01*
X-7272206Y-3692758D01*
X-7374700Y-3795252D01*
X-7383630Y-3810719D01*
X-7447174Y-3920779D01*
X-7447174Y-3920781D01*
X-7447175Y-3920782D01*
X-7452367Y-3940160D01*
X-7484691Y-4060789D01*
X-7484691Y-4205744D01*
X-7474192Y-4244924D01*
X-7447175Y-4345752D01*
X-7447174Y-4345753D01*
X-7447174Y-4345754D01*
X-7438611Y-4360584D01*
X-7374700Y-4471282D01*
X-7299357Y-4546623D01*
X-7286678Y-4568585D01*
X-7284101Y-4578205D01*
X-7234666Y-4663829D01*
X-7234665Y-4663830D01*
X-6099043Y-5799452D01*
X-6084691Y-5834100D01*
X-6084691Y-6020441D01*
X-6070157Y-6093507D01*
X-6050267Y-6123274D01*
X-6042951Y-6160054D01*
X-6063787Y-6191237D01*
X-6100569Y-6198554D01*
X-6103692Y-6197825D01*
X-6240195Y-6161249D01*
X-6240198Y-6161249D01*
X-6385148Y-6161249D01*
X-6385151Y-6161249D01*
X-6525156Y-6198764D01*
X-6525160Y-6198765D01*
X-6632292Y-6260619D01*
X-6650688Y-6271240D01*
X-6753182Y-6373734D01*
X-6764166Y-6392759D01*
X-6825656Y-6499261D01*
X-6825657Y-6499265D01*
X-6863173Y-6639271D01*
X-6863173Y-6784226D01*
X-6849661Y-6834651D01*
X-6825657Y-6924234D01*
X-6753182Y-7049764D01*
X-6684440Y-7118505D01*
X-6671761Y-7140464D01*
X-6662583Y-7174723D01*
X-6613148Y-7260347D01*
X-6613147Y-7260348D01*
X-6272166Y-7601329D01*
X-6202253Y-7671242D01*
X-6116629Y-7720677D01*
X-6068877Y-7733472D01*
X-6040227Y-7741149D01*
X-6021129Y-7746267D01*
X-5358691Y-7746267D01*
X-5324043Y-7760619D01*
X-5309691Y-7795267D01*
X-5309691Y-8146267D01*
X-5324043Y-8180915D01*
X-5358691Y-8195267D01*
X-5605871Y-8195267D01*
X-5663986Y-8201515D01*
X-5663987Y-8201515D01*
X-5663989Y-8201515D01*
X-5663990Y-8201516D01*
X-5795469Y-8250555D01*
X-5795471Y-8250556D01*
X-5814789Y-8265018D01*
X-5907807Y-8334651D01*
X-5975309Y-8424822D01*
X-5990978Y-8445754D01*
X-5991903Y-8446989D01*
X-6040942Y-8578468D01*
X-6040942Y-8578470D01*
X-6040942Y-8578471D01*
X-6047191Y-8636586D01*
X-6047191Y-8980657D01*
X-6061543Y-9015305D01*
X-6064653Y-9018415D01*
X-6099301Y-9032767D01*
X-8606581Y-9032767D01*
X-8641229Y-9018415D01*
X-10019339Y-7640305D01*
X-10033691Y-7605657D01*
X-10033691Y-7180883D01*
X-10019339Y-7146235D01*
X-9984691Y-7131883D01*
X-9960191Y-7138447D01*
X-9946676Y-7146251D01*
X-9806669Y-7183766D01*
X-9806669Y-7183767D01*
X-9806666Y-7183767D01*
X-9661713Y-7183767D01*
X-9555167Y-7155217D01*
X-9521706Y-7146251D01*
X-9521705Y-7146250D01*
X-9521703Y-7146250D01*
X-9434690Y-7096012D01*
X-9396176Y-7073776D01*
X-9345519Y-7023119D01*
X-9310871Y-7008767D01*
X-9145379Y-7008767D01*
X-9110731Y-7023119D01*
X-9035231Y-7098619D01*
X-9020879Y-7133267D01*
X-9035231Y-7167915D01*
X-9112240Y-7244924D01*
X-9112245Y-7244931D01*
X-9169835Y-7357957D01*
X-9169835Y-7357959D01*
X-9169837Y-7357963D01*
X-9184691Y-7451748D01*
X-9184690Y-7814785D01*
X-9169837Y-7908571D01*
X-9162424Y-7923119D01*
X-9112663Y-8020782D01*
X-9112241Y-8021609D01*
X-9022533Y-8111317D01*
X-9022528Y-8111319D01*
X-9022526Y-8111321D01*
X-8953940Y-8146267D01*
X-8909495Y-8168913D01*
X-8815710Y-8183767D01*
X-7535024Y-8183766D01*
X-7500377Y-8198118D01*
X-7499043Y-8199452D01*
X-7484691Y-8234100D01*
X-7484691Y-8305744D01*
X-7469126Y-8363830D01*
X-7447175Y-8445752D01*
X-7374700Y-8571282D01*
X-7272206Y-8673776D01*
X-7146676Y-8746251D01*
X-7076671Y-8765009D01*
X-7006668Y-8783767D01*
X-7006666Y-8783767D01*
X-6861713Y-8783767D01*
X-6756708Y-8755630D01*
X-6721706Y-8746251D01*
X-6721705Y-8746250D01*
X-6721703Y-8746250D01*
X-6642121Y-8700302D01*
X-6596176Y-8673776D01*
X-6493682Y-8571282D01*
X-6445829Y-8488399D01*
X-6421207Y-8445754D01*
X-6421206Y-8445750D01*
X-6383691Y-8305744D01*
X-6383691Y-8160789D01*
X-6383690Y-8160789D01*
X-6421206Y-8020783D01*
X-6421207Y-8020779D01*
X-6493682Y-7895251D01*
X-6596175Y-7792759D01*
X-6596175Y-7792758D01*
X-6721703Y-7720283D01*
X-6721707Y-7720282D01*
X-6861713Y-7682767D01*
X-6861716Y-7682767D01*
X-6933358Y-7682767D01*
X-6968006Y-7668415D01*
X-7119339Y-7517080D01*
X-7133691Y-7482434D01*
X-7133691Y-7451749D01*
X-7148544Y-7357962D01*
X-7206136Y-7244931D01*
X-7206141Y-7244924D01*
X-7283151Y-7167915D01*
X-7297503Y-7133267D01*
X-7283151Y-7098619D01*
X-7206141Y-7021609D01*
X-7206136Y-7021602D01*
X-7148546Y-6908576D01*
X-7148546Y-6908574D01*
X-7148545Y-6908572D01*
X-7148545Y-6908571D01*
X-7133691Y-6814786D01*
X-7133691Y-6638055D01*
X-7133691Y-6451749D01*
X-7148544Y-6357963D01*
X-7206136Y-6244931D01*
X-7206141Y-6244924D01*
X-7283151Y-6167915D01*
X-7297503Y-6133267D01*
X-7283151Y-6098619D01*
X-7206141Y-6021609D01*
X-7206136Y-6021602D01*
X-7148546Y-5908576D01*
X-7148546Y-5908574D01*
X-7148545Y-5908572D01*
X-7148545Y-5908571D01*
X-7133691Y-5814786D01*
X-7133691Y-5645001D01*
X-7133691Y-5451749D01*
X-7148544Y-5357963D01*
X-7206136Y-5244931D01*
X-7206141Y-5244924D01*
X-7295848Y-5155217D01*
X-7295855Y-5155212D01*
X-7408882Y-5097622D01*
X-7408886Y-5097621D01*
X-7408887Y-5097621D01*
X-7502672Y-5082767D01*
X-7502673Y-5082767D01*
X-8815708Y-5082767D01*
X-8909494Y-5097620D01*
X-8967992Y-5127426D01*
X-8990237Y-5132767D01*
X-9984691Y-5132767D01*
X-10019339Y-5118415D01*
X-10033691Y-5083767D01*
X-10033691Y-4860877D01*
X-10019339Y-4826229D01*
X-8741229Y-3548119D01*
X-8706581Y-3533767D01*
X-7179696Y-3533767D01*
X-7145048Y-3548119D01*
G37*
%TD.AperFunction*%
%TA.AperFunction,Conductor*%
G36*
X1697657Y-4860797D02*
G01*
X2000957Y-5164097D01*
X2015309Y-5198745D01*
X2015309Y-5433767D01*
X2000957Y-5468415D01*
X1966309Y-5482767D01*
X1919662Y-5482767D01*
X1830522Y-5506652D01*
X1830519Y-5506653D01*
X1750603Y-5552794D01*
X1750597Y-5552798D01*
X1700357Y-5603037D01*
X1700354Y-5603040D01*
X1685340Y-5618055D01*
X1669791Y-5644984D01*
X1669780Y-5645001D01*
X1639195Y-5697976D01*
X1639194Y-5697980D01*
X1615309Y-5787120D01*
X1615309Y-6670960D01*
X1600957Y-6705608D01*
X1595675Y-6710185D01*
X1579698Y-6722145D01*
X1579692Y-6722152D01*
X1495598Y-6834486D01*
X1446557Y-6965970D01*
X1446556Y-6965972D01*
X1444081Y-6989004D01*
X1426108Y-7021920D01*
X1395362Y-7032767D01*
X649901Y-7032767D01*
X615253Y-7018415D01*
X610684Y-7013143D01*
X551925Y-6934651D01*
X465919Y-6870267D01*
X439589Y-6850556D01*
X439587Y-6850555D01*
X308108Y-6801516D01*
X308107Y-6801515D01*
X308105Y-6801515D01*
X249989Y-6795267D01*
X249983Y-6795267D01*
X-318365Y-6795267D01*
X-318371Y-6795267D01*
X-376486Y-6801515D01*
X-376487Y-6801515D01*
X-376489Y-6801515D01*
X-376490Y-6801516D01*
X-507969Y-6850555D01*
X-507971Y-6850556D01*
X-534301Y-6870267D01*
X-620307Y-6934651D01*
X-665684Y-6995267D01*
X-704402Y-7046987D01*
X-704404Y-7046991D01*
X-733833Y-7125891D01*
X-741044Y-7133636D01*
X-745095Y-7143415D01*
X-753320Y-7146822D01*
X-759388Y-7153339D01*
X-779743Y-7157767D01*
X-862400Y-7157767D01*
X-897048Y-7143415D01*
X-911119Y-7114005D01*
X-914939Y-7078471D01*
X-914939Y-7078470D01*
X-963980Y-6946986D01*
X-1048075Y-6834651D01*
X-1160410Y-6750556D01*
X-1291894Y-6701515D01*
X-1350011Y-6695267D01*
X-1350017Y-6695267D01*
X-1863650Y-6695267D01*
X-1898298Y-6680915D01*
X-1910980Y-6658949D01*
X-1921206Y-6620782D01*
X-1921207Y-6620779D01*
X-1993682Y-6495251D01*
X-2096175Y-6392759D01*
X-2096175Y-6392758D01*
X-2221703Y-6320283D01*
X-2221707Y-6320282D01*
X-2361713Y-6282767D01*
X-2361716Y-6282767D01*
X-2506666Y-6282767D01*
X-2506669Y-6282767D01*
X-2646674Y-6320282D01*
X-2646678Y-6320283D01*
X-2772206Y-6392758D01*
X-2822863Y-6443415D01*
X-2857511Y-6457767D01*
X-2983627Y-6457767D01*
X-2992183Y-6460059D01*
X-2992184Y-6460060D01*
X-3079124Y-6483355D01*
X-3079126Y-6483356D01*
X-3079129Y-6483357D01*
X-3088389Y-6488703D01*
X-3112887Y-6495267D01*
X-3485191Y-6495267D01*
X-3519839Y-6480915D01*
X-3534191Y-6446267D01*
X-3534191Y-5970767D01*
X-3544339Y-5960619D01*
X-3558691Y-5925971D01*
X-3558691Y-5771600D01*
X-3544339Y-5736952D01*
X-3336756Y-5529369D01*
X-3302108Y-5515017D01*
X-3230463Y-5515017D01*
X-3110109Y-5482767D01*
X-3090456Y-5477501D01*
X-3090455Y-5477500D01*
X-3090453Y-5477500D01*
X-3010871Y-5431552D01*
X-2964926Y-5405026D01*
X-2862432Y-5302532D01*
X-2789957Y-5177004D01*
X-2789956Y-5177000D01*
X-2780868Y-5143084D01*
X-2773080Y-5132935D01*
X-2768186Y-5121119D01*
X-2762068Y-5118585D01*
X-2758037Y-5113331D01*
X-2733538Y-5106767D01*
X-2677665Y-5106767D01*
X-2664978Y-5108438D01*
X-2663751Y-5108767D01*
X-2663750Y-5108767D01*
X-2663749Y-5108767D01*
X-1410024Y-5108767D01*
X-1375376Y-5123119D01*
X-774043Y-5724452D01*
X-759691Y-5759100D01*
X-759691Y-6004947D01*
X-757900Y-6021602D01*
X-753442Y-6063066D01*
X-704403Y-6194545D01*
X-620307Y-6306883D01*
X-507969Y-6390979D01*
X-376490Y-6440018D01*
X-357115Y-6442101D01*
X-318371Y-6446267D01*
X-318365Y-6446267D01*
X249989Y-6446267D01*
X284858Y-6442517D01*
X308108Y-6440018D01*
X439587Y-6390979D01*
X551925Y-6306883D01*
X636021Y-6194545D01*
X685060Y-6063066D01*
X689518Y-6021602D01*
X691309Y-6004947D01*
X691309Y-5655587D01*
X705661Y-5620939D01*
X740309Y-5606587D01*
X774957Y-5620939D01*
X827794Y-5673776D01*
X837558Y-5679413D01*
X953321Y-5746250D01*
X953323Y-5746250D01*
X953324Y-5746251D01*
X972182Y-5751304D01*
X1093331Y-5783767D01*
X1093334Y-5783767D01*
X1238286Y-5783767D01*
X1330341Y-5759100D01*
X1378294Y-5746251D01*
X1503824Y-5673776D01*
X1606318Y-5571282D01*
X1678793Y-5445752D01*
X1703187Y-5354714D01*
X1716309Y-5305744D01*
X1716309Y-5160789D01*
X1684648Y-5042633D01*
X1678793Y-5020782D01*
X1675176Y-5014518D01*
X1639502Y-4952729D01*
X1620573Y-4919943D01*
X1615679Y-4882763D01*
X1638509Y-4853010D01*
X1675691Y-4848115D01*
X1697657Y-4860797D01*
G37*
%TD.AperFunction*%
%TA.AperFunction,Conductor*%
G36*
X-5876163Y-6242826D02*
G01*
X-5858865Y-6246267D01*
X-5858864Y-6246267D01*
X-5383191Y-6246267D01*
X-5348543Y-6260619D01*
X-5334191Y-6295267D01*
X-5334191Y-6946267D01*
X-5348543Y-6980915D01*
X-5383191Y-6995267D01*
X-5755829Y-6995267D01*
X-5790477Y-6980915D01*
X-5804829Y-6946267D01*
X-5799846Y-6927648D01*
X-5800919Y-6927204D01*
X-5799688Y-6924232D01*
X-5762173Y-6784226D01*
X-5762173Y-6639271D01*
X-5762172Y-6639271D01*
X-5799688Y-6499265D01*
X-5799689Y-6499261D01*
X-5872163Y-6373735D01*
X-5920365Y-6325533D01*
X-5934716Y-6290885D01*
X-5920364Y-6256236D01*
X-5885716Y-6241885D01*
X-5876163Y-6242826D01*
G37*
%TD.AperFunction*%
%TD*%
%TA.AperFunction,NonConductor*%
G36*
X-2576523Y-3957997D02*
G01*
X-2554934Y-3970462D01*
X-2493314Y-3995986D01*
X-2413129Y-4017472D01*
X-2366156Y-4030059D01*
X-2366152Y-4030059D01*
X-2366147Y-4030061D01*
X-2300017Y-4038767D01*
X-2300013Y-4038767D01*
X-1684191Y-4038767D01*
X-1684185Y-4038766D01*
X-1586416Y-4019319D01*
X-1586333Y-4019263D01*
X-1586233Y-4019243D01*
X-1581958Y-4017472D01*
X-1581605Y-4018322D01*
X-1549551Y-4011945D01*
X-1536391Y-4017396D01*
X-1536388Y-4017387D01*
X-1531932Y-4019231D01*
X-1531931Y-4019233D01*
X-1458865Y-4033767D01*
X-1280312Y-4033767D01*
X-1274195Y-4036300D01*
X-1267633Y-4035436D01*
X-1257483Y-4043223D01*
X-1245664Y-4048119D01*
X-1237877Y-4058265D01*
X-1236419Y-4060792D01*
X-1234665Y-4063830D01*
X-939464Y-4359030D01*
X-925113Y-4393677D01*
X-939465Y-4428325D01*
X-974113Y-4442677D01*
X-1000465Y-4433736D01*
X-1000848Y-4434398D01*
X-1003628Y-4432792D01*
X-1003629Y-4432792D01*
X-1025297Y-4420282D01*
X-1089250Y-4383357D01*
X-1089253Y-4383356D01*
X-1137004Y-4370562D01*
X-1152921Y-4366297D01*
X-1184753Y-4357767D01*
X-1184755Y-4357767D01*
X-1184756Y-4357767D01*
X-2552963Y-4357767D01*
X-2565650Y-4356096D01*
X-2566877Y-4355767D01*
X-2566878Y-4355767D01*
X-2566879Y-4355767D01*
X-2907357Y-4355767D01*
X-2942005Y-4341415D01*
X-2956357Y-4306767D01*
X-2942005Y-4272119D01*
X-2635670Y-3965784D01*
X-2601022Y-3951432D01*
X-2576523Y-3957997D01*
G37*
%TD.AperFunction*%
%TA.AperFunction,NonConductor*%
G36*
X789703Y-3952843D02*
G01*
X1538278Y-4701418D01*
X1552630Y-4736066D01*
X1538278Y-4770714D01*
X1503630Y-4785066D01*
X1479130Y-4778501D01*
X1378296Y-4720283D01*
X1378292Y-4720282D01*
X1238287Y-4682767D01*
X1238284Y-4682767D01*
X1166642Y-4682767D01*
X1131994Y-4668415D01*
X696371Y-4232792D01*
X610749Y-4183357D01*
X610746Y-4183356D01*
X562995Y-4170562D01*
X515247Y-4157767D01*
X515245Y-4157767D01*
X515244Y-4157767D01*
X-58358Y-4157767D01*
X-93006Y-4143415D01*
X-114006Y-4122415D01*
X-128358Y-4087767D01*
X-114006Y-4053119D01*
X-79358Y-4038767D01*
X431631Y-4038767D01*
X431635Y-4038767D01*
X497765Y-4030061D01*
X497770Y-4030059D01*
X497774Y-4030059D01*
X544747Y-4017472D01*
X624932Y-3995986D01*
X686552Y-3970462D01*
X730556Y-3945055D01*
X767736Y-3940160D01*
X789703Y-3952843D01*
G37*
%TD.AperFunction*%
%TA.AperFunction,NonConductor*%
G36*
X-467920Y-4832805D02*
G01*
X-467534Y-4832136D01*
X-464753Y-4833741D01*
X-464753Y-4833742D01*
X-422267Y-4858271D01*
X-379131Y-4883176D01*
X-376164Y-4884405D01*
X-376633Y-4885539D01*
X-350273Y-4905765D01*
X-345376Y-4942947D01*
X-368205Y-4972701D01*
X-375584Y-4976178D01*
X-407740Y-4988171D01*
X-445219Y-4986832D01*
X-459511Y-4976908D01*
X-528912Y-4907507D01*
X-534954Y-4892919D01*
X-542846Y-4879243D01*
X-541971Y-4875980D01*
X-543264Y-4872859D01*
X-537221Y-4858271D01*
X-533131Y-4843020D01*
X-530204Y-4841331D01*
X-528912Y-4838211D01*
X-514324Y-4832168D01*
X-500648Y-4824277D01*
X-497385Y-4825151D01*
X-494264Y-4823859D01*
X-467920Y-4832805D01*
G37*
%TD.AperFunction*%
%TA.AperFunction,NonConductor*%
G36*
X-3841333Y-3605600D02*
G01*
X-3827536Y-3619412D01*
X-3826654Y-3618735D01*
X-3824700Y-3621280D01*
X-3824700Y-3621282D01*
X-3722206Y-3723776D01*
X-3608571Y-3789383D01*
X-3585743Y-3819134D01*
X-3590638Y-3856316D01*
X-3598425Y-3866464D01*
X-4664753Y-4932792D01*
X-4734666Y-5002705D01*
X-4738165Y-5008767D01*
X-4738991Y-5010197D01*
X-4744244Y-5014228D01*
X-4746778Y-5020345D01*
X-4758594Y-5025239D01*
X-4768743Y-5033027D01*
X-4775307Y-5032162D01*
X-4781426Y-5034697D01*
X-4793244Y-5029801D01*
X-4805926Y-5028132D01*
X-4816074Y-5020345D01*
X-4869339Y-4967080D01*
X-4883691Y-4932432D01*
X-4883691Y-4860789D01*
X-4883690Y-4860789D01*
X-4921206Y-4720783D01*
X-4921207Y-4720779D01*
X-4993682Y-4595251D01*
X-5096175Y-4492759D01*
X-5096175Y-4492758D01*
X-5221703Y-4420283D01*
X-5221707Y-4420282D01*
X-5361713Y-4382767D01*
X-5361716Y-4382767D01*
X-5506666Y-4382767D01*
X-5506669Y-4382767D01*
X-5646674Y-4420282D01*
X-5646678Y-4420283D01*
X-5772206Y-4492758D01*
X-5874699Y-4595251D01*
X-5947174Y-4720779D01*
X-5947175Y-4720782D01*
X-5960809Y-4771665D01*
X-5983639Y-4801418D01*
X-6020821Y-4806313D01*
X-6042787Y-4793631D01*
X-6420044Y-4416374D01*
X-6434396Y-4381726D01*
X-6427831Y-4357226D01*
X-6421207Y-4345754D01*
X-6421206Y-4345750D01*
X-6383691Y-4205744D01*
X-6383691Y-4060788D01*
X-6415758Y-3941113D01*
X-6410863Y-3903931D01*
X-6381110Y-3881101D01*
X-6343928Y-3885996D01*
X-6338604Y-3889552D01*
X-6318948Y-3904636D01*
X-6204934Y-3970462D01*
X-6143314Y-3995986D01*
X-6063129Y-4017472D01*
X-6016156Y-4030059D01*
X-6016152Y-4030059D01*
X-6016147Y-4030061D01*
X-5950017Y-4038767D01*
X-5950013Y-4038767D01*
X-5384191Y-4038767D01*
X-5384185Y-4038766D01*
X-5286417Y-4019319D01*
X-5286415Y-4019318D01*
X-5261412Y-4002611D01*
X-5224632Y-3995295D01*
X-5206971Y-4002610D01*
X-5181967Y-4019318D01*
X-5181964Y-4019318D01*
X-5181964Y-4019319D01*
X-5085495Y-4038507D01*
X-5084191Y-4038767D01*
X-4518369Y-4038767D01*
X-4518365Y-4038767D01*
X-4452235Y-4030061D01*
X-4452229Y-4030059D01*
X-4452225Y-4030059D01*
X-4381134Y-4011009D01*
X-4325068Y-3995986D01*
X-4263448Y-3970462D01*
X-4219443Y-3945056D01*
X-4186883Y-3926257D01*
X-4149434Y-3904636D01*
X-4149427Y-3904631D01*
X-4149421Y-3904627D01*
X-4096527Y-3864040D01*
X-4096515Y-3864029D01*
X-4003428Y-3770942D01*
X-4003417Y-3770930D01*
X-3962830Y-3718036D01*
X-3962820Y-3718021D01*
X-3947061Y-3690726D01*
X-3908268Y-3623535D01*
X-3878515Y-3600705D01*
X-3841333Y-3605600D01*
G37*
%TD.AperFunction*%
%TA.AperFunction,NonConductor*%
G36*
X4317951Y-4019263D02*
G01*
X4318034Y-4019319D01*
X4415803Y-4038766D01*
X4415809Y-4038767D01*
X5031630Y-4038767D01*
X5031635Y-4038767D01*
X5059915Y-4035043D01*
X5096137Y-4044749D01*
X5114890Y-4077227D01*
X5115309Y-4083624D01*
X5115309Y-5014518D01*
X5100957Y-5049166D01*
X5066309Y-5063518D01*
X5041809Y-5056953D01*
X4978296Y-5020283D01*
X4978292Y-5020282D01*
X4838287Y-4982767D01*
X4838284Y-4982767D01*
X4693334Y-4982767D01*
X4693331Y-4982767D01*
X4553325Y-5020282D01*
X4553321Y-5020283D01*
X4427787Y-5092761D01*
X4425909Y-5094203D01*
X4389682Y-5103903D01*
X4357208Y-5085144D01*
X4350179Y-5072450D01*
X4336021Y-5034489D01*
X4331374Y-5028282D01*
X4292916Y-4976908D01*
X4251925Y-4922151D01*
X4186079Y-4872859D01*
X4139588Y-4838055D01*
X4139584Y-4838053D01*
X4073185Y-4813287D01*
X4045737Y-4787732D01*
X4041309Y-4767377D01*
X4041309Y-4082767D01*
X4055661Y-4048119D01*
X4090309Y-4033767D01*
X4190483Y-4033767D01*
X4263549Y-4019233D01*
X4263550Y-4019231D01*
X4268006Y-4017387D01*
X4268381Y-4018293D01*
X4273062Y-4017361D01*
X4281169Y-4011945D01*
X4290724Y-4013846D01*
X4300281Y-4011944D01*
X4317951Y-4019263D01*
G37*
%TD.AperFunction*%
%TA.AperFunction,NonConductor*%
G36*
X-9084731Y-6148119D02*
G01*
X-9070379Y-6182767D01*
X-9084731Y-6217415D01*
X-9110731Y-6243415D01*
X-9145379Y-6257767D01*
X-9310871Y-6257767D01*
X-9345519Y-6243415D01*
X-9371519Y-6217415D01*
X-9385871Y-6182767D01*
X-9371519Y-6148119D01*
X-9336871Y-6133767D01*
X-9119379Y-6133767D01*
X-9084731Y-6148119D01*
G37*
%TD.AperFunction*%
%TA.AperFunction,NonConductor*%
G36*
X2399957Y-6363097D02*
G01*
X2541847Y-6504987D01*
X2556199Y-6539635D01*
X2541847Y-6574283D01*
X2507199Y-6588635D01*
X2501962Y-6588354D01*
X2449991Y-6582767D01*
X2449983Y-6582767D01*
X2365309Y-6582767D01*
X2330661Y-6568415D01*
X2316309Y-6533767D01*
X2316309Y-6397745D01*
X2330661Y-6363097D01*
X2365309Y-6348745D01*
X2399957Y-6363097D01*
G37*
%TD.AperFunction*%
%TA.AperFunction,NonConductor*%
G36*
X5899957Y-5198452D02*
G01*
X6565334Y-5863829D01*
X6635247Y-5933742D01*
X6704743Y-5973865D01*
X6704879Y-5973946D01*
X6705556Y-5974845D01*
X6723640Y-5993901D01*
X6737759Y-6021609D01*
X6737760Y-6021610D01*
X6737762Y-6021613D01*
X6765268Y-6049119D01*
X6779620Y-6083767D01*
X6765268Y-6118415D01*
X6730620Y-6132767D01*
X6299913Y-6132767D01*
X6198080Y-6160054D01*
X6193620Y-6161249D01*
X6174025Y-6166499D01*
X6172619Y-6166876D01*
X6058494Y-6232767D01*
X6058494Y-6232768D01*
X5472847Y-6818415D01*
X5438199Y-6832767D01*
X4857725Y-6832767D01*
X4823077Y-6818415D01*
X4808725Y-6783767D01*
X4823077Y-6749119D01*
X4833225Y-6741332D01*
X4837082Y-6739104D01*
X4881021Y-6713737D01*
X5746279Y-5848479D01*
X5792423Y-5768555D01*
X5804366Y-5723983D01*
X5816309Y-5679413D01*
X5816309Y-5233100D01*
X5830661Y-5198452D01*
X5865309Y-5184100D01*
X5899957Y-5198452D01*
G37*
%TD.AperFunction*%
M02*
