%TF.GenerationSoftware,KiCad,Pcbnew,9.0.3*%
%TF.CreationDate,2025-09-10T00:52:23-04:00*%
%TF.ProjectId,IMU-Magnetometer,494d552d-4d61-4676-9e65-746f6d657465,rev?*%
%TF.SameCoordinates,Original*%
%TF.FileFunction,Soldermask,Top*%
%TF.FilePolarity,Negative*%
%FSLAX46Y46*%
G04 Gerber Fmt 4.6, Leading zero omitted, Abs format (unit mm)*
G04 Created by KiCad (PCBNEW 9.0.3) date 2025-09-10 00:52:23*
%MOMM*%
%LPD*%
G01*
G04 APERTURE LIST*
G04 Aperture macros list*
%AMRoundRect*
0 Rectangle with rounded corners*
0 $1 Rounding radius*
0 $2 $3 $4 $5 $6 $7 $8 $9 X,Y pos of 4 corners*
0 Add a 4 corners polygon primitive as box body*
4,1,4,$2,$3,$4,$5,$6,$7,$8,$9,$2,$3,0*
0 Add four circle primitives for the rounded corners*
1,1,$1+$1,$2,$3*
1,1,$1+$1,$4,$5*
1,1,$1+$1,$6,$7*
1,1,$1+$1,$8,$9*
0 Add four rect primitives between the rounded corners*
20,1,$1+$1,$2,$3,$4,$5,0*
20,1,$1+$1,$4,$5,$6,$7,0*
20,1,$1+$1,$6,$7,$8,$9,0*
20,1,$1+$1,$8,$9,$2,$3,0*%
%AMFreePoly0*
4,1,23,0.550000,-0.750000,0.000000,-0.750000,0.000000,-0.745722,-0.065263,-0.745722,-0.191342,-0.711940,-0.304381,-0.646677,-0.396677,-0.554381,-0.461940,-0.441342,-0.495722,-0.315263,-0.495722,-0.250000,-0.500000,-0.250000,-0.500000,0.250000,-0.495722,0.250000,-0.495722,0.315263,-0.461940,0.441342,-0.396677,0.554381,-0.304381,0.646677,-0.191342,0.711940,-0.065263,0.745722,0.000000,0.745722,
0.000000,0.750000,0.550000,0.750000,0.550000,-0.750000,0.550000,-0.750000,$1*%
%AMFreePoly1*
4,1,23,0.000000,0.745722,0.065263,0.745722,0.191342,0.711940,0.304381,0.646677,0.396677,0.554381,0.461940,0.441342,0.495722,0.315263,0.495722,0.250000,0.500000,0.250000,0.500000,-0.250000,0.495722,-0.250000,0.495722,-0.315263,0.461940,-0.441342,0.396677,-0.554381,0.304381,-0.646677,0.191342,-0.711940,0.065263,-0.745722,0.000000,-0.745722,0.000000,-0.750000,-0.550000,-0.750000,
-0.550000,0.750000,0.000000,0.750000,0.000000,0.745722,0.000000,0.745722,$1*%
%AMFreePoly2*
4,1,23,0.500000,-0.750000,0.000000,-0.750000,0.000000,-0.745722,-0.065263,-0.745722,-0.191342,-0.711940,-0.304381,-0.646677,-0.396677,-0.554381,-0.461940,-0.441342,-0.495722,-0.315263,-0.495722,-0.250000,-0.500000,-0.250000,-0.500000,0.250000,-0.495722,0.250000,-0.495722,0.315263,-0.461940,0.441342,-0.396677,0.554381,-0.304381,0.646677,-0.191342,0.711940,-0.065263,0.745722,0.000000,0.745722,
0.000000,0.750000,0.500000,0.750000,0.500000,-0.750000,0.500000,-0.750000,$1*%
%AMFreePoly3*
4,1,23,0.000000,0.745722,0.065263,0.745722,0.191342,0.711940,0.304381,0.646677,0.396677,0.554381,0.461940,0.441342,0.495722,0.315263,0.495722,0.250000,0.500000,0.250000,0.500000,-0.250000,0.495722,-0.250000,0.495722,-0.315263,0.461940,-0.441342,0.396677,-0.554381,0.304381,-0.646677,0.191342,-0.711940,0.065263,-0.745722,0.000000,-0.745722,0.000000,-0.750000,-0.500000,-0.750000,
-0.500000,0.750000,0.000000,0.750000,0.000000,0.745722,0.000000,0.745722,$1*%
G04 Aperture macros list end*
%ADD10C,0.010000*%
%ADD11FreePoly0,180.000000*%
%ADD12R,1.000000X1.500000*%
%ADD13FreePoly1,180.000000*%
%ADD14RoundRect,0.150000X0.625000X-0.150000X0.625000X0.150000X-0.625000X0.150000X-0.625000X-0.150000X0*%
%ADD15RoundRect,0.250000X0.650000X-0.350000X0.650000X0.350000X-0.650000X0.350000X-0.650000X-0.350000X0*%
%ADD16FreePoly2,180.000000*%
%ADD17FreePoly3,180.000000*%
%ADD18C,0.180000*%
%ADD19RoundRect,0.150000X-0.625000X0.150000X-0.625000X-0.150000X0.625000X-0.150000X0.625000X0.150000X0*%
%ADD20RoundRect,0.250000X-0.650000X0.350000X-0.650000X-0.350000X0.650000X-0.350000X0.650000X0.350000X0*%
%ADD21RoundRect,0.237500X-0.300000X-0.237500X0.300000X-0.237500X0.300000X0.237500X-0.300000X0.237500X0*%
%ADD22RoundRect,0.237500X-0.250000X-0.237500X0.250000X-0.237500X0.250000X0.237500X-0.250000X0.237500X0*%
%ADD23RoundRect,0.237500X0.237500X-0.250000X0.237500X0.250000X-0.237500X0.250000X-0.237500X-0.250000X0*%
%ADD24RoundRect,0.237500X0.237500X-0.300000X0.237500X0.300000X-0.237500X0.300000X-0.237500X-0.300000X0*%
%ADD25RoundRect,0.237500X-0.237500X0.300000X-0.237500X-0.300000X0.237500X-0.300000X0.237500X0.300000X0*%
%ADD26R,1.700000X1.700000*%
%ADD27C,1.700000*%
G04 APERTURE END LIST*
%TO.C,JP3*%
G36*
X4415809Y-3783267D02*
G01*
X2915809Y-3783267D01*
X2915809Y-2283267D01*
X4415809Y-2283267D01*
X4415809Y-3783267D01*
G37*
%TO.C,JP1*%
G36*
X-5084191Y-3783267D02*
G01*
X-5384191Y-3783267D01*
X-5384191Y-2283267D01*
X-5084191Y-2283267D01*
X-5084191Y-3783267D01*
G37*
D10*
%TO.C,U1*%
X-5309191Y-6045767D02*
X-5884191Y-6045767D01*
X-5884191Y-5695767D01*
X-5309191Y-5695767D01*
X-5309191Y-6045767D01*
G36*
X-5309191Y-6045767D02*
G01*
X-5884191Y-6045767D01*
X-5884191Y-5695767D01*
X-5309191Y-5695767D01*
X-5309191Y-6045767D01*
G37*
X-5309191Y-6545767D02*
X-5884191Y-6545767D01*
X-5884191Y-6195767D01*
X-5309191Y-6195767D01*
X-5309191Y-6545767D01*
G36*
X-5309191Y-6545767D02*
G01*
X-5884191Y-6545767D01*
X-5884191Y-6195767D01*
X-5309191Y-6195767D01*
X-5309191Y-6545767D01*
G37*
X-5309191Y-7045767D02*
X-5884191Y-7045767D01*
X-5884191Y-6695767D01*
X-5309191Y-6695767D01*
X-5309191Y-7045767D01*
G36*
X-5309191Y-7045767D02*
G01*
X-5884191Y-7045767D01*
X-5884191Y-6695767D01*
X-5309191Y-6695767D01*
X-5309191Y-7045767D01*
G37*
X-5309191Y-7545767D02*
X-5884191Y-7545767D01*
X-5884191Y-7195767D01*
X-5309191Y-7195767D01*
X-5309191Y-7545767D01*
G36*
X-5309191Y-7545767D02*
G01*
X-5884191Y-7545767D01*
X-5884191Y-7195767D01*
X-5309191Y-7195767D01*
X-5309191Y-7545767D01*
G37*
X-4759191Y-5995767D02*
X-5109191Y-5995767D01*
X-5109191Y-5420767D01*
X-4759191Y-5420767D01*
X-4759191Y-5995767D01*
G36*
X-4759191Y-5995767D02*
G01*
X-5109191Y-5995767D01*
X-5109191Y-5420767D01*
X-4759191Y-5420767D01*
X-4759191Y-5995767D01*
G37*
X-4759191Y-7820767D02*
X-5109191Y-7820767D01*
X-5109191Y-7245767D01*
X-4759191Y-7245767D01*
X-4759191Y-7820767D01*
G36*
X-4759191Y-7820767D02*
G01*
X-5109191Y-7820767D01*
X-5109191Y-7245767D01*
X-4759191Y-7245767D01*
X-4759191Y-7820767D01*
G37*
X-4259191Y-5995767D02*
X-4609191Y-5995767D01*
X-4609191Y-5420767D01*
X-4259191Y-5420767D01*
X-4259191Y-5995767D01*
G36*
X-4259191Y-5995767D02*
G01*
X-4609191Y-5995767D01*
X-4609191Y-5420767D01*
X-4259191Y-5420767D01*
X-4259191Y-5995767D01*
G37*
X-4259191Y-7820767D02*
X-4609191Y-7820767D01*
X-4609191Y-7245767D01*
X-4259191Y-7245767D01*
X-4259191Y-7820767D01*
G36*
X-4259191Y-7820767D02*
G01*
X-4609191Y-7820767D01*
X-4609191Y-7245767D01*
X-4259191Y-7245767D01*
X-4259191Y-7820767D01*
G37*
X-3759191Y-5995767D02*
X-4109191Y-5995767D01*
X-4109191Y-5420767D01*
X-3759191Y-5420767D01*
X-3759191Y-5995767D01*
G36*
X-3759191Y-5995767D02*
G01*
X-4109191Y-5995767D01*
X-4109191Y-5420767D01*
X-3759191Y-5420767D01*
X-3759191Y-5995767D01*
G37*
X-3759191Y-7820767D02*
X-4109191Y-7820767D01*
X-4109191Y-7245767D01*
X-3759191Y-7245767D01*
X-3759191Y-7820767D01*
G36*
X-3759191Y-7820767D02*
G01*
X-4109191Y-7820767D01*
X-4109191Y-7245767D01*
X-3759191Y-7245767D01*
X-3759191Y-7820767D01*
G37*
X-2984191Y-6045767D02*
X-3559191Y-6045767D01*
X-3559191Y-5695767D01*
X-2984191Y-5695767D01*
X-2984191Y-6045767D01*
G36*
X-2984191Y-6045767D02*
G01*
X-3559191Y-6045767D01*
X-3559191Y-5695767D01*
X-2984191Y-5695767D01*
X-2984191Y-6045767D01*
G37*
X-2984191Y-6545767D02*
X-3559191Y-6545767D01*
X-3559191Y-6195767D01*
X-2984191Y-6195767D01*
X-2984191Y-6545767D01*
G36*
X-2984191Y-6545767D02*
G01*
X-3559191Y-6545767D01*
X-3559191Y-6195767D01*
X-2984191Y-6195767D01*
X-2984191Y-6545767D01*
G37*
X-2984191Y-7045767D02*
X-3559191Y-7045767D01*
X-3559191Y-6695767D01*
X-2984191Y-6695767D01*
X-2984191Y-7045767D01*
G36*
X-2984191Y-7045767D02*
G01*
X-3559191Y-7045767D01*
X-3559191Y-6695767D01*
X-2984191Y-6695767D01*
X-2984191Y-7045767D01*
G37*
X-2984191Y-7545767D02*
X-3559191Y-7545767D01*
X-3559191Y-7195767D01*
X-2984191Y-7195767D01*
X-2984191Y-7545767D01*
G36*
X-2984191Y-7545767D02*
G01*
X-3559191Y-7545767D01*
X-3559191Y-7195767D01*
X-2984191Y-7195767D01*
X-2984191Y-7545767D01*
G37*
%TO.C,JP2*%
G36*
X-184191Y-3783267D02*
G01*
X-1684191Y-3783267D01*
X-1684191Y-2283267D01*
X-184191Y-2283267D01*
X-184191Y-3783267D01*
G37*
%TD*%
D11*
%TO.C,JP3*%
X4965809Y-3033267D03*
D12*
X3665809Y-3033267D03*
D13*
X2365809Y-3033267D03*
%TD*%
D14*
%TO.C,J3*%
X7690809Y-7633267D03*
X7690809Y-6633267D03*
X7690809Y-5633267D03*
X7690809Y-4633267D03*
D15*
X11565809Y-8933267D03*
X11565809Y-3333267D03*
%TD*%
D16*
%TO.C,JP1*%
X-4584191Y-3033267D03*
D17*
X-5884191Y-3033267D03*
%TD*%
D18*
%TO.C,U2*%
X1965809Y-5433267D03*
X2365809Y-5433267D03*
X1965809Y-5833267D03*
X2365809Y-5833267D03*
%TD*%
D19*
%TO.C,J2*%
X-8159191Y-4633267D03*
X-8159191Y-5633267D03*
X-8159191Y-6633267D03*
X-8159191Y-7633267D03*
D20*
X-12034191Y-3333267D03*
X-12034191Y-8933267D03*
%TD*%
D21*
%TO.C,C1*%
X-5259191Y-8920767D03*
X-3534191Y-8920767D03*
%TD*%
D11*
%TO.C,JP2*%
X365809Y-3033267D03*
D12*
X-934191Y-3033267D03*
D13*
X-2234191Y-3033267D03*
%TD*%
D22*
%TO.C,R2*%
X3653309Y-9133267D03*
X5478309Y-9133267D03*
%TD*%
D23*
%TO.C,R3*%
X3665809Y-7345767D03*
X3665809Y-5520767D03*
%TD*%
%TO.C,R1*%
X-34191Y-7533267D03*
X-34191Y-5708267D03*
%TD*%
D24*
%TO.C,C3*%
X-1634191Y-7483267D03*
X-1634191Y-5758267D03*
%TD*%
D25*
%TO.C,C2*%
X2165809Y-7370767D03*
X2165809Y-9095767D03*
%TD*%
D26*
%TO.C,J1*%
X-11664191Y166733D03*
D27*
X-9124191Y166733D03*
X-6584191Y166733D03*
X-4044191Y166733D03*
X-1504191Y166733D03*
X1035809Y166733D03*
X3575809Y166733D03*
X6115809Y166733D03*
X8655809Y166733D03*
X11195809Y166733D03*
%TD*%
M02*
