%TF.GenerationSoftware,KiCad,Pcbnew,9.0.3*%
%TF.CreationDate,2025-09-10T00:52:23-04:00*%
%TF.ProjectId,IMU-Magnetometer,494d552d-4d61-4676-9e65-746f6d657465,rev?*%
%TF.SameCoordinates,Original*%
%TF.FileFunction,Legend,Top*%
%TF.FilePolarity,Positive*%
%FSLAX46Y46*%
G04 Gerber Fmt 4.6, Leading zero omitted, Abs format (unit mm)*
G04 Created by KiCad (PCBNEW 9.0.3) date 2025-09-10 00:52:23*
%MOMM*%
%LPD*%
G01*
G04 APERTURE LIST*
%ADD10C,0.150000*%
%ADD11C,0.120000*%
%ADD12C,0.170000*%
%ADD13C,0.100000*%
%ADD14C,0.127000*%
%ADD15C,0.200000*%
G04 APERTURE END LIST*
D10*
G36*
X9254873Y-2292622D02*
G01*
X9269505Y-2294063D01*
X9332752Y-2294063D01*
X9386982Y-2321178D01*
X9412249Y-2346444D01*
X9327686Y-2346444D01*
X9273456Y-2319329D01*
X9241004Y-2286877D01*
X9254873Y-2292622D01*
G37*
G36*
X9508411Y-1673559D02*
G01*
X9566068Y-1731215D01*
X9599267Y-1864010D01*
X9599267Y-2128876D01*
X9566068Y-2261671D01*
X9552838Y-2274901D01*
X9484443Y-2206506D01*
X9478693Y-2201787D01*
X9477394Y-2200289D01*
X9475134Y-2198867D01*
X9473078Y-2197179D01*
X9471250Y-2196421D01*
X9464951Y-2192457D01*
X9383998Y-2151981D01*
X9370266Y-2146726D01*
X9367578Y-2146535D01*
X9365089Y-2145504D01*
X9350457Y-2144063D01*
X9269505Y-2144063D01*
X9254873Y-2145504D01*
X9227837Y-2156703D01*
X9207145Y-2177395D01*
X9199402Y-2196086D01*
X9182600Y-2128876D01*
X9182600Y-1864010D01*
X9215798Y-1731215D01*
X9273455Y-1673559D01*
X9327686Y-1646444D01*
X9454181Y-1646444D01*
X9508411Y-1673559D01*
G37*
G36*
X12473223Y-2671251D02*
G01*
X8938156Y-2671251D01*
X8938156Y-1854777D01*
X9032600Y-1854777D01*
X9032600Y-2138110D01*
X9032851Y-2140663D01*
X9032689Y-2141755D01*
X9033497Y-2147227D01*
X9034041Y-2152742D01*
X9034464Y-2153763D01*
X9034839Y-2156300D01*
X9075315Y-2318205D01*
X9080262Y-2332051D01*
X9083582Y-2336532D01*
X9085716Y-2341683D01*
X9095043Y-2353048D01*
X9175996Y-2434001D01*
X9181746Y-2438721D01*
X9183045Y-2440218D01*
X9185299Y-2441637D01*
X9187361Y-2443329D01*
X9189193Y-2444087D01*
X9195488Y-2448050D01*
X9276440Y-2488526D01*
X9290172Y-2493781D01*
X9292859Y-2493971D01*
X9295349Y-2495003D01*
X9309981Y-2496444D01*
X9471886Y-2496444D01*
X9486518Y-2495003D01*
X9489007Y-2493971D01*
X9491695Y-2493781D01*
X9505427Y-2488526D01*
X9538029Y-2472224D01*
X9580758Y-2514953D01*
X9586507Y-2519671D01*
X9587807Y-2521170D01*
X9590065Y-2522591D01*
X9592124Y-2524281D01*
X9593953Y-2525038D01*
X9600250Y-2529002D01*
X9681202Y-2569478D01*
X9694934Y-2574733D01*
X9724124Y-2576807D01*
X9751885Y-2567553D01*
X9773992Y-2548380D01*
X9787080Y-2522205D01*
X9789154Y-2493015D01*
X9779900Y-2465254D01*
X9760727Y-2443146D01*
X9748284Y-2435314D01*
X9678217Y-2400280D01*
X9658904Y-2380967D01*
X9686824Y-2353048D01*
X9696152Y-2341683D01*
X9698286Y-2336529D01*
X9701605Y-2332051D01*
X9706552Y-2318205D01*
X9747028Y-2156300D01*
X9747403Y-2153762D01*
X9747826Y-2152742D01*
X9748367Y-2147239D01*
X9749179Y-2141755D01*
X9749015Y-2140659D01*
X9749267Y-2138110D01*
X9749267Y-1854777D01*
X9749015Y-1852227D01*
X9749179Y-1851132D01*
X9748367Y-1845647D01*
X9747826Y-1840145D01*
X9747403Y-1839124D01*
X9747028Y-1836587D01*
X9706552Y-1674682D01*
X9701605Y-1660836D01*
X9698284Y-1656355D01*
X9696151Y-1651204D01*
X9686824Y-1639839D01*
X9621232Y-1574248D01*
X9882652Y-1574248D01*
X9884640Y-1588816D01*
X10087021Y-2438816D01*
X10088750Y-2443835D01*
X10088990Y-2445637D01*
X10089932Y-2447265D01*
X10091811Y-2452716D01*
X10098197Y-2461540D01*
X10103652Y-2470962D01*
X10106709Y-2473302D01*
X10108968Y-2476423D01*
X10118243Y-2482130D01*
X10126890Y-2488749D01*
X10130610Y-2489741D01*
X10133890Y-2491759D01*
X10144644Y-2493483D01*
X10155166Y-2496289D01*
X10158981Y-2495782D01*
X10162785Y-2496392D01*
X10173383Y-2493868D01*
X10184174Y-2492435D01*
X10187505Y-2490506D01*
X10191253Y-2489614D01*
X10200077Y-2483227D01*
X10209499Y-2477773D01*
X10211839Y-2474715D01*
X10214960Y-2472457D01*
X10220667Y-2463181D01*
X10227286Y-2454535D01*
X10229311Y-2449135D01*
X10230296Y-2447535D01*
X10230583Y-2445743D01*
X10232449Y-2440769D01*
X10321885Y-2105380D01*
X10411323Y-2440769D01*
X10413188Y-2445744D01*
X10413476Y-2447535D01*
X10414460Y-2449134D01*
X10416486Y-2454536D01*
X10423106Y-2463184D01*
X10428812Y-2472457D01*
X10431932Y-2474715D01*
X10434273Y-2477773D01*
X10443694Y-2483227D01*
X10452519Y-2489614D01*
X10456266Y-2490506D01*
X10459598Y-2492435D01*
X10470391Y-2493869D01*
X10480987Y-2496392D01*
X10484788Y-2495782D01*
X10488607Y-2496290D01*
X10499134Y-2493482D01*
X10509882Y-2491759D01*
X10513160Y-2489741D01*
X10516882Y-2488749D01*
X10525528Y-2482130D01*
X10534804Y-2476423D01*
X10537062Y-2473302D01*
X10540120Y-2470962D01*
X10545575Y-2461539D01*
X10551961Y-2452716D01*
X10553838Y-2447267D01*
X10554782Y-2445638D01*
X10555021Y-2443834D01*
X10556751Y-2438816D01*
X10759132Y-1588815D01*
X10761120Y-1574248D01*
X10760670Y-1571444D01*
X10934981Y-1571444D01*
X10934981Y-2421444D01*
X10936422Y-2436076D01*
X10947621Y-2463112D01*
X10968313Y-2483804D01*
X10995349Y-2495003D01*
X11024613Y-2495003D01*
X11051649Y-2483804D01*
X11072341Y-2463112D01*
X11083540Y-2436076D01*
X11084981Y-2421444D01*
X11084981Y-1571444D01*
X11339743Y-1571444D01*
X11339743Y-2421444D01*
X11341184Y-2436076D01*
X11352383Y-2463112D01*
X11373075Y-2483804D01*
X11400111Y-2495003D01*
X11429375Y-2495003D01*
X11456411Y-2483804D01*
X11477103Y-2463112D01*
X11488302Y-2436076D01*
X11489743Y-2421444D01*
X11489743Y-1935729D01*
X11704029Y-1935729D01*
X11704029Y-2057158D01*
X11704280Y-2059711D01*
X11704118Y-2060803D01*
X11704926Y-2066275D01*
X11705470Y-2071790D01*
X11705893Y-2072811D01*
X11706268Y-2075348D01*
X11746744Y-2237253D01*
X11747129Y-2238332D01*
X11747168Y-2238873D01*
X11749500Y-2244968D01*
X11751691Y-2251099D01*
X11752012Y-2251533D01*
X11752423Y-2252605D01*
X11792901Y-2333557D01*
X11796862Y-2339850D01*
X11797621Y-2341682D01*
X11799312Y-2343742D01*
X11800733Y-2346000D01*
X11802230Y-2347298D01*
X11806949Y-2353048D01*
X11887901Y-2434001D01*
X11899266Y-2443328D01*
X11901756Y-2444359D01*
X11903792Y-2446125D01*
X11917217Y-2452119D01*
X12038646Y-2492595D01*
X12045899Y-2494244D01*
X12047731Y-2495003D01*
X12050385Y-2495264D01*
X12052983Y-2495855D01*
X12054957Y-2495714D01*
X12062363Y-2496444D01*
X12143315Y-2496444D01*
X12150720Y-2495714D01*
X12152695Y-2495855D01*
X12155292Y-2495264D01*
X12157947Y-2495003D01*
X12159778Y-2494244D01*
X12167032Y-2492595D01*
X12288461Y-2452119D01*
X12301886Y-2446125D01*
X12303921Y-2444359D01*
X12306412Y-2443328D01*
X12317778Y-2434000D01*
X12358253Y-2393524D01*
X12367581Y-2382158D01*
X12378779Y-2355122D01*
X12378778Y-2325859D01*
X12367580Y-2298823D01*
X12346887Y-2278130D01*
X12319850Y-2266932D01*
X12290587Y-2266933D01*
X12263551Y-2278131D01*
X12252186Y-2287459D01*
X12224229Y-2315416D01*
X12131145Y-2346444D01*
X12074533Y-2346444D01*
X11981448Y-2315416D01*
X11921620Y-2255588D01*
X11890268Y-2192884D01*
X11854029Y-2047924D01*
X11854029Y-1944963D01*
X11890269Y-1800001D01*
X11921621Y-1737298D01*
X11981447Y-1677472D01*
X12074533Y-1646444D01*
X12131145Y-1646444D01*
X12224230Y-1677472D01*
X12252187Y-1705429D01*
X12263553Y-1714757D01*
X12290589Y-1725955D01*
X12319852Y-1725955D01*
X12346888Y-1714757D01*
X12367581Y-1694064D01*
X12378779Y-1667028D01*
X12378779Y-1637765D01*
X12367581Y-1610729D01*
X12358253Y-1599363D01*
X12317777Y-1558887D01*
X12306412Y-1549560D01*
X12303921Y-1548528D01*
X12301886Y-1546763D01*
X12288461Y-1540769D01*
X12167032Y-1500293D01*
X12159778Y-1498643D01*
X12157947Y-1497885D01*
X12155292Y-1497623D01*
X12152695Y-1497033D01*
X12150720Y-1497173D01*
X12143315Y-1496444D01*
X12062363Y-1496444D01*
X12054957Y-1497173D01*
X12052983Y-1497033D01*
X12050385Y-1497623D01*
X12047731Y-1497885D01*
X12045899Y-1498643D01*
X12038646Y-1500293D01*
X11917217Y-1540769D01*
X11903792Y-1546763D01*
X11901756Y-1548528D01*
X11899266Y-1549560D01*
X11887901Y-1558887D01*
X11806949Y-1639839D01*
X11802230Y-1645588D01*
X11800732Y-1646888D01*
X11799310Y-1649147D01*
X11797622Y-1651204D01*
X11796864Y-1653031D01*
X11792900Y-1659331D01*
X11752423Y-1740284D01*
X11752013Y-1741353D01*
X11751691Y-1741789D01*
X11749498Y-1747925D01*
X11747168Y-1754015D01*
X11747129Y-1754555D01*
X11746744Y-1755635D01*
X11706268Y-1917539D01*
X11705892Y-1920075D01*
X11705470Y-1921097D01*
X11704927Y-1926609D01*
X11704118Y-1932083D01*
X11704280Y-1933175D01*
X11704029Y-1935729D01*
X11489743Y-1935729D01*
X11489743Y-1571444D01*
X11488302Y-1556812D01*
X11477103Y-1529776D01*
X11456411Y-1509084D01*
X11429375Y-1497885D01*
X11400111Y-1497885D01*
X11373075Y-1509084D01*
X11352383Y-1529776D01*
X11341184Y-1556812D01*
X11339743Y-1571444D01*
X11084981Y-1571444D01*
X11083540Y-1556812D01*
X11072341Y-1529776D01*
X11051649Y-1509084D01*
X11024613Y-1497885D01*
X10995349Y-1497885D01*
X10968313Y-1509084D01*
X10947621Y-1529776D01*
X10936422Y-1556812D01*
X10934981Y-1571444D01*
X10760670Y-1571444D01*
X10756487Y-1545353D01*
X10741151Y-1520431D01*
X10717444Y-1503274D01*
X10688976Y-1496496D01*
X10660081Y-1501129D01*
X10635159Y-1516465D01*
X10618002Y-1540172D01*
X10613212Y-1554072D01*
X10479674Y-2114928D01*
X10394354Y-1794976D01*
X10393068Y-1791548D01*
X10392877Y-1790107D01*
X10391885Y-1788394D01*
X10389191Y-1781210D01*
X10383176Y-1773351D01*
X10378215Y-1764783D01*
X10374357Y-1761829D01*
X10371404Y-1757972D01*
X10362836Y-1753011D01*
X10354977Y-1746996D01*
X10350283Y-1745744D01*
X10346079Y-1743310D01*
X10336269Y-1742006D01*
X10326702Y-1739455D01*
X10321883Y-1740095D01*
X10317071Y-1739456D01*
X10307510Y-1742005D01*
X10297693Y-1743310D01*
X10293487Y-1745744D01*
X10288795Y-1746996D01*
X10280935Y-1753011D01*
X10272368Y-1757972D01*
X10269414Y-1761830D01*
X10265557Y-1764783D01*
X10260598Y-1773348D01*
X10254581Y-1781209D01*
X10251884Y-1788398D01*
X10250895Y-1790108D01*
X10250703Y-1791547D01*
X10249418Y-1794976D01*
X10164097Y-2114928D01*
X10030560Y-1554072D01*
X10025770Y-1540172D01*
X10008613Y-1516465D01*
X9983691Y-1501129D01*
X9954796Y-1496496D01*
X9926328Y-1503274D01*
X9902621Y-1520431D01*
X9887285Y-1545353D01*
X9882652Y-1574248D01*
X9621232Y-1574248D01*
X9605871Y-1558887D01*
X9600121Y-1554168D01*
X9598822Y-1552670D01*
X9596563Y-1551248D01*
X9594505Y-1549559D01*
X9592675Y-1548801D01*
X9586379Y-1544838D01*
X9505427Y-1504362D01*
X9491695Y-1499107D01*
X9489007Y-1498916D01*
X9486518Y-1497885D01*
X9471886Y-1496444D01*
X9309981Y-1496444D01*
X9295349Y-1497885D01*
X9292859Y-1498916D01*
X9290172Y-1499107D01*
X9276440Y-1504362D01*
X9195488Y-1544838D01*
X9189191Y-1548801D01*
X9187362Y-1549559D01*
X9185303Y-1551248D01*
X9183045Y-1552670D01*
X9181745Y-1554168D01*
X9175996Y-1558887D01*
X9095043Y-1639839D01*
X9085716Y-1651204D01*
X9083582Y-1656354D01*
X9080262Y-1660836D01*
X9075315Y-1674682D01*
X9034839Y-1836587D01*
X9034464Y-1839123D01*
X9034041Y-1840145D01*
X9033497Y-1845659D01*
X9032689Y-1851132D01*
X9032851Y-1852223D01*
X9032600Y-1854777D01*
X8938156Y-1854777D01*
X8938156Y-1402000D01*
X12473223Y-1402000D01*
X12473223Y-2671251D01*
G37*
G36*
X-12626329Y-2292622D02*
G01*
X-12611697Y-2294063D01*
X-12548450Y-2294063D01*
X-12494219Y-2321178D01*
X-12468953Y-2346444D01*
X-12553516Y-2346444D01*
X-12607746Y-2319329D01*
X-12640197Y-2286877D01*
X-12626329Y-2292622D01*
G37*
G36*
X-12372790Y-1673559D02*
G01*
X-12315133Y-1731215D01*
X-12281935Y-1864010D01*
X-12281935Y-2128876D01*
X-12315133Y-2261671D01*
X-12328363Y-2274901D01*
X-12396759Y-2206506D01*
X-12402508Y-2201787D01*
X-12403808Y-2200289D01*
X-12406067Y-2198867D01*
X-12408124Y-2197179D01*
X-12409951Y-2196421D01*
X-12416251Y-2192457D01*
X-12497204Y-2151981D01*
X-12510936Y-2146726D01*
X-12513623Y-2146535D01*
X-12516113Y-2145504D01*
X-12530745Y-2144063D01*
X-12611697Y-2144063D01*
X-12626329Y-2145504D01*
X-12653365Y-2156703D01*
X-12674057Y-2177395D01*
X-12681799Y-2196086D01*
X-12698602Y-2128876D01*
X-12698602Y-1864010D01*
X-12665403Y-1731215D01*
X-12607746Y-1673559D01*
X-12553516Y-1646444D01*
X-12427021Y-1646444D01*
X-12372790Y-1673559D01*
G37*
G36*
X-9407979Y-2671251D02*
G01*
X-12943046Y-2671251D01*
X-12943046Y-1854777D01*
X-12848602Y-1854777D01*
X-12848602Y-2138110D01*
X-12848350Y-2140663D01*
X-12848513Y-2141755D01*
X-12847704Y-2147227D01*
X-12847161Y-2152742D01*
X-12846737Y-2153763D01*
X-12846363Y-2156300D01*
X-12805887Y-2318205D01*
X-12800940Y-2332051D01*
X-12797619Y-2336532D01*
X-12795486Y-2341683D01*
X-12786159Y-2353048D01*
X-12705206Y-2434001D01*
X-12699455Y-2438721D01*
X-12698157Y-2440218D01*
X-12695902Y-2441637D01*
X-12693841Y-2443329D01*
X-12692008Y-2444087D01*
X-12685714Y-2448050D01*
X-12604762Y-2488526D01*
X-12591030Y-2493781D01*
X-12588342Y-2493971D01*
X-12585853Y-2495003D01*
X-12571221Y-2496444D01*
X-12409316Y-2496444D01*
X-12394684Y-2495003D01*
X-12392194Y-2493971D01*
X-12389507Y-2493781D01*
X-12375775Y-2488526D01*
X-12343172Y-2472224D01*
X-12300444Y-2514953D01*
X-12294694Y-2519671D01*
X-12293395Y-2521170D01*
X-12291136Y-2522591D01*
X-12289078Y-2524281D01*
X-12287248Y-2525038D01*
X-12280952Y-2529002D01*
X-12200000Y-2569478D01*
X-12186268Y-2574733D01*
X-12157078Y-2576807D01*
X-12129317Y-2567553D01*
X-12107210Y-2548380D01*
X-12094122Y-2522205D01*
X-12092048Y-2493015D01*
X-12101302Y-2465254D01*
X-12120475Y-2443146D01*
X-12132918Y-2435314D01*
X-12202984Y-2400280D01*
X-12222297Y-2380967D01*
X-12194378Y-2353048D01*
X-12185050Y-2341683D01*
X-12182915Y-2336529D01*
X-12179597Y-2332051D01*
X-12174650Y-2318205D01*
X-12134174Y-2156300D01*
X-12133798Y-2153762D01*
X-12133376Y-2152742D01*
X-12132834Y-2147239D01*
X-12132023Y-2141755D01*
X-12132186Y-2140659D01*
X-12131935Y-2138110D01*
X-12131935Y-1854777D01*
X-12132186Y-1852227D01*
X-12132023Y-1851132D01*
X-12132834Y-1845647D01*
X-12133376Y-1840145D01*
X-12133798Y-1839124D01*
X-12134174Y-1836587D01*
X-12174650Y-1674682D01*
X-12179597Y-1660836D01*
X-12182917Y-1656355D01*
X-12185051Y-1651204D01*
X-12194378Y-1639839D01*
X-12259970Y-1574248D01*
X-11998550Y-1574248D01*
X-11996562Y-1588816D01*
X-11794181Y-2438816D01*
X-11792451Y-2443835D01*
X-11792212Y-2445637D01*
X-11791269Y-2447265D01*
X-11789391Y-2452716D01*
X-11783004Y-2461540D01*
X-11777550Y-2470962D01*
X-11774492Y-2473302D01*
X-11772234Y-2476423D01*
X-11762958Y-2482130D01*
X-11754312Y-2488749D01*
X-11750591Y-2489741D01*
X-11747312Y-2491759D01*
X-11736557Y-2493483D01*
X-11726036Y-2496289D01*
X-11722220Y-2495782D01*
X-11718417Y-2496392D01*
X-11707818Y-2493868D01*
X-11697028Y-2492435D01*
X-11693696Y-2490506D01*
X-11689949Y-2489614D01*
X-11681124Y-2483227D01*
X-11671703Y-2477773D01*
X-11669362Y-2474715D01*
X-11666242Y-2472457D01*
X-11660534Y-2463181D01*
X-11653916Y-2454535D01*
X-11651890Y-2449135D01*
X-11650906Y-2447535D01*
X-11650618Y-2445743D01*
X-11648753Y-2440769D01*
X-11559316Y-2105380D01*
X-11469879Y-2440769D01*
X-11468013Y-2445744D01*
X-11467726Y-2447535D01*
X-11466741Y-2449134D01*
X-11464716Y-2454536D01*
X-11458095Y-2463184D01*
X-11452390Y-2472457D01*
X-11449269Y-2474715D01*
X-11446929Y-2477773D01*
X-11437507Y-2483227D01*
X-11428683Y-2489614D01*
X-11424935Y-2490506D01*
X-11421604Y-2492435D01*
X-11410810Y-2493869D01*
X-11400215Y-2496392D01*
X-11396413Y-2495782D01*
X-11392595Y-2496290D01*
X-11382067Y-2493482D01*
X-11371320Y-2491759D01*
X-11368041Y-2489741D01*
X-11364320Y-2488749D01*
X-11355673Y-2482130D01*
X-11346398Y-2476423D01*
X-11344139Y-2473302D01*
X-11341082Y-2470962D01*
X-11335626Y-2461539D01*
X-11329241Y-2452716D01*
X-11327363Y-2447267D01*
X-11326420Y-2445638D01*
X-11326180Y-2443833D01*
X-11324451Y-2438815D01*
X-11122070Y-1588815D01*
X-11120083Y-1574247D01*
X-11120532Y-1571444D01*
X-10946221Y-1571444D01*
X-10946221Y-2421444D01*
X-10944780Y-2436076D01*
X-10933581Y-2463112D01*
X-10912889Y-2483804D01*
X-10885853Y-2495003D01*
X-10856589Y-2495003D01*
X-10829553Y-2483804D01*
X-10808861Y-2463112D01*
X-10797662Y-2436076D01*
X-10796221Y-2421444D01*
X-10796221Y-1571444D01*
X-10541459Y-1571444D01*
X-10541459Y-2421444D01*
X-10540018Y-2436076D01*
X-10528819Y-2463112D01*
X-10508127Y-2483804D01*
X-10481091Y-2495003D01*
X-10451827Y-2495003D01*
X-10424791Y-2483804D01*
X-10404099Y-2463112D01*
X-10392900Y-2436076D01*
X-10391459Y-2421444D01*
X-10391459Y-1935729D01*
X-10177173Y-1935729D01*
X-10177173Y-2057158D01*
X-10176921Y-2059711D01*
X-10177084Y-2060803D01*
X-10176275Y-2066275D01*
X-10175732Y-2071790D01*
X-10175308Y-2072811D01*
X-10174934Y-2075348D01*
X-10134458Y-2237253D01*
X-10134072Y-2238332D01*
X-10134034Y-2238873D01*
X-10131701Y-2244968D01*
X-10129511Y-2251099D01*
X-10129189Y-2251533D01*
X-10128779Y-2252605D01*
X-10088301Y-2333557D01*
X-10084339Y-2339850D01*
X-10083581Y-2341682D01*
X-10081889Y-2343742D01*
X-10080469Y-2346000D01*
X-10078971Y-2347298D01*
X-10074253Y-2353048D01*
X-9993301Y-2434001D01*
X-9981936Y-2443328D01*
X-9979445Y-2444359D01*
X-9977410Y-2446125D01*
X-9963985Y-2452119D01*
X-9842556Y-2492595D01*
X-9835302Y-2494244D01*
X-9833471Y-2495003D01*
X-9830816Y-2495264D01*
X-9828219Y-2495855D01*
X-9826244Y-2495714D01*
X-9818839Y-2496444D01*
X-9737887Y-2496444D01*
X-9730481Y-2495714D01*
X-9728507Y-2495855D01*
X-9725909Y-2495264D01*
X-9723255Y-2495003D01*
X-9721423Y-2494244D01*
X-9714170Y-2492595D01*
X-9592741Y-2452119D01*
X-9579316Y-2446125D01*
X-9577280Y-2444359D01*
X-9574790Y-2443328D01*
X-9563424Y-2434000D01*
X-9522949Y-2393524D01*
X-9513621Y-2382158D01*
X-9502423Y-2355122D01*
X-9502424Y-2325859D01*
X-9513622Y-2298823D01*
X-9534315Y-2278130D01*
X-9561352Y-2266932D01*
X-9590615Y-2266933D01*
X-9617651Y-2278131D01*
X-9629016Y-2287459D01*
X-9656972Y-2315416D01*
X-9750057Y-2346444D01*
X-9806669Y-2346444D01*
X-9899753Y-2315416D01*
X-9959581Y-2255588D01*
X-9990933Y-2192884D01*
X-10027173Y-2047924D01*
X-10027173Y-1944963D01*
X-9990932Y-1800001D01*
X-9959580Y-1737298D01*
X-9899754Y-1677472D01*
X-9806669Y-1646444D01*
X-9750057Y-1646444D01*
X-9656971Y-1677472D01*
X-9629015Y-1705429D01*
X-9617649Y-1714757D01*
X-9590613Y-1725955D01*
X-9561350Y-1725955D01*
X-9534314Y-1714757D01*
X-9513621Y-1694064D01*
X-9502423Y-1667028D01*
X-9502423Y-1637765D01*
X-9513621Y-1610729D01*
X-9522949Y-1599363D01*
X-9563425Y-1558887D01*
X-9574790Y-1549560D01*
X-9577280Y-1548528D01*
X-9579316Y-1546763D01*
X-9592741Y-1540769D01*
X-9714170Y-1500293D01*
X-9721423Y-1498643D01*
X-9723255Y-1497885D01*
X-9725909Y-1497623D01*
X-9728507Y-1497033D01*
X-9730481Y-1497173D01*
X-9737887Y-1496444D01*
X-9818839Y-1496444D01*
X-9826244Y-1497173D01*
X-9828219Y-1497033D01*
X-9830816Y-1497623D01*
X-9833471Y-1497885D01*
X-9835302Y-1498643D01*
X-9842556Y-1500293D01*
X-9963985Y-1540769D01*
X-9977410Y-1546763D01*
X-9979445Y-1548528D01*
X-9981936Y-1549560D01*
X-9993301Y-1558887D01*
X-10074253Y-1639839D01*
X-10078971Y-1645588D01*
X-10080470Y-1646888D01*
X-10081891Y-1649147D01*
X-10083580Y-1651204D01*
X-10084337Y-1653031D01*
X-10088302Y-1659331D01*
X-10128779Y-1740284D01*
X-10129188Y-1741353D01*
X-10129511Y-1741789D01*
X-10131703Y-1747925D01*
X-10134034Y-1754015D01*
X-10134072Y-1754555D01*
X-10134458Y-1755635D01*
X-10174934Y-1917539D01*
X-10175309Y-1920075D01*
X-10175732Y-1921097D01*
X-10176274Y-1926609D01*
X-10177084Y-1932083D01*
X-10176921Y-1933175D01*
X-10177173Y-1935729D01*
X-10391459Y-1935729D01*
X-10391459Y-1571444D01*
X-10392900Y-1556812D01*
X-10404099Y-1529776D01*
X-10424791Y-1509084D01*
X-10451827Y-1497885D01*
X-10481091Y-1497885D01*
X-10508127Y-1509084D01*
X-10528819Y-1529776D01*
X-10540018Y-1556812D01*
X-10541459Y-1571444D01*
X-10796221Y-1571444D01*
X-10797662Y-1556812D01*
X-10808861Y-1529776D01*
X-10829553Y-1509084D01*
X-10856589Y-1497885D01*
X-10885853Y-1497885D01*
X-10912889Y-1509084D01*
X-10933581Y-1529776D01*
X-10944780Y-1556812D01*
X-10946221Y-1571444D01*
X-11120532Y-1571444D01*
X-11124716Y-1545353D01*
X-11140052Y-1520431D01*
X-11163759Y-1503274D01*
X-11192227Y-1496496D01*
X-11221122Y-1501128D01*
X-11246044Y-1516465D01*
X-11263201Y-1540172D01*
X-11267991Y-1554072D01*
X-11401527Y-2114928D01*
X-11486848Y-1794976D01*
X-11488133Y-1791548D01*
X-11488325Y-1790107D01*
X-11489316Y-1788394D01*
X-11492011Y-1781210D01*
X-11498025Y-1773351D01*
X-11502987Y-1764783D01*
X-11506844Y-1761829D01*
X-11509798Y-1757972D01*
X-11518365Y-1753011D01*
X-11526225Y-1746996D01*
X-11530918Y-1745744D01*
X-11535123Y-1743310D01*
X-11544932Y-1742006D01*
X-11554500Y-1739455D01*
X-11559318Y-1740095D01*
X-11564131Y-1739456D01*
X-11573691Y-1742005D01*
X-11583509Y-1743310D01*
X-11587714Y-1745744D01*
X-11592407Y-1746996D01*
X-11600266Y-1753011D01*
X-11608834Y-1757972D01*
X-11611787Y-1761830D01*
X-11615645Y-1764783D01*
X-11620603Y-1773348D01*
X-11626621Y-1781209D01*
X-11629317Y-1788398D01*
X-11630307Y-1790108D01*
X-11630498Y-1791547D01*
X-11631784Y-1794976D01*
X-11717104Y-2114928D01*
X-11850642Y-1554072D01*
X-11855432Y-1540172D01*
X-11872589Y-1516465D01*
X-11897511Y-1501129D01*
X-11926406Y-1496496D01*
X-11954874Y-1503274D01*
X-11978581Y-1520431D01*
X-11993917Y-1545353D01*
X-11998550Y-1574248D01*
X-12259970Y-1574248D01*
X-12275331Y-1558887D01*
X-12281080Y-1554168D01*
X-12282380Y-1552670D01*
X-12284638Y-1551248D01*
X-12286697Y-1549559D01*
X-12288526Y-1548801D01*
X-12294823Y-1544838D01*
X-12375775Y-1504362D01*
X-12389507Y-1499107D01*
X-12392194Y-1498916D01*
X-12394684Y-1497885D01*
X-12409316Y-1496444D01*
X-12571221Y-1496444D01*
X-12585853Y-1497885D01*
X-12588342Y-1498916D01*
X-12591030Y-1499107D01*
X-12604762Y-1504362D01*
X-12685714Y-1544838D01*
X-12692010Y-1548801D01*
X-12693840Y-1549559D01*
X-12695898Y-1551248D01*
X-12698157Y-1552670D01*
X-12699456Y-1554168D01*
X-12705206Y-1558887D01*
X-12786159Y-1639839D01*
X-12795486Y-1651204D01*
X-12797619Y-1656354D01*
X-12800940Y-1660836D01*
X-12805887Y-1674682D01*
X-12846363Y-1836587D01*
X-12846737Y-1839123D01*
X-12847161Y-1840145D01*
X-12847704Y-1845659D01*
X-12848513Y-1851132D01*
X-12848350Y-1852223D01*
X-12848602Y-1854777D01*
X-12943046Y-1854777D01*
X-12943046Y-1402000D01*
X-9407979Y-1402000D01*
X-9407979Y-2671251D01*
G37*
G36*
X-11673205Y-10785204D02*
G01*
X-12902570Y-10785204D01*
X-12902570Y-9765943D01*
X-12808126Y-9765943D01*
X-12808126Y-10615943D01*
X-12806685Y-10630575D01*
X-12795486Y-10657611D01*
X-12774794Y-10678303D01*
X-12747758Y-10689502D01*
X-12718494Y-10689502D01*
X-12691458Y-10678303D01*
X-12670766Y-10657611D01*
X-12659567Y-10630575D01*
X-12658126Y-10615943D01*
X-12658126Y-9765943D01*
X-12403364Y-9765943D01*
X-12403364Y-10615943D01*
X-12401923Y-10630575D01*
X-12390724Y-10657611D01*
X-12370032Y-10678303D01*
X-12342996Y-10689502D01*
X-12313732Y-10689502D01*
X-12286696Y-10678303D01*
X-12266004Y-10657611D01*
X-12254805Y-10630575D01*
X-12253364Y-10615943D01*
X-12253364Y-10048359D01*
X-11907767Y-10653154D01*
X-11905577Y-10656237D01*
X-11905009Y-10657611D01*
X-11903609Y-10659010D01*
X-11899256Y-10665143D01*
X-11891370Y-10671249D01*
X-11884317Y-10678303D01*
X-11879898Y-10680133D01*
X-11876119Y-10683060D01*
X-11866497Y-10685684D01*
X-11857281Y-10689502D01*
X-11852500Y-10689502D01*
X-11847888Y-10690760D01*
X-11837991Y-10689502D01*
X-11828017Y-10689502D01*
X-11823601Y-10687672D01*
X-11818858Y-10687070D01*
X-11810193Y-10682119D01*
X-11800981Y-10678303D01*
X-11797602Y-10674924D01*
X-11793449Y-10672551D01*
X-11787339Y-10664661D01*
X-11780289Y-10657611D01*
X-11778459Y-10653194D01*
X-11775532Y-10649414D01*
X-11772907Y-10639790D01*
X-11769090Y-10630575D01*
X-11768353Y-10623092D01*
X-11767832Y-10621182D01*
X-11768019Y-10619706D01*
X-11767649Y-10615943D01*
X-11767649Y-9765943D01*
X-11769090Y-9751311D01*
X-11780289Y-9724275D01*
X-11800981Y-9703583D01*
X-11828017Y-9692384D01*
X-11857281Y-9692384D01*
X-11884317Y-9703583D01*
X-11905009Y-9724275D01*
X-11916208Y-9751311D01*
X-11917649Y-9765943D01*
X-11917649Y-10333526D01*
X-12263246Y-9728733D01*
X-12265434Y-9725649D01*
X-12266004Y-9724275D01*
X-12267403Y-9722875D01*
X-12271756Y-9716743D01*
X-12279644Y-9710634D01*
X-12286696Y-9703583D01*
X-12291114Y-9701752D01*
X-12294894Y-9698826D01*
X-12304515Y-9696201D01*
X-12313732Y-9692384D01*
X-12318513Y-9692384D01*
X-12323125Y-9691126D01*
X-12333022Y-9692384D01*
X-12342996Y-9692384D01*
X-12347411Y-9694213D01*
X-12352155Y-9694816D01*
X-12360819Y-9699766D01*
X-12370032Y-9703583D01*
X-12373410Y-9706961D01*
X-12377564Y-9709335D01*
X-12383672Y-9717223D01*
X-12390724Y-9724275D01*
X-12392554Y-9728693D01*
X-12395481Y-9732473D01*
X-12398105Y-9742094D01*
X-12401923Y-9751311D01*
X-12402659Y-9758793D01*
X-12403181Y-9760704D01*
X-12402993Y-9762179D01*
X-12403364Y-9765943D01*
X-12658126Y-9765943D01*
X-12659567Y-9751311D01*
X-12670766Y-9724275D01*
X-12691458Y-9703583D01*
X-12718494Y-9692384D01*
X-12747758Y-9692384D01*
X-12774794Y-9703583D01*
X-12795486Y-9724275D01*
X-12806685Y-9751311D01*
X-12808126Y-9765943D01*
X-12902570Y-9765943D01*
X-12902570Y-9596682D01*
X-11673205Y-9596682D01*
X-11673205Y-10785204D01*
G37*
G36*
X10501269Y-9868058D02*
G01*
X10558926Y-9925714D01*
X10592125Y-10058509D01*
X10592125Y-10323375D01*
X10558926Y-10456170D01*
X10501269Y-10513828D01*
X10447039Y-10540943D01*
X10320544Y-10540943D01*
X10266314Y-10513828D01*
X10208656Y-10456170D01*
X10175458Y-10323375D01*
X10175458Y-10058509D01*
X10208656Y-9925714D01*
X10266313Y-9868058D01*
X10320544Y-9840943D01*
X10447039Y-9840943D01*
X10501269Y-9868058D01*
G37*
G36*
X12454175Y-10785387D02*
G01*
X9931014Y-10785387D01*
X9931014Y-10049276D01*
X10025458Y-10049276D01*
X10025458Y-10332609D01*
X10025709Y-10335162D01*
X10025547Y-10336254D01*
X10026355Y-10341726D01*
X10026899Y-10347241D01*
X10027322Y-10348262D01*
X10027697Y-10350799D01*
X10068173Y-10512704D01*
X10073120Y-10526550D01*
X10076440Y-10531031D01*
X10078574Y-10536182D01*
X10087901Y-10547547D01*
X10168854Y-10628500D01*
X10174604Y-10633220D01*
X10175903Y-10634717D01*
X10178157Y-10636136D01*
X10180219Y-10637828D01*
X10182051Y-10638586D01*
X10188346Y-10642549D01*
X10269298Y-10683025D01*
X10283030Y-10688280D01*
X10285717Y-10688470D01*
X10288207Y-10689502D01*
X10302839Y-10690943D01*
X10464744Y-10690943D01*
X10479376Y-10689502D01*
X10481865Y-10688470D01*
X10484553Y-10688280D01*
X10498285Y-10683025D01*
X10579237Y-10642549D01*
X10585536Y-10638584D01*
X10587364Y-10637827D01*
X10589420Y-10636138D01*
X10591680Y-10634717D01*
X10592979Y-10633218D01*
X10598729Y-10628500D01*
X10679682Y-10547547D01*
X10689010Y-10536182D01*
X10691144Y-10531028D01*
X10694463Y-10526550D01*
X10699410Y-10512704D01*
X10739886Y-10350799D01*
X10740261Y-10348261D01*
X10740684Y-10347241D01*
X10741225Y-10341738D01*
X10742037Y-10336254D01*
X10741873Y-10335158D01*
X10742125Y-10332609D01*
X10742125Y-10049276D01*
X10741873Y-10046726D01*
X10742037Y-10045631D01*
X10741225Y-10040146D01*
X10740684Y-10034644D01*
X10740261Y-10033623D01*
X10739886Y-10031086D01*
X10699410Y-9869181D01*
X10694463Y-9855335D01*
X10691142Y-9850854D01*
X10689009Y-9845703D01*
X10679682Y-9834338D01*
X10611286Y-9765943D01*
X10956410Y-9765943D01*
X10956410Y-10454038D01*
X10957851Y-10468670D01*
X10958881Y-10471158D01*
X10959073Y-10473848D01*
X10964328Y-10487580D01*
X11004806Y-10568532D01*
X11008767Y-10574825D01*
X11009526Y-10576657D01*
X11011217Y-10578717D01*
X11012638Y-10580975D01*
X11014135Y-10582273D01*
X11018853Y-10588022D01*
X11059329Y-10628499D01*
X11065080Y-10633219D01*
X11066379Y-10634717D01*
X11068634Y-10636136D01*
X11070694Y-10637827D01*
X11072524Y-10638585D01*
X11078822Y-10642549D01*
X11159774Y-10683025D01*
X11173506Y-10688280D01*
X11176193Y-10688470D01*
X11178683Y-10689502D01*
X11193315Y-10690943D01*
X11355220Y-10690943D01*
X11369852Y-10689502D01*
X11372341Y-10688470D01*
X11375029Y-10688280D01*
X11388761Y-10683025D01*
X11469713Y-10642549D01*
X11476012Y-10638584D01*
X11477840Y-10637827D01*
X11479896Y-10636138D01*
X11482156Y-10634717D01*
X11483455Y-10633218D01*
X11489205Y-10628500D01*
X11529682Y-10588023D01*
X11534400Y-10582273D01*
X11535899Y-10580974D01*
X11537320Y-10578714D01*
X11539009Y-10576658D01*
X11539766Y-10574830D01*
X11543731Y-10568531D01*
X11584207Y-10487579D01*
X11589462Y-10473847D01*
X11589652Y-10471159D01*
X11590684Y-10468670D01*
X11592125Y-10454038D01*
X11592125Y-9765943D01*
X11590684Y-9751311D01*
X11726899Y-9751311D01*
X11726899Y-9780575D01*
X11738098Y-9807611D01*
X11758790Y-9828303D01*
X11785826Y-9839502D01*
X11800458Y-9840943D01*
X11968315Y-9840943D01*
X11968315Y-10615943D01*
X11969756Y-10630575D01*
X11980955Y-10657611D01*
X12001647Y-10678303D01*
X12028683Y-10689502D01*
X12057947Y-10689502D01*
X12084983Y-10678303D01*
X12105675Y-10657611D01*
X12116874Y-10630575D01*
X12118315Y-10615943D01*
X12118315Y-9840943D01*
X12286172Y-9840943D01*
X12300804Y-9839502D01*
X12327840Y-9828303D01*
X12348532Y-9807611D01*
X12359731Y-9780575D01*
X12359731Y-9751311D01*
X12348532Y-9724275D01*
X12327840Y-9703583D01*
X12300804Y-9692384D01*
X12286172Y-9690943D01*
X11800458Y-9690943D01*
X11785826Y-9692384D01*
X11758790Y-9703583D01*
X11738098Y-9724275D01*
X11726899Y-9751311D01*
X11590684Y-9751311D01*
X11579485Y-9724275D01*
X11558793Y-9703583D01*
X11531757Y-9692384D01*
X11502493Y-9692384D01*
X11475457Y-9703583D01*
X11454765Y-9724275D01*
X11443566Y-9751311D01*
X11442125Y-9765943D01*
X11442125Y-10436333D01*
X11415010Y-10490563D01*
X11391745Y-10513828D01*
X11337515Y-10540943D01*
X11211020Y-10540943D01*
X11156790Y-10513828D01*
X11133526Y-10490563D01*
X11106410Y-10436331D01*
X11106410Y-9765943D01*
X11104969Y-9751311D01*
X11093770Y-9724275D01*
X11073078Y-9703583D01*
X11046042Y-9692384D01*
X11016778Y-9692384D01*
X10989742Y-9703583D01*
X10969050Y-9724275D01*
X10957851Y-9751311D01*
X10956410Y-9765943D01*
X10611286Y-9765943D01*
X10598729Y-9753386D01*
X10592979Y-9748667D01*
X10591680Y-9747169D01*
X10589421Y-9745747D01*
X10587363Y-9744058D01*
X10585533Y-9743300D01*
X10579237Y-9739337D01*
X10498285Y-9698861D01*
X10484553Y-9693606D01*
X10481865Y-9693415D01*
X10479376Y-9692384D01*
X10464744Y-9690943D01*
X10302839Y-9690943D01*
X10288207Y-9692384D01*
X10285717Y-9693415D01*
X10283030Y-9693606D01*
X10269298Y-9698861D01*
X10188346Y-9739337D01*
X10182049Y-9743300D01*
X10180220Y-9744058D01*
X10178161Y-9745747D01*
X10175903Y-9747169D01*
X10174603Y-9748667D01*
X10168854Y-9753386D01*
X10087901Y-9834338D01*
X10078574Y-9845703D01*
X10076440Y-9850853D01*
X10073120Y-9855335D01*
X10068173Y-9869181D01*
X10027697Y-10031086D01*
X10027322Y-10033622D01*
X10026899Y-10034644D01*
X10026355Y-10040158D01*
X10025547Y-10045631D01*
X10025709Y-10046722D01*
X10025458Y-10049276D01*
X9931014Y-10049276D01*
X9931014Y-9596499D01*
X12454175Y-9596499D01*
X12454175Y-10785387D01*
G37*
X2957476Y-968694D02*
X2957476Y-1575837D01*
X2957476Y-1575837D02*
X2916999Y-1697265D01*
X2916999Y-1697265D02*
X2836047Y-1778218D01*
X2836047Y-1778218D02*
X2714618Y-1818694D01*
X2714618Y-1818694D02*
X2633666Y-1818694D01*
X3362237Y-1818694D02*
X3362237Y-968694D01*
X3362237Y-968694D02*
X3686047Y-968694D01*
X3686047Y-968694D02*
X3766999Y-1009170D01*
X3766999Y-1009170D02*
X3807476Y-1049646D01*
X3807476Y-1049646D02*
X3847952Y-1130598D01*
X3847952Y-1130598D02*
X3847952Y-1252027D01*
X3847952Y-1252027D02*
X3807476Y-1332979D01*
X3807476Y-1332979D02*
X3766999Y-1373456D01*
X3766999Y-1373456D02*
X3686047Y-1413932D01*
X3686047Y-1413932D02*
X3362237Y-1413932D01*
X4131285Y-968694D02*
X4657476Y-968694D01*
X4657476Y-968694D02*
X4374142Y-1292503D01*
X4374142Y-1292503D02*
X4495571Y-1292503D01*
X4495571Y-1292503D02*
X4576523Y-1332979D01*
X4576523Y-1332979D02*
X4616999Y-1373456D01*
X4616999Y-1373456D02*
X4657476Y-1454408D01*
X4657476Y-1454408D02*
X4657476Y-1656789D01*
X4657476Y-1656789D02*
X4616999Y-1737741D01*
X4616999Y-1737741D02*
X4576523Y-1778218D01*
X4576523Y-1778218D02*
X4495571Y-1818694D01*
X4495571Y-1818694D02*
X4252714Y-1818694D01*
X4252714Y-1818694D02*
X4171761Y-1778218D01*
X4171761Y-1778218D02*
X4131285Y-1737741D01*
X1682475Y-968694D02*
X2208666Y-968694D01*
X2208666Y-968694D02*
X1925332Y-1292503D01*
X1925332Y-1292503D02*
X2046761Y-1292503D01*
X2046761Y-1292503D02*
X2127713Y-1332979D01*
X2127713Y-1332979D02*
X2168189Y-1373456D01*
X2168189Y-1373456D02*
X2208666Y-1454408D01*
X2208666Y-1454408D02*
X2208666Y-1656789D01*
X2208666Y-1656789D02*
X2168189Y-1737741D01*
X2168189Y-1737741D02*
X2127713Y-1778218D01*
X2127713Y-1778218D02*
X2046761Y-1818694D01*
X2046761Y-1818694D02*
X1803904Y-1818694D01*
X1803904Y-1818694D02*
X1722951Y-1778218D01*
X1722951Y-1778218D02*
X1682475Y-1737741D01*
X5708666Y-1818694D02*
X5222951Y-1818694D01*
X5465808Y-1818694D02*
X5465808Y-968694D01*
X5465808Y-968694D02*
X5384856Y-1090122D01*
X5384856Y-1090122D02*
X5303904Y-1171075D01*
X5303904Y-1171075D02*
X5222951Y-1211551D01*
X8282476Y-9668694D02*
X8282476Y-10275837D01*
X8282476Y-10275837D02*
X8241999Y-10397265D01*
X8241999Y-10397265D02*
X8161047Y-10478218D01*
X8161047Y-10478218D02*
X8039618Y-10518694D01*
X8039618Y-10518694D02*
X7958666Y-10518694D01*
X8606285Y-9668694D02*
X9132476Y-9668694D01*
X9132476Y-9668694D02*
X8849142Y-9992503D01*
X8849142Y-9992503D02*
X8970571Y-9992503D01*
X8970571Y-9992503D02*
X9051523Y-10032979D01*
X9051523Y-10032979D02*
X9091999Y-10073456D01*
X9091999Y-10073456D02*
X9132476Y-10154408D01*
X9132476Y-10154408D02*
X9132476Y-10356789D01*
X9132476Y-10356789D02*
X9091999Y-10437741D01*
X9091999Y-10437741D02*
X9051523Y-10478218D01*
X9051523Y-10478218D02*
X8970571Y-10518694D01*
X8970571Y-10518694D02*
X8727714Y-10518694D01*
X8727714Y-10518694D02*
X8646761Y-10478218D01*
X8646761Y-10478218D02*
X8606285Y-10437741D01*
X-5942523Y-968694D02*
X-5942523Y-1575837D01*
X-5942523Y-1575837D02*
X-5983000Y-1697265D01*
X-5983000Y-1697265D02*
X-6063952Y-1778218D01*
X-6063952Y-1778218D02*
X-6185381Y-1818694D01*
X-6185381Y-1818694D02*
X-6266333Y-1818694D01*
X-5537762Y-1818694D02*
X-5537762Y-968694D01*
X-5537762Y-968694D02*
X-5213952Y-968694D01*
X-5213952Y-968694D02*
X-5133000Y-1009170D01*
X-5133000Y-1009170D02*
X-5092523Y-1049646D01*
X-5092523Y-1049646D02*
X-5052047Y-1130598D01*
X-5052047Y-1130598D02*
X-5052047Y-1252027D01*
X-5052047Y-1252027D02*
X-5092523Y-1332979D01*
X-5092523Y-1332979D02*
X-5133000Y-1373456D01*
X-5133000Y-1373456D02*
X-5213952Y-1413932D01*
X-5213952Y-1413932D02*
X-5537762Y-1413932D01*
X-4242523Y-1818694D02*
X-4728238Y-1818694D01*
X-4485381Y-1818694D02*
X-4485381Y-968694D01*
X-4485381Y-968694D02*
X-4566333Y-1090122D01*
X-4566333Y-1090122D02*
X-4647285Y-1171075D01*
X-4647285Y-1171075D02*
X-4728238Y-1211551D01*
X-181810Y-4268694D02*
X-181810Y-4956789D01*
X-181810Y-4956789D02*
X-141333Y-5037741D01*
X-141333Y-5037741D02*
X-100857Y-5078218D01*
X-100857Y-5078218D02*
X-19905Y-5118694D01*
X-19905Y-5118694D02*
X141999Y-5118694D01*
X141999Y-5118694D02*
X222951Y-5078218D01*
X222951Y-5078218D02*
X263428Y-5037741D01*
X263428Y-5037741D02*
X303904Y-4956789D01*
X303904Y-4956789D02*
X303904Y-4268694D01*
X668189Y-4349646D02*
X708665Y-4309170D01*
X708665Y-4309170D02*
X789618Y-4268694D01*
X789618Y-4268694D02*
X991999Y-4268694D01*
X991999Y-4268694D02*
X1072951Y-4309170D01*
X1072951Y-4309170D02*
X1113427Y-4349646D01*
X1113427Y-4349646D02*
X1153904Y-4430598D01*
X1153904Y-4430598D02*
X1153904Y-4511551D01*
X1153904Y-4511551D02*
X1113427Y-4632979D01*
X1113427Y-4632979D02*
X627713Y-5118694D01*
X627713Y-5118694D02*
X1153904Y-5118694D01*
X-9217523Y-9668694D02*
X-9217523Y-10275837D01*
X-9217523Y-10275837D02*
X-9258000Y-10397265D01*
X-9258000Y-10397265D02*
X-9338952Y-10478218D01*
X-9338952Y-10478218D02*
X-9460381Y-10518694D01*
X-9460381Y-10518694D02*
X-9541333Y-10518694D01*
X-8853238Y-9749646D02*
X-8812762Y-9709170D01*
X-8812762Y-9709170D02*
X-8731809Y-9668694D01*
X-8731809Y-9668694D02*
X-8529428Y-9668694D01*
X-8529428Y-9668694D02*
X-8448476Y-9709170D01*
X-8448476Y-9709170D02*
X-8408000Y-9749646D01*
X-8408000Y-9749646D02*
X-8367523Y-9830598D01*
X-8367523Y-9830598D02*
X-8367523Y-9911551D01*
X-8367523Y-9911551D02*
X-8408000Y-10032979D01*
X-8408000Y-10032979D02*
X-8893714Y-10518694D01*
X-8893714Y-10518694D02*
X-8367523Y-10518694D01*
X-4575857Y-10637741D02*
X-4616333Y-10678218D01*
X-4616333Y-10678218D02*
X-4737762Y-10718694D01*
X-4737762Y-10718694D02*
X-4818714Y-10718694D01*
X-4818714Y-10718694D02*
X-4940143Y-10678218D01*
X-4940143Y-10678218D02*
X-5021095Y-10597265D01*
X-5021095Y-10597265D02*
X-5061572Y-10516313D01*
X-5061572Y-10516313D02*
X-5102048Y-10354408D01*
X-5102048Y-10354408D02*
X-5102048Y-10232979D01*
X-5102048Y-10232979D02*
X-5061572Y-10071075D01*
X-5061572Y-10071075D02*
X-5021095Y-9990122D01*
X-5021095Y-9990122D02*
X-4940143Y-9909170D01*
X-4940143Y-9909170D02*
X-4818714Y-9868694D01*
X-4818714Y-9868694D02*
X-4737762Y-9868694D01*
X-4737762Y-9868694D02*
X-4616333Y-9909170D01*
X-4616333Y-9909170D02*
X-4575857Y-9949646D01*
X-3766333Y-10718694D02*
X-4252048Y-10718694D01*
X-4009191Y-10718694D02*
X-4009191Y-9868694D01*
X-4009191Y-9868694D02*
X-4090143Y-9990122D01*
X-4090143Y-9990122D02*
X-4171095Y-10071075D01*
X-4171095Y-10071075D02*
X-4252048Y-10111551D01*
X-5081810Y-4268694D02*
X-5081810Y-4956789D01*
X-5081810Y-4956789D02*
X-5041333Y-5037741D01*
X-5041333Y-5037741D02*
X-5000857Y-5078218D01*
X-5000857Y-5078218D02*
X-4919905Y-5118694D01*
X-4919905Y-5118694D02*
X-4758000Y-5118694D01*
X-4758000Y-5118694D02*
X-4677048Y-5078218D01*
X-4677048Y-5078218D02*
X-4636571Y-5037741D01*
X-4636571Y-5037741D02*
X-4596095Y-4956789D01*
X-4596095Y-4956789D02*
X-4596095Y-4268694D01*
X-3746095Y-5118694D02*
X-4231810Y-5118694D01*
X-3988953Y-5118694D02*
X-3988953Y-4268694D01*
X-3988953Y-4268694D02*
X-4069905Y-4390122D01*
X-4069905Y-4390122D02*
X-4150857Y-4471075D01*
X-4150857Y-4471075D02*
X-4231810Y-4511551D01*
X-1642523Y-968694D02*
X-1642523Y-1575837D01*
X-1642523Y-1575837D02*
X-1683000Y-1697265D01*
X-1683000Y-1697265D02*
X-1763952Y-1778218D01*
X-1763952Y-1778218D02*
X-1885381Y-1818694D01*
X-1885381Y-1818694D02*
X-1966333Y-1818694D01*
X-1237762Y-1818694D02*
X-1237762Y-968694D01*
X-1237762Y-968694D02*
X-913952Y-968694D01*
X-913952Y-968694D02*
X-833000Y-1009170D01*
X-833000Y-1009170D02*
X-792523Y-1049646D01*
X-792523Y-1049646D02*
X-752047Y-1130598D01*
X-752047Y-1130598D02*
X-752047Y-1252027D01*
X-752047Y-1252027D02*
X-792523Y-1332979D01*
X-792523Y-1332979D02*
X-833000Y-1373456D01*
X-833000Y-1373456D02*
X-913952Y-1413932D01*
X-913952Y-1413932D02*
X-1237762Y-1413932D01*
X-428238Y-1049646D02*
X-387762Y-1009170D01*
X-387762Y-1009170D02*
X-306809Y-968694D01*
X-306809Y-968694D02*
X-104428Y-968694D01*
X-104428Y-968694D02*
X-23476Y-1009170D01*
X-23476Y-1009170D02*
X16999Y-1049646D01*
X16999Y-1049646D02*
X57476Y-1130598D01*
X57476Y-1130598D02*
X57476Y-1211551D01*
X57476Y-1211551D02*
X16999Y-1332979D01*
X16999Y-1332979D02*
X-468714Y-1818694D01*
X-468714Y-1818694D02*
X57476Y-1818694D01*
X1108666Y-1818694D02*
X622951Y-1818694D01*
X865808Y-1818694D02*
X865808Y-968694D01*
X865808Y-968694D02*
X784856Y-1090122D01*
X784856Y-1090122D02*
X703904Y-1171075D01*
X703904Y-1171075D02*
X622951Y-1211551D01*
X-2917524Y-968694D02*
X-2391333Y-968694D01*
X-2391333Y-968694D02*
X-2674667Y-1292503D01*
X-2674667Y-1292503D02*
X-2553238Y-1292503D01*
X-2553238Y-1292503D02*
X-2472286Y-1332979D01*
X-2472286Y-1332979D02*
X-2431810Y-1373456D01*
X-2431810Y-1373456D02*
X-2391333Y-1454408D01*
X-2391333Y-1454408D02*
X-2391333Y-1656789D01*
X-2391333Y-1656789D02*
X-2431810Y-1737741D01*
X-2431810Y-1737741D02*
X-2472286Y-1778218D01*
X-2472286Y-1778218D02*
X-2553238Y-1818694D01*
X-2553238Y-1818694D02*
X-2796095Y-1818694D01*
X-2796095Y-1818694D02*
X-2877048Y-1778218D01*
X-2877048Y-1778218D02*
X-2917524Y-1737741D01*
X4424142Y-10818694D02*
X4140808Y-10413932D01*
X3938427Y-10818694D02*
X3938427Y-9968694D01*
X3938427Y-9968694D02*
X4262237Y-9968694D01*
X4262237Y-9968694D02*
X4343189Y-10009170D01*
X4343189Y-10009170D02*
X4383666Y-10049646D01*
X4383666Y-10049646D02*
X4424142Y-10130598D01*
X4424142Y-10130598D02*
X4424142Y-10252027D01*
X4424142Y-10252027D02*
X4383666Y-10332979D01*
X4383666Y-10332979D02*
X4343189Y-10373456D01*
X4343189Y-10373456D02*
X4262237Y-10413932D01*
X4262237Y-10413932D02*
X3938427Y-10413932D01*
X4747951Y-10049646D02*
X4788427Y-10009170D01*
X4788427Y-10009170D02*
X4869380Y-9968694D01*
X4869380Y-9968694D02*
X5071761Y-9968694D01*
X5071761Y-9968694D02*
X5152713Y-10009170D01*
X5152713Y-10009170D02*
X5193189Y-10049646D01*
X5193189Y-10049646D02*
X5233666Y-10130598D01*
X5233666Y-10130598D02*
X5233666Y-10211551D01*
X5233666Y-10211551D02*
X5193189Y-10332979D01*
X5193189Y-10332979D02*
X4707475Y-10818694D01*
X4707475Y-10818694D02*
X5233666Y-10818694D01*
X5351236Y-6574933D02*
X4946474Y-6858267D01*
X5351236Y-7060648D02*
X4501236Y-7060648D01*
X4501236Y-7060648D02*
X4501236Y-6736838D01*
X4501236Y-6736838D02*
X4541712Y-6655886D01*
X4541712Y-6655886D02*
X4582188Y-6615409D01*
X4582188Y-6615409D02*
X4663140Y-6574933D01*
X4663140Y-6574933D02*
X4784569Y-6574933D01*
X4784569Y-6574933D02*
X4865521Y-6615409D01*
X4865521Y-6615409D02*
X4905998Y-6655886D01*
X4905998Y-6655886D02*
X4946474Y-6736838D01*
X4946474Y-6736838D02*
X4946474Y-7060648D01*
X4501236Y-6291600D02*
X4501236Y-5765409D01*
X4501236Y-5765409D02*
X4825045Y-6048743D01*
X4825045Y-6048743D02*
X4825045Y-5927314D01*
X4825045Y-5927314D02*
X4865521Y-5846362D01*
X4865521Y-5846362D02*
X4905998Y-5805886D01*
X4905998Y-5805886D02*
X4986950Y-5765409D01*
X4986950Y-5765409D02*
X5189331Y-5765409D01*
X5189331Y-5765409D02*
X5270283Y-5805886D01*
X5270283Y-5805886D02*
X5310760Y-5846362D01*
X5310760Y-5846362D02*
X5351236Y-5927314D01*
X5351236Y-5927314D02*
X5351236Y-6170171D01*
X5351236Y-6170171D02*
X5310760Y-6251124D01*
X5310760Y-6251124D02*
X5270283Y-6291600D01*
X351236Y-9074933D02*
X-53525Y-9358267D01*
X351236Y-9560648D02*
X-498763Y-9560648D01*
X-498763Y-9560648D02*
X-498763Y-9236838D01*
X-498763Y-9236838D02*
X-458287Y-9155886D01*
X-458287Y-9155886D02*
X-417811Y-9115409D01*
X-417811Y-9115409D02*
X-336859Y-9074933D01*
X-336859Y-9074933D02*
X-215430Y-9074933D01*
X-215430Y-9074933D02*
X-134478Y-9115409D01*
X-134478Y-9115409D02*
X-94001Y-9155886D01*
X-94001Y-9155886D02*
X-53525Y-9236838D01*
X-53525Y-9236838D02*
X-53525Y-9560648D01*
X351236Y-8265409D02*
X351236Y-8751124D01*
X351236Y-8508267D02*
X-498763Y-8508267D01*
X-498763Y-8508267D02*
X-377335Y-8589219D01*
X-377335Y-8589219D02*
X-296382Y-8670171D01*
X-296382Y-8670171D02*
X-255906Y-8751124D01*
X-1329716Y-9274933D02*
X-1289240Y-9315409D01*
X-1289240Y-9315409D02*
X-1248763Y-9436838D01*
X-1248763Y-9436838D02*
X-1248763Y-9517790D01*
X-1248763Y-9517790D02*
X-1289240Y-9639219D01*
X-1289240Y-9639219D02*
X-1370192Y-9720171D01*
X-1370192Y-9720171D02*
X-1451144Y-9760648D01*
X-1451144Y-9760648D02*
X-1613049Y-9801124D01*
X-1613049Y-9801124D02*
X-1734478Y-9801124D01*
X-1734478Y-9801124D02*
X-1896382Y-9760648D01*
X-1896382Y-9760648D02*
X-1977335Y-9720171D01*
X-1977335Y-9720171D02*
X-2058287Y-9639219D01*
X-2058287Y-9639219D02*
X-2098763Y-9517790D01*
X-2098763Y-9517790D02*
X-2098763Y-9436838D01*
X-2098763Y-9436838D02*
X-2058287Y-9315409D01*
X-2058287Y-9315409D02*
X-2017811Y-9274933D01*
X-2098763Y-8991600D02*
X-2098763Y-8465409D01*
X-2098763Y-8465409D02*
X-1774954Y-8748743D01*
X-1774954Y-8748743D02*
X-1774954Y-8627314D01*
X-1774954Y-8627314D02*
X-1734478Y-8546362D01*
X-1734478Y-8546362D02*
X-1694001Y-8505886D01*
X-1694001Y-8505886D02*
X-1613049Y-8465409D01*
X-1613049Y-8465409D02*
X-1410668Y-8465409D01*
X-1410668Y-8465409D02*
X-1329716Y-8505886D01*
X-1329716Y-8505886D02*
X-1289240Y-8546362D01*
X-1289240Y-8546362D02*
X-1248763Y-8627314D01*
X-1248763Y-8627314D02*
X-1248763Y-8870171D01*
X-1248763Y-8870171D02*
X-1289240Y-8951124D01*
X-1289240Y-8951124D02*
X-1329716Y-8991600D01*
X2024142Y-10737741D02*
X1983666Y-10778218D01*
X1983666Y-10778218D02*
X1862237Y-10818694D01*
X1862237Y-10818694D02*
X1781285Y-10818694D01*
X1781285Y-10818694D02*
X1659856Y-10778218D01*
X1659856Y-10778218D02*
X1578904Y-10697265D01*
X1578904Y-10697265D02*
X1538427Y-10616313D01*
X1538427Y-10616313D02*
X1497951Y-10454408D01*
X1497951Y-10454408D02*
X1497951Y-10332979D01*
X1497951Y-10332979D02*
X1538427Y-10171075D01*
X1538427Y-10171075D02*
X1578904Y-10090122D01*
X1578904Y-10090122D02*
X1659856Y-10009170D01*
X1659856Y-10009170D02*
X1781285Y-9968694D01*
X1781285Y-9968694D02*
X1862237Y-9968694D01*
X1862237Y-9968694D02*
X1983666Y-10009170D01*
X1983666Y-10009170D02*
X2024142Y-10049646D01*
X2347951Y-10049646D02*
X2388427Y-10009170D01*
X2388427Y-10009170D02*
X2469380Y-9968694D01*
X2469380Y-9968694D02*
X2671761Y-9968694D01*
X2671761Y-9968694D02*
X2752713Y-10009170D01*
X2752713Y-10009170D02*
X2793189Y-10049646D01*
X2793189Y-10049646D02*
X2833666Y-10130598D01*
X2833666Y-10130598D02*
X2833666Y-10211551D01*
X2833666Y-10211551D02*
X2793189Y-10332979D01*
X2793189Y-10332979D02*
X2307475Y-10818694D01*
X2307475Y-10818694D02*
X2833666Y-10818694D01*
D11*
%TO.C,JP3*%
X1615809Y-3333267D02*
X1615809Y-2733267D01*
X2265809Y-2033267D02*
X5065809Y-2033267D01*
X5065809Y-4033267D02*
X2265809Y-4033267D01*
X5715809Y-2733267D02*
X5715809Y-3333267D01*
X1615809Y-2733267D02*
G75*
G02*
X2315809Y-2033267I700000J0D01*
G01*
X2315809Y-4033267D02*
G75*
G02*
X1615809Y-3333267I0J700000D01*
G01*
X5015809Y-2033267D02*
G75*
G02*
X5715809Y-2733267I1J-699999D01*
G01*
X5715809Y-3333267D02*
G75*
G02*
X5015809Y-4033267I-699999J-1D01*
G01*
%TO.C,J3*%
X7905809Y-3023267D02*
X7905809Y-4073267D01*
X7905809Y-8193267D02*
X6915809Y-8193267D01*
X7905809Y-9243267D02*
X7905809Y-8193267D01*
X10405809Y-3023267D02*
X7905809Y-3023267D01*
X10405809Y-9243267D02*
X7905809Y-9243267D01*
X12375809Y-8073267D02*
X12375809Y-4193267D01*
%TO.C,JP1*%
X-6634191Y-3333267D02*
X-6634191Y-2733267D01*
X-5934191Y-2033267D02*
X-4534191Y-2033267D01*
X-4534191Y-4033267D02*
X-5934191Y-4033267D01*
X-3834191Y-2733267D02*
X-3834191Y-3333267D01*
X-6634191Y-2733267D02*
G75*
G02*
X-5934191Y-2033267I700000J0D01*
G01*
X-5934191Y-4033267D02*
G75*
G02*
X-6634191Y-3333267I0J700000D01*
G01*
X-4534191Y-2033267D02*
G75*
G02*
X-3834191Y-2733267I1J-699999D01*
G01*
X-3834191Y-3333267D02*
G75*
G02*
X-4534191Y-4033267I-699999J-1D01*
G01*
D12*
%TO.C,U2*%
X1645809Y-5113267D02*
X1645809Y-6153267D01*
X1645809Y-6153267D02*
X2695809Y-6153267D01*
X2695809Y-5113267D02*
X1645809Y-5113267D01*
X2695809Y-6153267D02*
X2695809Y-5113267D01*
D13*
X1445809Y-5123267D02*
G75*
G02*
X1365809Y-5123267I-40000J0D01*
G01*
X1365809Y-5123267D02*
G75*
G02*
X1445809Y-5123267I40000J0D01*
G01*
D11*
%TO.C,J2*%
X-12844191Y-4193267D02*
X-12844191Y-8073267D01*
X-10874191Y-3023267D02*
X-8374191Y-3023267D01*
X-10874191Y-9243267D02*
X-8374191Y-9243267D01*
X-8374191Y-3023267D02*
X-8374191Y-4073267D01*
X-8374191Y-4073267D02*
X-7384191Y-4073267D01*
X-8374191Y-9243267D02*
X-8374191Y-8193267D01*
%TO.C,C1*%
X-4542958Y-8410767D02*
X-4250424Y-8410767D01*
X-4542958Y-9430767D02*
X-4250424Y-9430767D01*
D14*
%TO.C,U1*%
X-5934191Y-5370767D02*
X-5934191Y-5425767D01*
X-5934191Y-5370767D02*
X-5379191Y-5370767D01*
X-5934191Y-7870767D02*
X-5934191Y-7815767D01*
X-5379191Y-7870767D02*
X-5934191Y-7870767D01*
X-3489191Y-5370767D02*
X-2934191Y-5370767D01*
X-2934191Y-5370767D02*
X-2934191Y-5425767D01*
X-2934191Y-7870767D02*
X-3489191Y-7870767D01*
X-2934191Y-7870767D02*
X-2934191Y-7815767D01*
D15*
X-6403191Y-5770767D02*
G75*
G02*
X-6603191Y-5770767I-100000J0D01*
G01*
X-6603191Y-5770767D02*
G75*
G02*
X-6403191Y-5770767I100000J0D01*
G01*
D11*
%TO.C,JP2*%
X-2984191Y-3333267D02*
X-2984191Y-2733267D01*
X-2334191Y-2033267D02*
X465809Y-2033267D01*
X465809Y-4033267D02*
X-2334191Y-4033267D01*
X1115809Y-2733267D02*
X1115809Y-3333267D01*
X-2984191Y-2733267D02*
G75*
G02*
X-2284191Y-2033267I700000J0D01*
G01*
X-2284191Y-4033267D02*
G75*
G02*
X-2984191Y-3333267I0J700000D01*
G01*
X415809Y-2033267D02*
G75*
G02*
X1115809Y-2733267I1J-699999D01*
G01*
X1115809Y-3333267D02*
G75*
G02*
X415809Y-4033267I-699999J-1D01*
G01*
%TO.C,R2*%
X4311085Y-8610767D02*
X4820533Y-8610767D01*
X4311085Y-9655767D02*
X4820533Y-9655767D01*
%TO.C,R3*%
X3143309Y-6687991D02*
X3143309Y-6178543D01*
X4188309Y-6687991D02*
X4188309Y-6178543D01*
%TO.C,R1*%
X-556691Y-6875491D02*
X-556691Y-6366043D01*
X488309Y-6875491D02*
X488309Y-6366043D01*
%TO.C,C3*%
X-2144191Y-6767034D02*
X-2144191Y-6474500D01*
X-1124191Y-6767034D02*
X-1124191Y-6474500D01*
%TO.C,C2*%
X1655809Y-8087000D02*
X1655809Y-8379534D01*
X2675809Y-8087000D02*
X2675809Y-8379534D01*
%TD*%
M02*
