%TF.GenerationSoftware,KiCad,Pcbnew,9.0.3*%
%TF.CreationDate,2025-09-10T00:52:22-04:00*%
%TF.ProjectId,IMU-Magnetometer,494d552d-4d61-4676-9e65-746f6d657465,rev?*%
%TF.SameCoordinates,Original*%
%TF.FileFunction,Copper,L2,Bot*%
%TF.FilePolarity,Positive*%
%FSLAX46Y46*%
G04 Gerber Fmt 4.6, Leading zero omitted, Abs format (unit mm)*
G04 Created by KiCad (PCBNEW 9.0.3) date 2025-09-10 00:52:22*
%MOMM*%
%LPD*%
G01*
G04 APERTURE LIST*
%TA.AperFunction,ComponentPad*%
%ADD10R,1.700000X1.700000*%
%TD*%
%TA.AperFunction,ComponentPad*%
%ADD11C,1.700000*%
%TD*%
%TA.AperFunction,ViaPad*%
%ADD12C,0.600000*%
%TD*%
%TA.AperFunction,Conductor*%
%ADD13C,0.250000*%
%TD*%
%TA.AperFunction,Conductor*%
%ADD14C,0.200000*%
%TD*%
G04 APERTURE END LIST*
D10*
%TO.P,J1,1,Pin_1*%
%TO.N,GND*%
X-11664191Y166733D03*
D11*
%TO.P,J1,2,Pin_2*%
%TO.N,VDDIO*%
X-9124191Y166733D03*
%TO.P,J1,3,Pin_3*%
%TO.N,/IMU_SCLK{slash}SCL*%
X-6584191Y166733D03*
%TO.P,J1,4,Pin_4*%
%TO.N,/IMU_SDI{slash}SDA*%
X-4044191Y166733D03*
%TO.P,J1,5,Pin_5*%
%TO.N,/IMU_SDO*%
X-1504191Y166733D03*
%TO.P,J1,6,Pin_6*%
%TO.N,/IMU_CS*%
X1035809Y166733D03*
%TO.P,J1,7,Pin_7*%
%TO.N,/IMU_INT1*%
X3575809Y166733D03*
%TO.P,J1,8,Pin_8*%
%TO.N,/IMU_INT2*%
X6115809Y166733D03*
%TO.P,J1,9,Pin_9*%
%TO.N,/SCL*%
X8655809Y166733D03*
%TO.P,J1,10,Pin_10*%
%TO.N,/SDA*%
X11195809Y166733D03*
%TD*%
D12*
%TO.N,GND*%
X4165809Y-10333267D03*
X11865809Y-5533267D03*
X-9534191Y-4833267D03*
X1165809Y-10233267D03*
X10565809Y-10233267D03*
X8065809Y-10233267D03*
X-2434191Y-8933267D03*
X10165809Y-8833267D03*
X11865809Y-6633267D03*
X9365809Y-10233267D03*
X6965809Y-10233267D03*
X5765809Y-10333267D03*
X-10634191Y-8833267D03*
X10865809Y-5833267D03*
X-12334191Y-7833267D03*
X-12234191Y-1933267D03*
X10865809Y-7333267D03*
X11865809Y-7833267D03*
X11865809Y-4433267D03*
X1315809Y-5983267D03*
X-2534191Y-5933267D03*
X9365809Y-3733267D03*
X2565809Y-10233267D03*
X10165809Y-3233267D03*
X10365809Y-4533267D03*
X8565809Y-1733267D03*
X3265809Y-1433267D03*
X-12334191Y-4433267D03*
X-7634191Y-1433267D03*
X-12234191Y-10233267D03*
X65809Y-9433267D03*
X8965809Y-7633267D03*
X-9734191Y-10233267D03*
X-12334191Y-6533267D03*
X1265809Y-9095767D03*
X-10634191Y-3233267D03*
X11765809Y-10233267D03*
X-12334191Y-5433267D03*
X-10934191Y-1933267D03*
X11465809Y-1833267D03*
X-11034191Y-10233267D03*
%TO.N,/IMU_INT2*%
X-2434191Y-6833267D03*
%TO.N,/SCL*%
X-6934191Y-8233267D03*
X1165809Y-5233267D03*
%TO.N,/IMU_SDI{slash}SDA*%
X-5434191Y-4933267D03*
%TO.N,/IMU_INT1*%
X-6312673Y-6711749D03*
%TO.N,/SDA*%
X-9734191Y-6633267D03*
X4765809Y-5533267D03*
%TO.N,/IMU_SDO*%
X-6934191Y-4133267D03*
%TO.N,/IMU_CS*%
X-3384191Y-3283267D03*
X-3302941Y-4964517D03*
%TD*%
D13*
%TO.N,/IMU_INT2*%
X6115809Y-983267D02*
X6115809Y166733D01*
X-2434191Y-6833267D02*
X-2443070Y-6824388D01*
X-2425312Y-6824388D02*
X1365809Y-3033267D01*
X1365809Y-3033267D02*
X4065809Y-3033267D01*
X-2443070Y-6824388D02*
X-2425312Y-6824388D01*
X4065809Y-3033267D02*
X6115809Y-983267D01*
%TO.N,/SCL*%
X-1834191Y-8233267D02*
X-6934191Y-8233267D01*
X1165809Y-5233267D02*
X-1834191Y-8233267D01*
X1165809Y-5233267D02*
X1965809Y-4433267D01*
X8655809Y-343267D02*
X8655809Y166733D01*
X4565809Y-4433267D02*
X8655809Y-343267D01*
X1965809Y-4433267D02*
X4565809Y-4433267D01*
%TO.N,/IMU_SDI{slash}SDA*%
X-7334191Y-4933267D02*
X-7734191Y-4533267D01*
X-7734191Y-4533267D02*
X-7734191Y-3523267D01*
X-7734191Y-3523267D02*
X-4044191Y166733D01*
X-5434191Y-4933267D02*
X-7334191Y-4933267D01*
%TO.N,/IMU_INT1*%
X-1424191Y-4833267D02*
X3575809Y166733D01*
X-6312673Y-6711749D02*
X-4212673Y-6711749D01*
X-2334191Y-4833267D02*
X-1424191Y-4833267D01*
X-4212673Y-6711749D02*
X-2334191Y-4833267D01*
%TO.N,/SDA*%
X-9734191Y-8133267D02*
X-7734191Y-10133267D01*
X-7734191Y-10133267D02*
X-1834191Y-10133267D01*
X6095809Y-5533267D02*
X11195809Y-433267D01*
X11195809Y-433267D02*
X11195809Y166733D01*
X-9734191Y-6633267D02*
X-9734191Y-8133267D01*
X2765809Y-5533267D02*
X6095809Y-5533267D01*
X-1834191Y-10133267D02*
X2765809Y-5533267D01*
%TO.N,/IMU_SDO*%
X-6934191Y-4133267D02*
X-5804191Y-4133267D01*
X-5804191Y-4133267D02*
X-1504191Y166733D01*
%TO.N,/IMU_CS*%
X-864191Y-1733267D02*
X1035809Y166733D01*
X-3302941Y-4964517D02*
X-3384191Y-4883267D01*
X-3384191Y-3283267D02*
X-1834191Y-1733267D01*
D14*
X-3384191Y-3283267D02*
X-3184191Y-3283267D01*
D13*
X-3384191Y-4883267D02*
X-3384191Y-3283267D01*
X-1834191Y-1733267D02*
X-864191Y-1733267D01*
%TD*%
%TA.AperFunction,Conductor*%
%TO.N,GND*%
G36*
X11968537Y1465925D02*
G01*
X12071473Y1454325D01*
X12082169Y1451883D01*
X12177325Y1418587D01*
X12187211Y1413827D01*
X12272574Y1360191D01*
X12281153Y1353349D01*
X12352443Y1282060D01*
X12359284Y1273482D01*
X12412920Y1188124D01*
X12417681Y1178239D01*
X12450982Y1083081D01*
X12453424Y1072384D01*
X12465001Y969661D01*
X12465309Y964173D01*
X12465309Y-10330516D01*
X12465001Y-10336002D01*
X12453404Y-10438932D01*
X12450962Y-10449630D01*
X12417666Y-10544783D01*
X12412905Y-10554669D01*
X12359270Y-10640028D01*
X12352429Y-10648606D01*
X12281147Y-10719889D01*
X12272569Y-10726730D01*
X12187210Y-10780365D01*
X12177324Y-10785126D01*
X12082171Y-10818422D01*
X12071473Y-10820864D01*
X11968562Y-10832459D01*
X11963076Y-10832767D01*
X-12431440Y-10832767D01*
X-12436926Y-10832459D01*
X-12539855Y-10820862D01*
X-12550553Y-10818420D01*
X-12645705Y-10785124D01*
X-12655591Y-10780363D01*
X-12740950Y-10726728D01*
X-12749528Y-10719887D01*
X-12820811Y-10648604D01*
X-12827652Y-10640026D01*
X-12881287Y-10554667D01*
X-12886048Y-10544781D01*
X-12919344Y-10449629D01*
X-12921786Y-10438931D01*
X-12933383Y-10336001D01*
X-12933691Y-10330515D01*
X-12933691Y-6560789D01*
X-10284691Y-6560789D01*
X-10284691Y-6705744D01*
X-10269941Y-6760789D01*
X-10247175Y-6845752D01*
X-10174700Y-6971282D01*
X-10174699Y-6971283D01*
X-10124043Y-7021939D01*
X-10109691Y-7056587D01*
X-10109691Y-8083831D01*
X-10109691Y-8182703D01*
X-10109388Y-8183832D01*
X-10084101Y-8278205D01*
X-10034666Y-8363829D01*
X-10034665Y-8363830D01*
X-8034666Y-10363829D01*
X-7964753Y-10433742D01*
X-7879129Y-10483177D01*
X-7831377Y-10495972D01*
X-7802727Y-10503649D01*
X-7783629Y-10508767D01*
X-7783627Y-10508767D01*
X-1784753Y-10508767D01*
X-1752921Y-10500237D01*
X-1737004Y-10495972D01*
X-1689253Y-10483177D01*
X-1689250Y-10483176D01*
X-1631146Y-10449629D01*
X-1603629Y-10433742D01*
X-1533716Y-10363829D01*
X2906994Y-5923119D01*
X2941642Y-5908767D01*
X4342489Y-5908767D01*
X4377137Y-5923119D01*
X4427794Y-5973776D01*
X4473739Y-6000302D01*
X4553321Y-6046250D01*
X4553323Y-6046250D01*
X4553324Y-6046251D01*
X4588326Y-6055630D01*
X4693331Y-6083767D01*
X4693334Y-6083767D01*
X4838286Y-6083767D01*
X4908289Y-6065009D01*
X4978294Y-6046251D01*
X5103824Y-5973776D01*
X5154481Y-5923119D01*
X5189129Y-5908767D01*
X6145247Y-5908767D01*
X6174464Y-5900937D01*
X6192995Y-5895972D01*
X6240747Y-5883177D01*
X6326371Y-5833742D01*
X6396284Y-5763829D01*
X11211994Y-948119D01*
X11246642Y-933767D01*
X11282419Y-933767D01*
X11282420Y-933767D01*
X11453510Y-906669D01*
X11618254Y-853140D01*
X11772597Y-774499D01*
X11912737Y-672681D01*
X12035223Y-550195D01*
X12137041Y-410055D01*
X12215682Y-255712D01*
X12269211Y-90968D01*
X12296309Y80122D01*
X12296309Y253344D01*
X12269211Y424434D01*
X12215682Y589178D01*
X12137041Y743521D01*
X12035223Y883661D01*
X11912737Y1006147D01*
X11772597Y1107965D01*
X11618254Y1186606D01*
X11453510Y1240135D01*
X11282420Y1267233D01*
X11109198Y1267233D01*
X10938108Y1240135D01*
X10773364Y1186606D01*
X10773362Y1186605D01*
X10619026Y1107968D01*
X10619023Y1107966D01*
X10619021Y1107965D01*
X10478881Y1006147D01*
X10478877Y1006143D01*
X10478874Y1006141D01*
X10356400Y883667D01*
X10356397Y883663D01*
X10356395Y883661D01*
X10254577Y743521D01*
X10254573Y743515D01*
X10175936Y589179D01*
X10122407Y424434D01*
X10122406Y424431D01*
X10095309Y253343D01*
X10095309Y80122D01*
X10122406Y-90965D01*
X10122407Y-90968D01*
X10175936Y-255713D01*
X10254573Y-410049D01*
X10254576Y-410053D01*
X10254577Y-410055D01*
X10356395Y-550195D01*
X10356397Y-550197D01*
X10356400Y-550201D01*
X10417470Y-611271D01*
X10431822Y-645919D01*
X10417470Y-680567D01*
X5954624Y-5143415D01*
X5919976Y-5157767D01*
X5189129Y-5157767D01*
X5154481Y-5143415D01*
X5103824Y-5092758D01*
X4978296Y-5020283D01*
X4978292Y-5020282D01*
X4838287Y-4982767D01*
X4838284Y-4982767D01*
X4693334Y-4982767D01*
X4693331Y-4982767D01*
X4553325Y-5020282D01*
X4553321Y-5020283D01*
X4427793Y-5092758D01*
X4427793Y-5092759D01*
X4377137Y-5143415D01*
X4342489Y-5157767D01*
X2716372Y-5157767D01*
X2708832Y-5159787D01*
X2693750Y-5163829D01*
X2620871Y-5183356D01*
X2620868Y-5183357D01*
X2535246Y-5232792D01*
X2535246Y-5232793D01*
X-1975376Y-9743415D01*
X-2010024Y-9757767D01*
X-7558358Y-9757767D01*
X-7593006Y-9743415D01*
X-9175632Y-8160789D01*
X-7484691Y-8160789D01*
X-7484691Y-8305744D01*
X-7469126Y-8363830D01*
X-7447175Y-8445752D01*
X-7374700Y-8571282D01*
X-7272206Y-8673776D01*
X-7146676Y-8746251D01*
X-7076671Y-8765009D01*
X-7006668Y-8783767D01*
X-7006666Y-8783767D01*
X-6861713Y-8783767D01*
X-6756708Y-8755630D01*
X-6721706Y-8746251D01*
X-6721705Y-8746250D01*
X-6721703Y-8746250D01*
X-6642121Y-8700302D01*
X-6596176Y-8673776D01*
X-6545519Y-8623119D01*
X-6510871Y-8608767D01*
X-1784753Y-8608767D01*
X-1752921Y-8600237D01*
X-1737004Y-8595972D01*
X-1689253Y-8583177D01*
X-1689250Y-8583176D01*
X-1634967Y-8551835D01*
X-1603629Y-8533742D01*
X-1533716Y-8463829D01*
X1131995Y-5798119D01*
X1166643Y-5783767D01*
X1238286Y-5783767D01*
X1312693Y-5763829D01*
X1378294Y-5746251D01*
X1503824Y-5673776D01*
X1606318Y-5571282D01*
X1678505Y-5446251D01*
X1678792Y-5445754D01*
X1678792Y-5445753D01*
X1678793Y-5445752D01*
X1711653Y-5323119D01*
X1716309Y-5305744D01*
X1716309Y-5234100D01*
X1730661Y-5199452D01*
X2106995Y-4823119D01*
X2141643Y-4808767D01*
X4615247Y-4808767D01*
X4655075Y-4798094D01*
X4674990Y-4792758D01*
X4710747Y-4783177D01*
X4796371Y-4733742D01*
X4866284Y-4663829D01*
X8581994Y-948119D01*
X8616642Y-933767D01*
X8742419Y-933767D01*
X8742420Y-933767D01*
X8913510Y-906669D01*
X9078254Y-853140D01*
X9232597Y-774499D01*
X9372737Y-672681D01*
X9495223Y-550195D01*
X9597041Y-410055D01*
X9675682Y-255712D01*
X9729211Y-90968D01*
X9756309Y80122D01*
X9756309Y253344D01*
X9729211Y424434D01*
X9675682Y589178D01*
X9597041Y743521D01*
X9495223Y883661D01*
X9372737Y1006147D01*
X9232597Y1107965D01*
X9078254Y1186606D01*
X8913510Y1240135D01*
X8742420Y1267233D01*
X8569198Y1267233D01*
X8398108Y1240135D01*
X8233364Y1186606D01*
X8233362Y1186605D01*
X8079026Y1107968D01*
X8079023Y1107966D01*
X8079021Y1107965D01*
X7938881Y1006147D01*
X7938877Y1006143D01*
X7938874Y1006141D01*
X7816400Y883667D01*
X7816397Y883663D01*
X7816395Y883661D01*
X7714577Y743521D01*
X7714573Y743515D01*
X7635936Y589179D01*
X7582407Y424434D01*
X7582406Y424431D01*
X7555309Y253343D01*
X7555309Y80122D01*
X7582406Y-90965D01*
X7582407Y-90968D01*
X7635936Y-255713D01*
X7714573Y-410049D01*
X7714576Y-410053D01*
X7714577Y-410055D01*
X7816395Y-550195D01*
X7816397Y-550197D01*
X7816400Y-550201D01*
X7832470Y-566271D01*
X7846822Y-600919D01*
X7832470Y-635567D01*
X4424624Y-4043415D01*
X4389976Y-4057767D01*
X1916371Y-4057767D01*
X1884539Y-4066297D01*
X1868622Y-4070562D01*
X1820875Y-4083355D01*
X1820872Y-4083356D01*
X1820871Y-4083357D01*
X1778059Y-4108074D01*
X1778058Y-4108074D01*
X1735245Y-4132792D01*
X1199624Y-4668415D01*
X1164976Y-4682767D01*
X1093331Y-4682767D01*
X953325Y-4720282D01*
X953321Y-4720283D01*
X827793Y-4792758D01*
X725301Y-4895251D01*
X725300Y-4895251D01*
X652825Y-5020779D01*
X652824Y-5020783D01*
X615308Y-5160789D01*
X615308Y-5232433D01*
X600956Y-5267080D01*
X-1975376Y-7843415D01*
X-2010024Y-7857767D01*
X-6510871Y-7857767D01*
X-6545519Y-7843415D01*
X-6596175Y-7792759D01*
X-6596175Y-7792758D01*
X-6721703Y-7720283D01*
X-6721707Y-7720282D01*
X-6861713Y-7682767D01*
X-6861716Y-7682767D01*
X-7006666Y-7682767D01*
X-7006669Y-7682767D01*
X-7146674Y-7720282D01*
X-7146678Y-7720283D01*
X-7272206Y-7792758D01*
X-7374699Y-7895251D01*
X-7447174Y-8020779D01*
X-7447175Y-8020783D01*
X-7484691Y-8160789D01*
X-9175632Y-8160789D01*
X-9344339Y-7992082D01*
X-9358691Y-7957434D01*
X-9358691Y-7056587D01*
X-9344339Y-7021939D01*
X-9293682Y-6971282D01*
X-9221207Y-6845754D01*
X-9221206Y-6845750D01*
X-9183691Y-6705744D01*
X-9183691Y-6639271D01*
X-6863173Y-6639271D01*
X-6863173Y-6784226D01*
X-6859093Y-6799452D01*
X-6825657Y-6924234D01*
X-6753182Y-7049764D01*
X-6650688Y-7152258D01*
X-6525158Y-7224733D01*
X-6455153Y-7243491D01*
X-6385150Y-7262249D01*
X-6385148Y-7262249D01*
X-6240195Y-7262249D01*
X-6135190Y-7234112D01*
X-6100188Y-7224733D01*
X-6100187Y-7224732D01*
X-6100185Y-7224732D01*
X-6007610Y-7171283D01*
X-5974658Y-7152258D01*
X-5924001Y-7101601D01*
X-5889353Y-7087249D01*
X-4163235Y-7087249D01*
X-4129716Y-7078267D01*
X-4112956Y-7073776D01*
X-4067735Y-7061659D01*
X-4067732Y-7061658D01*
X-3998938Y-7021939D01*
X-3982111Y-7012224D01*
X-3912198Y-6942311D01*
X-2193005Y-5223119D01*
X-2158357Y-5208767D01*
X-1459025Y-5208767D01*
X-1424377Y-5223119D01*
X-1410025Y-5257767D01*
X-1424377Y-5292415D01*
X-2400376Y-6268415D01*
X-2435024Y-6282767D01*
X-2506669Y-6282767D01*
X-2646674Y-6320282D01*
X-2646678Y-6320283D01*
X-2739254Y-6373733D01*
X-2772206Y-6392758D01*
X-2874700Y-6495252D01*
X-2877016Y-6499264D01*
X-2947174Y-6620779D01*
X-2947175Y-6620783D01*
X-2984691Y-6760789D01*
X-2984691Y-6905744D01*
X-2967129Y-6971282D01*
X-2947175Y-7045752D01*
X-2874700Y-7171282D01*
X-2772206Y-7273776D01*
X-2646676Y-7346251D01*
X-2576671Y-7365009D01*
X-2506668Y-7383767D01*
X-2506666Y-7383767D01*
X-2361713Y-7383767D01*
X-2256708Y-7355630D01*
X-2221706Y-7346251D01*
X-2221705Y-7346250D01*
X-2221703Y-7346250D01*
X-2142121Y-7300302D01*
X-2096176Y-7273776D01*
X-1993682Y-7171282D01*
X-1982698Y-7152257D01*
X-1921207Y-7045754D01*
X-1921206Y-7045750D01*
X-1883691Y-6905744D01*
X-1883691Y-6834100D01*
X-1869339Y-6799452D01*
X1506995Y-3423119D01*
X1541643Y-3408767D01*
X4115247Y-3408767D01*
X4144464Y-3400937D01*
X4162995Y-3395972D01*
X4210747Y-3383177D01*
X4296371Y-3333742D01*
X4366284Y-3263829D01*
X4366283Y-3263829D01*
X6416284Y-1213830D01*
X6465720Y-1128204D01*
X6491308Y-1032706D01*
X6491309Y-1032706D01*
X6491309Y-903994D01*
X6505661Y-869346D01*
X6525168Y-857392D01*
X6530151Y-855772D01*
X6538254Y-853140D01*
X6692597Y-774499D01*
X6832737Y-672681D01*
X6955223Y-550195D01*
X7057041Y-410055D01*
X7135682Y-255712D01*
X7189211Y-90968D01*
X7216309Y80122D01*
X7216309Y253344D01*
X7189211Y424434D01*
X7135682Y589178D01*
X7057041Y743521D01*
X6955223Y883661D01*
X6832737Y1006147D01*
X6692597Y1107965D01*
X6538254Y1186606D01*
X6373510Y1240135D01*
X6202420Y1267233D01*
X6029198Y1267233D01*
X5858108Y1240135D01*
X5693364Y1186606D01*
X5693362Y1186605D01*
X5539026Y1107968D01*
X5539023Y1107966D01*
X5539021Y1107965D01*
X5398881Y1006147D01*
X5398877Y1006143D01*
X5398874Y1006141D01*
X5276400Y883667D01*
X5276397Y883663D01*
X5276395Y883661D01*
X5174577Y743521D01*
X5174573Y743515D01*
X5095936Y589179D01*
X5042407Y424434D01*
X5042406Y424431D01*
X5015309Y253343D01*
X5015309Y80122D01*
X5042406Y-90965D01*
X5042407Y-90968D01*
X5095936Y-255713D01*
X5174573Y-410049D01*
X5174576Y-410053D01*
X5174577Y-410055D01*
X5276395Y-550195D01*
X5276397Y-550197D01*
X5276400Y-550201D01*
X5398874Y-672675D01*
X5398877Y-672677D01*
X5398881Y-672681D01*
X5539021Y-774499D01*
X5539023Y-774500D01*
X5539026Y-774502D01*
X5647536Y-829790D01*
X5671893Y-858307D01*
X5668950Y-895694D01*
X5659939Y-908097D01*
X3924624Y-2643415D01*
X3889976Y-2657767D01*
X1400642Y-2657767D01*
X1365994Y-2643415D01*
X1351642Y-2608767D01*
X1365994Y-2574119D01*
X1976284Y-1963829D01*
X3084210Y-855902D01*
X3118857Y-841551D01*
X3141102Y-846892D01*
X3153364Y-853140D01*
X3318108Y-906669D01*
X3489198Y-933767D01*
X3489199Y-933767D01*
X3662419Y-933767D01*
X3662420Y-933767D01*
X3833510Y-906669D01*
X3998254Y-853140D01*
X4152597Y-774499D01*
X4292737Y-672681D01*
X4415223Y-550195D01*
X4517041Y-410055D01*
X4595682Y-255712D01*
X4649211Y-90968D01*
X4676309Y80122D01*
X4676309Y253344D01*
X4649211Y424434D01*
X4595682Y589178D01*
X4517041Y743521D01*
X4415223Y883661D01*
X4292737Y1006147D01*
X4152597Y1107965D01*
X3998254Y1186606D01*
X3833510Y1240135D01*
X3662420Y1267233D01*
X3489198Y1267233D01*
X3318108Y1240135D01*
X3153364Y1186606D01*
X3153362Y1186605D01*
X2999026Y1107968D01*
X2999023Y1107966D01*
X2999021Y1107965D01*
X2858881Y1006147D01*
X2858877Y1006143D01*
X2858874Y1006141D01*
X2736400Y883667D01*
X2736397Y883663D01*
X2736395Y883661D01*
X2634577Y743521D01*
X2634573Y743515D01*
X2555936Y589179D01*
X2502407Y424434D01*
X2502406Y424431D01*
X2475309Y253343D01*
X2475309Y80122D01*
X2502406Y-90965D01*
X2502407Y-90968D01*
X2555935Y-255710D01*
X2562183Y-267973D01*
X2565124Y-305360D01*
X2553171Y-324865D01*
X-1565376Y-4443415D01*
X-1600024Y-4457767D01*
X-2383630Y-4457767D01*
X-2479126Y-4483355D01*
X-2479130Y-4483356D01*
X-2564754Y-4532792D01*
X-2742620Y-4710658D01*
X-2777268Y-4725010D01*
X-2811916Y-4710658D01*
X-2819703Y-4700510D01*
X-2862432Y-4626501D01*
X-2964923Y-4524010D01*
X-2964926Y-4524008D01*
X-2984192Y-4512884D01*
X-3007022Y-4483131D01*
X-3008691Y-4470450D01*
X-3008691Y-3706587D01*
X-2994339Y-3671939D01*
X-2943682Y-3621282D01*
X-2871207Y-3495754D01*
X-2871206Y-3495750D01*
X-2833691Y-3355744D01*
X-2833691Y-3284100D01*
X-2819339Y-3249452D01*
X-1693006Y-2123119D01*
X-1658358Y-2108767D01*
X-814753Y-2108767D01*
X-782921Y-2100237D01*
X-767004Y-2095972D01*
X-719253Y-2083177D01*
X-719250Y-2083176D01*
X-664967Y-2051835D01*
X-633629Y-2033742D01*
X-563716Y-1963829D01*
X544209Y-855902D01*
X578856Y-841551D01*
X601098Y-846890D01*
X613364Y-853140D01*
X778108Y-906669D01*
X949198Y-933767D01*
X949199Y-933767D01*
X1122419Y-933767D01*
X1122420Y-933767D01*
X1293510Y-906669D01*
X1458254Y-853140D01*
X1612597Y-774499D01*
X1752737Y-672681D01*
X1875223Y-550195D01*
X1977041Y-410055D01*
X2055682Y-255712D01*
X2109211Y-90968D01*
X2136309Y80122D01*
X2136309Y253344D01*
X2109211Y424434D01*
X2055682Y589178D01*
X1977041Y743521D01*
X1875223Y883661D01*
X1752737Y1006147D01*
X1612597Y1107965D01*
X1458254Y1186606D01*
X1293510Y1240135D01*
X1122420Y1267233D01*
X949198Y1267233D01*
X778108Y1240135D01*
X613364Y1186606D01*
X613362Y1186605D01*
X459026Y1107968D01*
X459023Y1107966D01*
X459021Y1107965D01*
X318881Y1006147D01*
X318877Y1006143D01*
X318874Y1006141D01*
X196400Y883667D01*
X196397Y883663D01*
X196395Y883661D01*
X94577Y743521D01*
X94573Y743515D01*
X15936Y589179D01*
X15936Y589178D01*
X-37593Y424434D01*
X-64691Y253344D01*
X-64691Y80122D01*
X-37593Y-90968D01*
X15936Y-255712D01*
X22183Y-267973D01*
X25128Y-305355D01*
X13173Y-324865D01*
X-1005376Y-1343415D01*
X-1040024Y-1357767D01*
X-1883629Y-1357767D01*
X-1931377Y-1370562D01*
X-1979128Y-1383356D01*
X-1979131Y-1383357D01*
X-2064753Y-1432792D01*
X-3350376Y-2718415D01*
X-3385024Y-2732767D01*
X-3456669Y-2732767D01*
X-3596674Y-2770282D01*
X-3596678Y-2770283D01*
X-3722206Y-2842758D01*
X-3824699Y-2945251D01*
X-3897174Y-3070779D01*
X-3897175Y-3070783D01*
X-3934691Y-3210789D01*
X-3934691Y-3355744D01*
X-3923911Y-3395973D01*
X-3897175Y-3495752D01*
X-3824700Y-3621282D01*
X-3824699Y-3621283D01*
X-3774043Y-3671939D01*
X-3759691Y-3706587D01*
X-3759691Y-4641502D01*
X-3766256Y-4666002D01*
X-3815924Y-4752029D01*
X-3815925Y-4752031D01*
X-3853441Y-4892039D01*
X-3853441Y-5036994D01*
X-3838498Y-5092758D01*
X-3815925Y-5177002D01*
X-3743450Y-5302532D01*
X-3640956Y-5405026D01*
X-3570413Y-5445754D01*
X-3566947Y-5447755D01*
X-3544117Y-5477508D01*
X-3549012Y-5514690D01*
X-3556799Y-5524838D01*
X-4353858Y-6321897D01*
X-4388506Y-6336249D01*
X-5889353Y-6336249D01*
X-5924001Y-6321897D01*
X-5974657Y-6271241D01*
X-5974657Y-6271240D01*
X-6100185Y-6198765D01*
X-6100189Y-6198764D01*
X-6240195Y-6161249D01*
X-6240198Y-6161249D01*
X-6385148Y-6161249D01*
X-6385151Y-6161249D01*
X-6525156Y-6198764D01*
X-6525160Y-6198765D01*
X-6645795Y-6268415D01*
X-6650688Y-6271240D01*
X-6753182Y-6373734D01*
X-6779708Y-6419679D01*
X-6825656Y-6499261D01*
X-6825657Y-6499265D01*
X-6863173Y-6639271D01*
X-9183691Y-6639271D01*
X-9183691Y-6560789D01*
X-9183690Y-6560789D01*
X-9221206Y-6420783D01*
X-9221207Y-6420779D01*
X-9293682Y-6295251D01*
X-9396175Y-6192759D01*
X-9396175Y-6192758D01*
X-9521703Y-6120283D01*
X-9521707Y-6120282D01*
X-9661713Y-6082767D01*
X-9661716Y-6082767D01*
X-9806666Y-6082767D01*
X-9806669Y-6082767D01*
X-9946674Y-6120282D01*
X-9946678Y-6120283D01*
X-10072206Y-6192758D01*
X-10174700Y-6295252D01*
X-10198370Y-6336249D01*
X-10247174Y-6420779D01*
X-10247175Y-6420783D01*
X-10284691Y-6560789D01*
X-12933691Y-6560789D01*
X-12933691Y-3473829D01*
X-8109691Y-3473829D01*
X-8109691Y-4582702D01*
X-8104331Y-4602705D01*
X-8104331Y-4602706D01*
X-8084101Y-4678204D01*
X-8084100Y-4678207D01*
X-8052038Y-4733741D01*
X-8041477Y-4752032D01*
X-8034665Y-4763830D01*
X-7634666Y-5163829D01*
X-7564753Y-5233742D01*
X-7479129Y-5283177D01*
X-7463540Y-5287354D01*
X-7444652Y-5292415D01*
X-7383629Y-5308767D01*
X-7383627Y-5308767D01*
X-7383626Y-5308767D01*
X-5857511Y-5308767D01*
X-5822863Y-5323119D01*
X-5772206Y-5373776D01*
X-5663495Y-5436540D01*
X-5647541Y-5445752D01*
X-5646676Y-5446251D01*
X-5576671Y-5465009D01*
X-5506668Y-5483767D01*
X-5506666Y-5483767D01*
X-5361713Y-5483767D01*
X-5256708Y-5455630D01*
X-5221706Y-5446251D01*
X-5221705Y-5446250D01*
X-5221703Y-5446250D01*
X-5142121Y-5400302D01*
X-5096176Y-5373776D01*
X-4993682Y-5271282D01*
X-4972008Y-5233742D01*
X-4921207Y-5145754D01*
X-4921206Y-5145750D01*
X-4883691Y-5005744D01*
X-4883691Y-4860789D01*
X-4883690Y-4860789D01*
X-4921206Y-4720783D01*
X-4921207Y-4720779D01*
X-4993682Y-4595251D01*
X-5096175Y-4492759D01*
X-5096175Y-4492758D01*
X-5221703Y-4420283D01*
X-5221707Y-4420282D01*
X-5361713Y-4382767D01*
X-5361716Y-4382767D01*
X-5404358Y-4382767D01*
X-5439006Y-4368415D01*
X-5453358Y-4333767D01*
X-5439006Y-4299119D01*
X-1995790Y-855903D01*
X-1961142Y-841551D01*
X-1938898Y-846891D01*
X-1926636Y-853140D01*
X-1761892Y-906669D01*
X-1590802Y-933767D01*
X-1590801Y-933767D01*
X-1417581Y-933767D01*
X-1417580Y-933767D01*
X-1246490Y-906669D01*
X-1081746Y-853140D01*
X-1069485Y-846893D01*
X-927408Y-774502D01*
X-927405Y-774500D01*
X-927403Y-774499D01*
X-787263Y-672681D01*
X-787259Y-672677D01*
X-787256Y-672675D01*
X-664782Y-550201D01*
X-664779Y-550197D01*
X-664777Y-550195D01*
X-562959Y-410055D01*
X-562958Y-410053D01*
X-562955Y-410049D01*
X-484318Y-255713D01*
X-430789Y-90968D01*
X-430788Y-90965D01*
X-403691Y80122D01*
X-403691Y253343D01*
X-430788Y424431D01*
X-430789Y424434D01*
X-484318Y589179D01*
X-562955Y743515D01*
X-562959Y743521D01*
X-664777Y883661D01*
X-664779Y883663D01*
X-664782Y883667D01*
X-787256Y1006141D01*
X-787259Y1006143D01*
X-787263Y1006147D01*
X-927403Y1107965D01*
X-927405Y1107966D01*
X-927408Y1107968D01*
X-1081744Y1186605D01*
X-1081746Y1186606D01*
X-1246490Y1240135D01*
X-1417580Y1267233D01*
X-1590802Y1267233D01*
X-1761892Y1240135D01*
X-1926636Y1186606D01*
X-2080979Y1107965D01*
X-2221119Y1006147D01*
X-2343605Y883661D01*
X-2445423Y743521D01*
X-2524064Y589178D01*
X-2577593Y424434D01*
X-2604691Y253344D01*
X-2604691Y80122D01*
X-2577593Y-90968D01*
X-2524064Y-255712D01*
X-2517816Y-267972D01*
X-2514872Y-305356D01*
X-2526827Y-324866D01*
X-5945376Y-3743415D01*
X-5980024Y-3757767D01*
X-6510871Y-3757767D01*
X-6545519Y-3743415D01*
X-6596175Y-3692759D01*
X-6596175Y-3692758D01*
X-6721703Y-3620283D01*
X-6721707Y-3620282D01*
X-6861713Y-3582767D01*
X-6861716Y-3582767D01*
X-7006666Y-3582767D01*
X-7006669Y-3582767D01*
X-7146674Y-3620282D01*
X-7146678Y-3620283D01*
X-7187520Y-3643864D01*
X-7224702Y-3648759D01*
X-7254455Y-3625929D01*
X-7259350Y-3588747D01*
X-7246668Y-3566781D01*
X-4535790Y-855903D01*
X-4501142Y-841551D01*
X-4478898Y-846891D01*
X-4466636Y-853140D01*
X-4301892Y-906669D01*
X-4130802Y-933767D01*
X-4130801Y-933767D01*
X-3957581Y-933767D01*
X-3957580Y-933767D01*
X-3786490Y-906669D01*
X-3621746Y-853140D01*
X-3609485Y-846893D01*
X-3467408Y-774502D01*
X-3467405Y-774500D01*
X-3467403Y-774499D01*
X-3327263Y-672681D01*
X-3327259Y-672677D01*
X-3327256Y-672675D01*
X-3204782Y-550201D01*
X-3204779Y-550197D01*
X-3204777Y-550195D01*
X-3102959Y-410055D01*
X-3102958Y-410053D01*
X-3102955Y-410049D01*
X-3024318Y-255713D01*
X-2970789Y-90968D01*
X-2970788Y-90965D01*
X-2943691Y80122D01*
X-2943691Y253343D01*
X-2970788Y424431D01*
X-2970789Y424434D01*
X-3024318Y589179D01*
X-3102955Y743515D01*
X-3102959Y743521D01*
X-3204777Y883661D01*
X-3204779Y883663D01*
X-3204782Y883667D01*
X-3327256Y1006141D01*
X-3327259Y1006143D01*
X-3327263Y1006147D01*
X-3467403Y1107965D01*
X-3467405Y1107966D01*
X-3467408Y1107968D01*
X-3621744Y1186605D01*
X-3621746Y1186606D01*
X-3786490Y1240135D01*
X-3957580Y1267233D01*
X-4130802Y1267233D01*
X-4301892Y1240135D01*
X-4466636Y1186606D01*
X-4620979Y1107965D01*
X-4761119Y1006147D01*
X-4883605Y883661D01*
X-4985423Y743521D01*
X-5064064Y589178D01*
X-5117593Y424434D01*
X-5144691Y253344D01*
X-5144691Y80122D01*
X-5117593Y-90968D01*
X-5064064Y-255712D01*
X-5057816Y-267972D01*
X-5054872Y-305356D01*
X-5066827Y-324866D01*
X-8034665Y-3292704D01*
X-8084100Y-3378326D01*
X-8084101Y-3378330D01*
X-8109691Y-3473829D01*
X-12933691Y-3473829D01*
X-12933691Y-1091699D01*
X-12919339Y-1057051D01*
X-12884691Y-1042699D01*
X-12855326Y-1052473D01*
X-12756282Y-1126618D01*
X-12621564Y-1176865D01*
X-12562025Y-1183267D01*
X-11914191Y-1183267D01*
X-11914191Y-266279D01*
X-11857184Y-299192D01*
X-11730017Y-333267D01*
X-11598365Y-333267D01*
X-11471198Y-299192D01*
X-11414191Y-266279D01*
X-11414191Y-1183267D01*
X-10766357Y-1183267D01*
X-10706818Y-1176865D01*
X-10706817Y-1176865D01*
X-10572099Y-1126618D01*
X-10457002Y-1040455D01*
X-10370839Y-925358D01*
X-10320592Y-790640D01*
X-10320592Y-790639D01*
X-10314191Y-731101D01*
X-10314191Y22597D01*
X-10299839Y57245D01*
X-10265191Y71597D01*
X-10230543Y57245D01*
X-10216794Y30262D01*
X-10197593Y-90968D01*
X-10144064Y-255712D01*
X-10065423Y-410055D01*
X-9963605Y-550195D01*
X-9841119Y-672681D01*
X-9700979Y-774499D01*
X-9546636Y-853140D01*
X-9381892Y-906669D01*
X-9210802Y-933767D01*
X-9210801Y-933767D01*
X-9037581Y-933767D01*
X-9037580Y-933767D01*
X-8866490Y-906669D01*
X-8701746Y-853140D01*
X-8689485Y-846893D01*
X-8547408Y-774502D01*
X-8547405Y-774500D01*
X-8547403Y-774499D01*
X-8407263Y-672681D01*
X-8407259Y-672677D01*
X-8407256Y-672675D01*
X-8284782Y-550201D01*
X-8284779Y-550197D01*
X-8284777Y-550195D01*
X-8182959Y-410055D01*
X-8182958Y-410053D01*
X-8182955Y-410049D01*
X-8104318Y-255713D01*
X-8050789Y-90968D01*
X-8050788Y-90965D01*
X-8023691Y80122D01*
X-8023691Y253343D01*
X-8023691Y253344D01*
X-7684691Y253344D01*
X-7684691Y80122D01*
X-7657593Y-90968D01*
X-7604064Y-255712D01*
X-7525423Y-410055D01*
X-7423605Y-550195D01*
X-7301119Y-672681D01*
X-7160979Y-774499D01*
X-7006636Y-853140D01*
X-6841892Y-906669D01*
X-6670802Y-933767D01*
X-6670801Y-933767D01*
X-6497581Y-933767D01*
X-6497580Y-933767D01*
X-6326490Y-906669D01*
X-6161746Y-853140D01*
X-6149485Y-846893D01*
X-6007408Y-774502D01*
X-6007405Y-774500D01*
X-6007403Y-774499D01*
X-5867263Y-672681D01*
X-5867259Y-672677D01*
X-5867256Y-672675D01*
X-5744782Y-550201D01*
X-5744779Y-550197D01*
X-5744777Y-550195D01*
X-5642959Y-410055D01*
X-5642958Y-410053D01*
X-5642955Y-410049D01*
X-5564318Y-255713D01*
X-5510789Y-90968D01*
X-5510788Y-90965D01*
X-5483691Y80122D01*
X-5483691Y253343D01*
X-5510788Y424431D01*
X-5510789Y424434D01*
X-5564318Y589179D01*
X-5642955Y743515D01*
X-5642959Y743521D01*
X-5744777Y883661D01*
X-5744779Y883663D01*
X-5744782Y883667D01*
X-5867256Y1006141D01*
X-5867259Y1006143D01*
X-5867263Y1006147D01*
X-6007403Y1107965D01*
X-6007405Y1107966D01*
X-6007408Y1107968D01*
X-6161744Y1186605D01*
X-6161746Y1186606D01*
X-6326490Y1240135D01*
X-6497580Y1267233D01*
X-6670802Y1267233D01*
X-6841892Y1240135D01*
X-7006636Y1186606D01*
X-7160979Y1107965D01*
X-7301119Y1006147D01*
X-7423605Y883661D01*
X-7525423Y743521D01*
X-7604064Y589178D01*
X-7657593Y424434D01*
X-7684691Y253344D01*
X-8023691Y253344D01*
X-8050788Y424431D01*
X-8050789Y424434D01*
X-8104318Y589179D01*
X-8182955Y743515D01*
X-8182959Y743521D01*
X-8284777Y883661D01*
X-8284779Y883663D01*
X-8284782Y883667D01*
X-8407256Y1006141D01*
X-8407259Y1006143D01*
X-8407263Y1006147D01*
X-8547403Y1107965D01*
X-8547405Y1107966D01*
X-8547408Y1107968D01*
X-8701744Y1186605D01*
X-8701746Y1186606D01*
X-8866490Y1240135D01*
X-9037580Y1267233D01*
X-9210802Y1267233D01*
X-9381892Y1240135D01*
X-9546636Y1186606D01*
X-9700979Y1107965D01*
X-9841119Y1006147D01*
X-9963605Y883661D01*
X-10065423Y743521D01*
X-10144064Y589178D01*
X-10197593Y424434D01*
X-10215580Y310868D01*
X-10216794Y303203D01*
X-10236389Y271226D01*
X-10272856Y262471D01*
X-10304833Y282066D01*
X-10314191Y310868D01*
X-10314191Y1064567D01*
X-10320592Y1124105D01*
X-10320592Y1124106D01*
X-10370839Y1258824D01*
X-10457002Y1373921D01*
X-10462459Y1378007D01*
X-10481595Y1410260D01*
X-10472320Y1446598D01*
X-10440067Y1465734D01*
X-10433094Y1466233D01*
X11899912Y1466233D01*
X11963050Y1466233D01*
X11968537Y1465925D01*
G37*
%TD.AperFunction*%
%TD*%
M02*
